G04 #@! TF.GenerationSoftware,KiCad,Pcbnew,5.1.10-88a1d61d58~90~ubuntu20.04.1*
G04 #@! TF.CreationDate,2021-10-07T18:37:15+08:00*
G04 #@! TF.ProjectId,Ada_Ticker,4164615f-5469-4636-9b65-722e6b696361,rev?*
G04 #@! TF.SameCoordinates,Original*
G04 #@! TF.FileFunction,Legend,Top*
G04 #@! TF.FilePolarity,Positive*
%FSLAX46Y46*%
G04 Gerber Fmt 4.6, Leading zero omitted, Abs format (unit mm)*
G04 Created by KiCad (PCBNEW 5.1.10-88a1d61d58~90~ubuntu20.04.1) date 2021-10-07 18:37:15*
%MOMM*%
%LPD*%
G01*
G04 APERTURE LIST*
%ADD10C,0.150000*%
%ADD11C,0.200000*%
%ADD12C,0.120000*%
%ADD13C,0.010000*%
%ADD14C,0.499999*%
%ADD15C,0.203200*%
%ADD16C,0.254000*%
%ADD17R,2.000000X0.350000*%
%ADD18C,0.800000*%
%ADD19R,0.400000X1.850000*%
%ADD20C,0.100000*%
%ADD21R,1.000000X0.900000*%
%ADD22R,0.650000X1.060000*%
%ADD23R,0.800000X0.900000*%
%ADD24R,1.299997X1.299997*%
%ADD25O,1.399997X1.299997*%
%ADD26R,1.399997X1.299997*%
%ADD27C,1.999996*%
%ADD28R,1.999996X1.199998*%
%ADD29R,1.199998X1.999996*%
G04 APERTURE END LIST*
D10*
X40164261Y-52966880D02*
X39592833Y-52966880D01*
X39878547Y-52966880D02*
X39878547Y-51966880D01*
X39783309Y-52109738D01*
X39688071Y-52204976D01*
X39592833Y-52252595D01*
X40783309Y-51966880D02*
X40878547Y-51966880D01*
X40973785Y-52014500D01*
X41021404Y-52062119D01*
X41069023Y-52157357D01*
X41116642Y-52347833D01*
X41116642Y-52585928D01*
X41069023Y-52776404D01*
X41021404Y-52871642D01*
X40973785Y-52919261D01*
X40878547Y-52966880D01*
X40783309Y-52966880D01*
X40688071Y-52919261D01*
X40640452Y-52871642D01*
X40592833Y-52776404D01*
X40545214Y-52585928D01*
X40545214Y-52347833D01*
X40592833Y-52157357D01*
X40640452Y-52062119D01*
X40688071Y-52014500D01*
X40783309Y-51966880D01*
X42259500Y-51919261D02*
X41402357Y-53204976D01*
X42783309Y-51966880D02*
X42878547Y-51966880D01*
X42973785Y-52014500D01*
X43021404Y-52062119D01*
X43069023Y-52157357D01*
X43116642Y-52347833D01*
X43116642Y-52585928D01*
X43069023Y-52776404D01*
X43021404Y-52871642D01*
X42973785Y-52919261D01*
X42878547Y-52966880D01*
X42783309Y-52966880D01*
X42688071Y-52919261D01*
X42640452Y-52871642D01*
X42592833Y-52776404D01*
X42545214Y-52585928D01*
X42545214Y-52347833D01*
X42592833Y-52157357D01*
X42640452Y-52062119D01*
X42688071Y-52014500D01*
X42783309Y-51966880D01*
X43449976Y-51966880D02*
X44116642Y-51966880D01*
X43688071Y-52966880D01*
X45211880Y-51919261D02*
X44354738Y-53204976D01*
X45497595Y-52062119D02*
X45545214Y-52014500D01*
X45640452Y-51966880D01*
X45878547Y-51966880D01*
X45973785Y-52014500D01*
X46021404Y-52062119D01*
X46069023Y-52157357D01*
X46069023Y-52252595D01*
X46021404Y-52395452D01*
X45449976Y-52966880D01*
X46069023Y-52966880D01*
X46688071Y-51966880D02*
X46783309Y-51966880D01*
X46878547Y-52014500D01*
X46926166Y-52062119D01*
X46973785Y-52157357D01*
X47021404Y-52347833D01*
X47021404Y-52585928D01*
X46973785Y-52776404D01*
X46926166Y-52871642D01*
X46878547Y-52919261D01*
X46783309Y-52966880D01*
X46688071Y-52966880D01*
X46592833Y-52919261D01*
X46545214Y-52871642D01*
X46497595Y-52776404D01*
X46449976Y-52585928D01*
X46449976Y-52347833D01*
X46497595Y-52157357D01*
X46545214Y-52062119D01*
X46592833Y-52014500D01*
X46688071Y-51966880D01*
X47402357Y-52062119D02*
X47449976Y-52014500D01*
X47545214Y-51966880D01*
X47783309Y-51966880D01*
X47878547Y-52014500D01*
X47926166Y-52062119D01*
X47973785Y-52157357D01*
X47973785Y-52252595D01*
X47926166Y-52395452D01*
X47354738Y-52966880D01*
X47973785Y-52966880D01*
X48926166Y-52966880D02*
X48354738Y-52966880D01*
X48640452Y-52966880D02*
X48640452Y-51966880D01*
X48545214Y-52109738D01*
X48449976Y-52204976D01*
X48354738Y-52252595D01*
D11*
X2073642Y-1528071D02*
X2930785Y-1528071D01*
X2502214Y-3028071D02*
X2502214Y-1528071D01*
X3430785Y-3028071D02*
X3430785Y-1528071D01*
X4073642Y-3028071D02*
X4073642Y-2242357D01*
X4002214Y-2099500D01*
X3859357Y-2028071D01*
X3645071Y-2028071D01*
X3502214Y-2099500D01*
X3430785Y-2170928D01*
X5359357Y-2956642D02*
X5216500Y-3028071D01*
X4930785Y-3028071D01*
X4787928Y-2956642D01*
X4716500Y-2813785D01*
X4716500Y-2242357D01*
X4787928Y-2099500D01*
X4930785Y-2028071D01*
X5216500Y-2028071D01*
X5359357Y-2099500D01*
X5430785Y-2242357D01*
X5430785Y-2385214D01*
X4716500Y-2528071D01*
X7002214Y-2028071D02*
X7573642Y-2028071D01*
X7216500Y-3028071D02*
X7216500Y-1742357D01*
X7287928Y-1599500D01*
X7430785Y-1528071D01*
X7573642Y-1528071D01*
X8716500Y-2028071D02*
X8716500Y-3028071D01*
X8073642Y-2028071D02*
X8073642Y-2813785D01*
X8145071Y-2956642D01*
X8287928Y-3028071D01*
X8502214Y-3028071D01*
X8645071Y-2956642D01*
X8716500Y-2885214D01*
X9216500Y-2028071D02*
X9787928Y-2028071D01*
X9430785Y-1528071D02*
X9430785Y-2813785D01*
X9502214Y-2956642D01*
X9645071Y-3028071D01*
X9787928Y-3028071D01*
X10930785Y-2028071D02*
X10930785Y-3028071D01*
X10287928Y-2028071D02*
X10287928Y-2813785D01*
X10359357Y-2956642D01*
X10502214Y-3028071D01*
X10716500Y-3028071D01*
X10859357Y-2956642D01*
X10930785Y-2885214D01*
X11645071Y-3028071D02*
X11645071Y-2028071D01*
X11645071Y-2313785D02*
X11716500Y-2170928D01*
X11787928Y-2099500D01*
X11930785Y-2028071D01*
X12073642Y-2028071D01*
X13145071Y-2956642D02*
X13002214Y-3028071D01*
X12716500Y-3028071D01*
X12573642Y-2956642D01*
X12502214Y-2813785D01*
X12502214Y-2242357D01*
X12573642Y-2099500D01*
X12716500Y-2028071D01*
X13002214Y-2028071D01*
X13145071Y-2099500D01*
X13216500Y-2242357D01*
X13216500Y-2385214D01*
X12502214Y-2528071D01*
X15002214Y-3028071D02*
X15002214Y-2028071D01*
X15002214Y-1528071D02*
X14930785Y-1599500D01*
X15002214Y-1670928D01*
X15073642Y-1599500D01*
X15002214Y-1528071D01*
X15002214Y-1670928D01*
X15645071Y-2956642D02*
X15787928Y-3028071D01*
X16073642Y-3028071D01*
X16216499Y-2956642D01*
X16287928Y-2813785D01*
X16287928Y-2742357D01*
X16216499Y-2599500D01*
X16073642Y-2528071D01*
X15859357Y-2528071D01*
X15716499Y-2456642D01*
X15645071Y-2313785D01*
X15645071Y-2242357D01*
X15716499Y-2099500D01*
X15859357Y-2028071D01*
X16073642Y-2028071D01*
X16216499Y-2099500D01*
X18716500Y-3028071D02*
X18716500Y-1528071D01*
X18716500Y-2956642D02*
X18573642Y-3028071D01*
X18287928Y-3028071D01*
X18145071Y-2956642D01*
X18073642Y-2885214D01*
X18002214Y-2742357D01*
X18002214Y-2313785D01*
X18073642Y-2170928D01*
X18145071Y-2099500D01*
X18287928Y-2028071D01*
X18573642Y-2028071D01*
X18716500Y-2099500D01*
X20002214Y-2956642D02*
X19859357Y-3028071D01*
X19573642Y-3028071D01*
X19430785Y-2956642D01*
X19359357Y-2813785D01*
X19359357Y-2242357D01*
X19430785Y-2099500D01*
X19573642Y-2028071D01*
X19859357Y-2028071D01*
X20002214Y-2099500D01*
X20073642Y-2242357D01*
X20073642Y-2385214D01*
X19359357Y-2528071D01*
X21359357Y-2956642D02*
X21216500Y-3028071D01*
X20930785Y-3028071D01*
X20787928Y-2956642D01*
X20716500Y-2885214D01*
X20645071Y-2742357D01*
X20645071Y-2313785D01*
X20716500Y-2170928D01*
X20787928Y-2099500D01*
X20930785Y-2028071D01*
X21216500Y-2028071D01*
X21359357Y-2099500D01*
X22573642Y-2956642D02*
X22430785Y-3028071D01*
X22145071Y-3028071D01*
X22002214Y-2956642D01*
X21930785Y-2813785D01*
X21930785Y-2242357D01*
X22002214Y-2099500D01*
X22145071Y-2028071D01*
X22430785Y-2028071D01*
X22573642Y-2099500D01*
X22645071Y-2242357D01*
X22645071Y-2385214D01*
X21930785Y-2528071D01*
X23287928Y-2028071D02*
X23287928Y-3028071D01*
X23287928Y-2170928D02*
X23359357Y-2099500D01*
X23502214Y-2028071D01*
X23716500Y-2028071D01*
X23859357Y-2099500D01*
X23930785Y-2242357D01*
X23930785Y-3028071D01*
X24430785Y-2028071D02*
X25002214Y-2028071D01*
X24645071Y-1528071D02*
X24645071Y-2813785D01*
X24716500Y-2956642D01*
X24859357Y-3028071D01*
X25002214Y-3028071D01*
X25502214Y-3028071D02*
X25502214Y-2028071D01*
X25502214Y-2313785D02*
X25573642Y-2170928D01*
X25645071Y-2099500D01*
X25787928Y-2028071D01*
X25930785Y-2028071D01*
X27073642Y-3028071D02*
X27073642Y-2242357D01*
X27002214Y-2099500D01*
X26859357Y-2028071D01*
X26573642Y-2028071D01*
X26430785Y-2099500D01*
X27073642Y-2956642D02*
X26930785Y-3028071D01*
X26573642Y-3028071D01*
X26430785Y-2956642D01*
X26359357Y-2813785D01*
X26359357Y-2670928D01*
X26430785Y-2528071D01*
X26573642Y-2456642D01*
X26930785Y-2456642D01*
X27073642Y-2385214D01*
X28002214Y-3028071D02*
X27859357Y-2956642D01*
X27787928Y-2813785D01*
X27787928Y-1528071D01*
X28573642Y-3028071D02*
X28573642Y-2028071D01*
X28573642Y-1528071D02*
X28502214Y-1599500D01*
X28573642Y-1670928D01*
X28645071Y-1599500D01*
X28573642Y-1528071D01*
X28573642Y-1670928D01*
X29145071Y-2028071D02*
X29930785Y-2028071D01*
X29145071Y-3028071D01*
X29930785Y-3028071D01*
X31073642Y-2956642D02*
X30930785Y-3028071D01*
X30645071Y-3028071D01*
X30502214Y-2956642D01*
X30430785Y-2813785D01*
X30430785Y-2242357D01*
X30502214Y-2099500D01*
X30645071Y-2028071D01*
X30930785Y-2028071D01*
X31073642Y-2099500D01*
X31145071Y-2242357D01*
X31145071Y-2385214D01*
X30430785Y-2528071D01*
X32430785Y-3028071D02*
X32430785Y-1528071D01*
X32430785Y-2956642D02*
X32287928Y-3028071D01*
X32002214Y-3028071D01*
X31859357Y-2956642D01*
X31787928Y-2885214D01*
X31716500Y-2742357D01*
X31716500Y-2313785D01*
X31787928Y-2170928D01*
X31859357Y-2099500D01*
X32002214Y-2028071D01*
X32287928Y-2028071D01*
X32430785Y-2099500D01*
X33145071Y-2885214D02*
X33216500Y-2956642D01*
X33145071Y-3028071D01*
X33073642Y-2956642D01*
X33145071Y-2885214D01*
X33145071Y-3028071D01*
D10*
X73326976Y-44870761D02*
X72469833Y-46156476D01*
X73565071Y-45918380D02*
X74088880Y-45251714D01*
X73565071Y-45251714D02*
X74088880Y-45918380D01*
X74612690Y-45918380D02*
X74517452Y-45870761D01*
X74469833Y-45775523D01*
X74469833Y-44918380D01*
X75422214Y-45918380D02*
X75422214Y-45394571D01*
X75374595Y-45299333D01*
X75279357Y-45251714D01*
X75088880Y-45251714D01*
X74993642Y-45299333D01*
X75422214Y-45870761D02*
X75326976Y-45918380D01*
X75088880Y-45918380D01*
X74993642Y-45870761D01*
X74946023Y-45775523D01*
X74946023Y-45680285D01*
X74993642Y-45585047D01*
X75088880Y-45537428D01*
X75326976Y-45537428D01*
X75422214Y-45489809D01*
X75850785Y-45870761D02*
X75946023Y-45918380D01*
X76136500Y-45918380D01*
X76231738Y-45870761D01*
X76279357Y-45775523D01*
X76279357Y-45727904D01*
X76231738Y-45632666D01*
X76136500Y-45585047D01*
X75993642Y-45585047D01*
X75898404Y-45537428D01*
X75850785Y-45442190D01*
X75850785Y-45394571D01*
X75898404Y-45299333D01*
X75993642Y-45251714D01*
X76136500Y-45251714D01*
X76231738Y-45299333D01*
X76707928Y-45918380D02*
X76707928Y-44918380D01*
X77136500Y-45918380D02*
X77136500Y-45394571D01*
X77088880Y-45299333D01*
X76993642Y-45251714D01*
X76850785Y-45251714D01*
X76755547Y-45299333D01*
X76707928Y-45346952D01*
X78041261Y-45918380D02*
X78041261Y-44918380D01*
X78041261Y-45870761D02*
X77946023Y-45918380D01*
X77755547Y-45918380D01*
X77660309Y-45870761D01*
X77612690Y-45823142D01*
X77565071Y-45727904D01*
X77565071Y-45442190D01*
X77612690Y-45346952D01*
X77660309Y-45299333D01*
X77755547Y-45251714D01*
X77946023Y-45251714D01*
X78041261Y-45299333D01*
X78898404Y-45870761D02*
X78803166Y-45918380D01*
X78612690Y-45918380D01*
X78517452Y-45870761D01*
X78469833Y-45775523D01*
X78469833Y-45394571D01*
X78517452Y-45299333D01*
X78612690Y-45251714D01*
X78803166Y-45251714D01*
X78898404Y-45299333D01*
X78946023Y-45394571D01*
X78946023Y-45489809D01*
X78469833Y-45585047D01*
X79279357Y-45251714D02*
X79517452Y-45918380D01*
X79755547Y-45251714D01*
D12*
X50083500Y-26906500D02*
X50083500Y-906500D01*
X50083500Y-906500D02*
X79583500Y-906500D01*
X79583500Y-26906500D02*
X79583500Y-906500D01*
X50083500Y-26906500D02*
X79583500Y-26906500D01*
X66433500Y-16606500D02*
X66433500Y-4906500D01*
D13*
G36*
X28984579Y-50147305D02*
G01*
X29317666Y-50863800D01*
X29111656Y-51792167D01*
X28468183Y-52373026D01*
X27633604Y-52393431D01*
X27079222Y-52048833D01*
X26680690Y-51248538D01*
X26867705Y-50440636D01*
X27335888Y-50016399D01*
X28270165Y-49811017D01*
X28984579Y-50147305D01*
G37*
X28984579Y-50147305D02*
X29317666Y-50863800D01*
X29111656Y-51792167D01*
X28468183Y-52373026D01*
X27633604Y-52393431D01*
X27079222Y-52048833D01*
X26680690Y-51248538D01*
X26867705Y-50440636D01*
X27335888Y-50016399D01*
X28270165Y-49811017D01*
X28984579Y-50147305D01*
G36*
X15893554Y-49070960D02*
G01*
X16335717Y-49577336D01*
X16361881Y-50089339D01*
X16016431Y-50737369D01*
X15397010Y-51011181D01*
X14781777Y-50850682D01*
X14516994Y-50487908D01*
X14544793Y-49763119D01*
X15024524Y-49194337D01*
X15719858Y-49024824D01*
X15893554Y-49070960D01*
G37*
X15893554Y-49070960D02*
X16335717Y-49577336D01*
X16361881Y-50089339D01*
X16016431Y-50737369D01*
X15397010Y-51011181D01*
X14781777Y-50850682D01*
X14516994Y-50487908D01*
X14544793Y-49763119D01*
X15024524Y-49194337D01*
X15719858Y-49024824D01*
X15893554Y-49070960D01*
G36*
X41484144Y-49312382D02*
G01*
X41648944Y-50002722D01*
X41455055Y-50729451D01*
X40853617Y-50997604D01*
X40109467Y-50869467D01*
X39845735Y-50556631D01*
X39767214Y-49683252D01*
X40189843Y-49113643D01*
X40853617Y-49007840D01*
X41484144Y-49312382D01*
G37*
X41484144Y-49312382D02*
X41648944Y-50002722D01*
X41455055Y-50729451D01*
X40853617Y-50997604D01*
X40109467Y-50869467D01*
X39845735Y-50556631D01*
X39767214Y-49683252D01*
X40189843Y-49113643D01*
X40853617Y-49007840D01*
X41484144Y-49312382D01*
G36*
X19527952Y-42785433D02*
G01*
X19882555Y-43017722D01*
X20263385Y-43799452D01*
X20254171Y-44752144D01*
X19886116Y-45545815D01*
X19623525Y-45756977D01*
X18830467Y-46076643D01*
X18165996Y-45962015D01*
X17748250Y-45741132D01*
X17283578Y-45118025D01*
X17141614Y-44194461D01*
X17346495Y-43309248D01*
X17554222Y-43017722D01*
X18241989Y-42664283D01*
X18718389Y-42594389D01*
X19527952Y-42785433D01*
G37*
X19527952Y-42785433D02*
X19882555Y-43017722D01*
X20263385Y-43799452D01*
X20254171Y-44752144D01*
X19886116Y-45545815D01*
X19623525Y-45756977D01*
X18830467Y-46076643D01*
X18165996Y-45962015D01*
X17748250Y-45741132D01*
X17283578Y-45118025D01*
X17141614Y-44194461D01*
X17346495Y-43309248D01*
X17554222Y-43017722D01*
X18241989Y-42664283D01*
X18718389Y-42594389D01*
X19527952Y-42785433D01*
G36*
X38375442Y-42887021D02*
G01*
X38889358Y-43682622D01*
X38940407Y-44563473D01*
X38552146Y-45460868D01*
X37786714Y-45869972D01*
X36844728Y-45707428D01*
X36574412Y-45546555D01*
X35939829Y-44768644D01*
X35848425Y-43879436D01*
X36236125Y-43096718D01*
X37038855Y-42638274D01*
X37442971Y-42594389D01*
X38375442Y-42887021D01*
G37*
X38375442Y-42887021D02*
X38889358Y-43682622D01*
X38940407Y-44563473D01*
X38552146Y-45460868D01*
X37786714Y-45869972D01*
X36844728Y-45707428D01*
X36574412Y-45546555D01*
X35939829Y-44768644D01*
X35848425Y-43879436D01*
X36236125Y-43096718D01*
X37038855Y-42638274D01*
X37442971Y-42594389D01*
X38375442Y-42887021D01*
G36*
X28574802Y-40558927D02*
G01*
X29276524Y-41032087D01*
X29713797Y-41858300D01*
X29805655Y-42891116D01*
X29536082Y-43775731D01*
X29407555Y-43934944D01*
X28642132Y-44306736D01*
X27650857Y-44346261D01*
X26750878Y-44080088D01*
X26315523Y-43675914D01*
X26020689Y-42581976D01*
X26234726Y-41602298D01*
X26822109Y-40857891D01*
X27647310Y-40469764D01*
X28574802Y-40558927D01*
G37*
X28574802Y-40558927D02*
X29276524Y-41032087D01*
X29713797Y-41858300D01*
X29805655Y-42891116D01*
X29536082Y-43775731D01*
X29407555Y-43934944D01*
X28642132Y-44306736D01*
X27650857Y-44346261D01*
X26750878Y-44080088D01*
X26315523Y-43675914D01*
X26020689Y-42581976D01*
X26234726Y-41602298D01*
X26822109Y-40857891D01*
X27647310Y-40469764D01*
X28574802Y-40558927D01*
G36*
X8810507Y-38566609D02*
G01*
X9394983Y-39146550D01*
X9498104Y-39944134D01*
X9459474Y-40071040D01*
X8901887Y-40890600D01*
X8150710Y-41154194D01*
X7395544Y-40809666D01*
X7269226Y-40673529D01*
X6922075Y-39839263D01*
X7083082Y-39022509D01*
X7674514Y-38485351D01*
X7938901Y-38415747D01*
X8810507Y-38566609D01*
G37*
X8810507Y-38566609D02*
X9394983Y-39146550D01*
X9498104Y-39944134D01*
X9459474Y-40071040D01*
X8901887Y-40890600D01*
X8150710Y-41154194D01*
X7395544Y-40809666D01*
X7269226Y-40673529D01*
X6922075Y-39839263D01*
X7083082Y-39022509D01*
X7674514Y-38485351D01*
X7938901Y-38415747D01*
X8810507Y-38566609D01*
G36*
X48750086Y-38625408D02*
G01*
X49025138Y-39039261D01*
X49057278Y-39595778D01*
X48949758Y-40369348D01*
X48492615Y-40696002D01*
X48085133Y-40765931D01*
X47222050Y-40671708D01*
X46908770Y-40345566D01*
X46768684Y-39350918D01*
X47200572Y-38723358D01*
X48003776Y-38537444D01*
X48750086Y-38625408D01*
G37*
X48750086Y-38625408D02*
X49025138Y-39039261D01*
X49057278Y-39595778D01*
X48949758Y-40369348D01*
X48492615Y-40696002D01*
X48085133Y-40765931D01*
X47222050Y-40671708D01*
X46908770Y-40345566D01*
X46768684Y-39350918D01*
X47200572Y-38723358D01*
X48003776Y-38537444D01*
X48750086Y-38625408D01*
G36*
X24853748Y-32156580D02*
G01*
X26129787Y-32856114D01*
X26330248Y-33042252D01*
X27190317Y-34318217D01*
X27367634Y-35678094D01*
X26860877Y-37022869D01*
X26391305Y-37615926D01*
X25143571Y-38581074D01*
X23826731Y-38858753D01*
X22513769Y-38533379D01*
X21438809Y-37751385D01*
X20683425Y-36589914D01*
X20381938Y-35300678D01*
X20448958Y-34664047D01*
X21098663Y-33336913D01*
X22164893Y-32444767D01*
X23474352Y-32035393D01*
X24853748Y-32156580D01*
G37*
X24853748Y-32156580D02*
X26129787Y-32856114D01*
X26330248Y-33042252D01*
X27190317Y-34318217D01*
X27367634Y-35678094D01*
X26860877Y-37022869D01*
X26391305Y-37615926D01*
X25143571Y-38581074D01*
X23826731Y-38858753D01*
X22513769Y-38533379D01*
X21438809Y-37751385D01*
X20683425Y-36589914D01*
X20381938Y-35300678D01*
X20448958Y-34664047D01*
X21098663Y-33336913D01*
X22164893Y-32444767D01*
X23474352Y-32035393D01*
X24853748Y-32156580D01*
G36*
X33752786Y-32298958D02*
G01*
X34867529Y-33102512D01*
X35597890Y-34355896D01*
X35671820Y-34611368D01*
X35705111Y-36010332D01*
X35176420Y-37244648D01*
X34227947Y-38193640D01*
X33001892Y-38736631D01*
X31640458Y-38752944D01*
X31022679Y-38556799D01*
X29723075Y-37680980D01*
X28962441Y-36502031D01*
X28774122Y-35170813D01*
X29191464Y-33838187D01*
X29803752Y-33042252D01*
X31050749Y-32223330D01*
X32423810Y-31990731D01*
X33752786Y-32298958D01*
G37*
X33752786Y-32298958D02*
X34867529Y-33102512D01*
X35597890Y-34355896D01*
X35671820Y-34611368D01*
X35705111Y-36010332D01*
X35176420Y-37244648D01*
X34227947Y-38193640D01*
X33001892Y-38736631D01*
X31640458Y-38752944D01*
X31022679Y-38556799D01*
X29723075Y-37680980D01*
X28962441Y-36502031D01*
X28774122Y-35170813D01*
X29191464Y-33838187D01*
X29803752Y-33042252D01*
X31050749Y-32223330D01*
X32423810Y-31990731D01*
X33752786Y-32298958D01*
G36*
X16789164Y-33665962D02*
G01*
X17349224Y-34420893D01*
X17483666Y-35420588D01*
X17199283Y-36460542D01*
X16482350Y-37120188D01*
X15537192Y-37322858D01*
X14568136Y-36991884D01*
X14186954Y-36657583D01*
X13685719Y-35680525D01*
X13773503Y-34697792D01*
X14360037Y-33894436D01*
X15355053Y-33455509D01*
X15765194Y-33422166D01*
X16789164Y-33665962D01*
G37*
X16789164Y-33665962D02*
X17349224Y-34420893D01*
X17483666Y-35420588D01*
X17199283Y-36460542D01*
X16482350Y-37120188D01*
X15537192Y-37322858D01*
X14568136Y-36991884D01*
X14186954Y-36657583D01*
X13685719Y-35680525D01*
X13773503Y-34697792D01*
X14360037Y-33894436D01*
X15355053Y-33455509D01*
X15765194Y-33422166D01*
X16789164Y-33665962D01*
G36*
X40892421Y-33482380D02*
G01*
X41805033Y-33833077D01*
X41976524Y-33976532D01*
X42470634Y-34911622D01*
X42392400Y-35958412D01*
X41885750Y-36718879D01*
X40877198Y-37245560D01*
X39855957Y-37122803D01*
X39234176Y-36657583D01*
X38758713Y-35743534D01*
X38689946Y-34706287D01*
X39046585Y-33873636D01*
X39073666Y-33845500D01*
X39863696Y-33481182D01*
X40892421Y-33482380D01*
G37*
X40892421Y-33482380D02*
X41805033Y-33833077D01*
X41976524Y-33976532D01*
X42470634Y-34911622D01*
X42392400Y-35958412D01*
X41885750Y-36718879D01*
X40877198Y-37245560D01*
X39855957Y-37122803D01*
X39234176Y-36657583D01*
X38758713Y-35743534D01*
X38689946Y-34706287D01*
X39046585Y-33873636D01*
X39073666Y-33845500D01*
X39863696Y-33481182D01*
X40892421Y-33482380D01*
G36*
X21122831Y-24996789D02*
G01*
X22322236Y-25946338D01*
X22977958Y-27179396D01*
X23089996Y-28529786D01*
X22658350Y-29831333D01*
X21683021Y-30917859D01*
X21122831Y-31264211D01*
X19728752Y-31637146D01*
X18369719Y-31307644D01*
X17409055Y-30636046D01*
X16637119Y-29804472D01*
X16314186Y-28944616D01*
X16264980Y-28130500D01*
X16565124Y-26704594D01*
X17362655Y-25582557D01*
X18503218Y-24863959D01*
X19832461Y-24648372D01*
X21122831Y-24996789D01*
G37*
X21122831Y-24996789D02*
X22322236Y-25946338D01*
X22977958Y-27179396D01*
X23089996Y-28529786D01*
X22658350Y-29831333D01*
X21683021Y-30917859D01*
X21122831Y-31264211D01*
X19728752Y-31637146D01*
X18369719Y-31307644D01*
X17409055Y-30636046D01*
X16637119Y-29804472D01*
X16314186Y-28944616D01*
X16264980Y-28130500D01*
X16565124Y-26704594D01*
X17362655Y-25582557D01*
X18503218Y-24863959D01*
X19832461Y-24648372D01*
X21122831Y-24996789D01*
G36*
X37623222Y-24902704D02*
G01*
X38724944Y-25624954D01*
X39611905Y-26815022D01*
X39904061Y-28133769D01*
X39651348Y-29423308D01*
X38903700Y-30525756D01*
X37711054Y-31283226D01*
X36867482Y-31497863D01*
X35699066Y-31471804D01*
X34808608Y-31183505D01*
X33781804Y-30249605D01*
X33178060Y-28997678D01*
X33048206Y-27645293D01*
X33443072Y-26410021D01*
X33631094Y-26143317D01*
X34868897Y-25058712D01*
X36229390Y-24642143D01*
X37623222Y-24902704D01*
G37*
X37623222Y-24902704D02*
X38724944Y-25624954D01*
X39611905Y-26815022D01*
X39904061Y-28133769D01*
X39651348Y-29423308D01*
X38903700Y-30525756D01*
X37711054Y-31283226D01*
X36867482Y-31497863D01*
X35699066Y-31471804D01*
X34808608Y-31183505D01*
X33781804Y-30249605D01*
X33178060Y-28997678D01*
X33048206Y-27645293D01*
X33443072Y-26410021D01*
X33631094Y-26143317D01*
X34868897Y-25058712D01*
X36229390Y-24642143D01*
X37623222Y-24902704D01*
G36*
X9721185Y-26550446D02*
G01*
X10251722Y-26863337D01*
X10982909Y-27657679D01*
X11057460Y-28567701D01*
X10579301Y-29340024D01*
X9666192Y-29847869D01*
X8718851Y-29678093D01*
X8189732Y-29249250D01*
X7660399Y-28319697D01*
X7830884Y-27478992D01*
X8487833Y-26863337D01*
X9178290Y-26490075D01*
X9721185Y-26550446D01*
G37*
X9721185Y-26550446D02*
X10251722Y-26863337D01*
X10982909Y-27657679D01*
X11057460Y-28567701D01*
X10579301Y-29340024D01*
X9666192Y-29847869D01*
X8718851Y-29678093D01*
X8189732Y-29249250D01*
X7660399Y-28319697D01*
X7830884Y-27478992D01*
X8487833Y-26863337D01*
X9178290Y-26490075D01*
X9721185Y-26550446D01*
G36*
X47533578Y-26656427D02*
G01*
X48186015Y-27335436D01*
X48521330Y-28117985D01*
X48528111Y-28226468D01*
X48264704Y-28784840D01*
X47662770Y-29411136D01*
X47004743Y-29838292D01*
X46764222Y-29894389D01*
X46360621Y-29713257D01*
X45784384Y-29345218D01*
X45194722Y-28715996D01*
X45000333Y-28165172D01*
X45292096Y-27385631D01*
X45977506Y-26693127D01*
X46771741Y-26368325D01*
X46825518Y-26366611D01*
X47533578Y-26656427D01*
G37*
X47533578Y-26656427D02*
X48186015Y-27335436D01*
X48521330Y-28117985D01*
X48528111Y-28226468D01*
X48264704Y-28784840D01*
X47662770Y-29411136D01*
X47004743Y-29838292D01*
X46764222Y-29894389D01*
X46360621Y-29713257D01*
X45784384Y-29345218D01*
X45194722Y-28715996D01*
X45000333Y-28165172D01*
X45292096Y-27385631D01*
X45977506Y-26693127D01*
X46771741Y-26368325D01*
X46825518Y-26366611D01*
X47533578Y-26656427D01*
G36*
X3193554Y-27198738D02*
G01*
X3635717Y-27705114D01*
X3661881Y-28217117D01*
X3316431Y-28865147D01*
X2697010Y-29138959D01*
X2081777Y-28978460D01*
X1816994Y-28615686D01*
X1844793Y-27890897D01*
X2324524Y-27322115D01*
X3019858Y-27152602D01*
X3193554Y-27198738D01*
G37*
X3193554Y-27198738D02*
X3635717Y-27705114D01*
X3661881Y-28217117D01*
X3316431Y-28865147D01*
X2697010Y-29138959D01*
X2081777Y-28978460D01*
X1816994Y-28615686D01*
X1844793Y-27890897D01*
X2324524Y-27322115D01*
X3019858Y-27152602D01*
X3193554Y-27198738D01*
G36*
X54096761Y-27349808D02*
G01*
X54377461Y-27990638D01*
X54135446Y-28704380D01*
X53468833Y-29144332D01*
X52827386Y-29041786D01*
X52536240Y-28659666D01*
X52478285Y-27806954D01*
X52910253Y-27210947D01*
X53418185Y-27072167D01*
X54096761Y-27349808D01*
G37*
X54096761Y-27349808D02*
X54377461Y-27990638D01*
X54135446Y-28704380D01*
X53468833Y-29144332D01*
X52827386Y-29041786D01*
X52536240Y-28659666D01*
X52478285Y-27806954D01*
X52910253Y-27210947D01*
X53418185Y-27072167D01*
X54096761Y-27349808D01*
G36*
X24954225Y-17654914D02*
G01*
X25057823Y-17696405D01*
X26327028Y-18546392D01*
X27087674Y-19721516D01*
X27309303Y-21056454D01*
X26961456Y-22385884D01*
X26118960Y-23456194D01*
X24981682Y-24049553D01*
X23591213Y-24247798D01*
X22287876Y-24016980D01*
X21981575Y-23868905D01*
X21394031Y-23312591D01*
X20822986Y-22462248D01*
X20803827Y-22425665D01*
X20408882Y-21023944D01*
X20597035Y-19699853D01*
X21256964Y-18577149D01*
X22277351Y-17779587D01*
X23546878Y-17430923D01*
X24954225Y-17654914D01*
G37*
X24954225Y-17654914D02*
X25057823Y-17696405D01*
X26327028Y-18546392D01*
X27087674Y-19721516D01*
X27309303Y-21056454D01*
X26961456Y-22385884D01*
X26118960Y-23456194D01*
X24981682Y-24049553D01*
X23591213Y-24247798D01*
X22287876Y-24016980D01*
X21981575Y-23868905D01*
X21394031Y-23312591D01*
X20822986Y-22462248D01*
X20803827Y-22425665D01*
X20408882Y-21023944D01*
X20597035Y-19699853D01*
X21256964Y-18577149D01*
X22277351Y-17779587D01*
X23546878Y-17430923D01*
X24954225Y-17654914D01*
G36*
X33510227Y-17665016D02*
G01*
X34673571Y-18456326D01*
X35342939Y-19430716D01*
X35702939Y-20840297D01*
X35483830Y-22113764D01*
X34810222Y-23165904D01*
X33806721Y-23911500D01*
X32597938Y-24265339D01*
X31308481Y-24142205D01*
X30062957Y-23456883D01*
X29803752Y-23218748D01*
X28952739Y-21942789D01*
X28779113Y-20560062D01*
X29286310Y-19172616D01*
X29650632Y-18674432D01*
X30826030Y-17751120D01*
X32170137Y-17422298D01*
X33510227Y-17665016D01*
G37*
X33510227Y-17665016D02*
X34673571Y-18456326D01*
X35342939Y-19430716D01*
X35702939Y-20840297D01*
X35483830Y-22113764D01*
X34810222Y-23165904D01*
X33806721Y-23911500D01*
X32597938Y-24265339D01*
X31308481Y-24142205D01*
X30062957Y-23456883D01*
X29803752Y-23218748D01*
X28952739Y-21942789D01*
X28779113Y-20560062D01*
X29286310Y-19172616D01*
X29650632Y-18674432D01*
X30826030Y-17751120D01*
X32170137Y-17422298D01*
X33510227Y-17665016D01*
G36*
X16493111Y-19263178D02*
G01*
X17148352Y-20021158D01*
X17471426Y-20997132D01*
X17363352Y-21956017D01*
X17060333Y-22415500D01*
X16270303Y-22779818D01*
X15241579Y-22778620D01*
X14328967Y-22427922D01*
X14157476Y-22284468D01*
X13674791Y-21383544D01*
X13736741Y-20396220D01*
X14249897Y-19537229D01*
X15120830Y-19021305D01*
X15604685Y-18958278D01*
X16493111Y-19263178D01*
G37*
X16493111Y-19263178D02*
X17148352Y-20021158D01*
X17471426Y-20997132D01*
X17363352Y-21956017D01*
X17060333Y-22415500D01*
X16270303Y-22779818D01*
X15241579Y-22778620D01*
X14328967Y-22427922D01*
X14157476Y-22284468D01*
X13674791Y-21383544D01*
X13736741Y-20396220D01*
X14249897Y-19537229D01*
X15120830Y-19021305D01*
X15604685Y-18958278D01*
X16493111Y-19263178D01*
G36*
X41519869Y-19259549D02*
G01*
X42263362Y-19958300D01*
X42530889Y-20959852D01*
X42225988Y-21848278D01*
X41468008Y-22503519D01*
X40492034Y-22826592D01*
X39533149Y-22718519D01*
X39073667Y-22415500D01*
X38701875Y-21650076D01*
X38662350Y-20658801D01*
X38928522Y-19758823D01*
X39332697Y-19323467D01*
X40482138Y-19016807D01*
X41519869Y-19259549D01*
G37*
X41519869Y-19259549D02*
X42263362Y-19958300D01*
X42530889Y-20959852D01*
X42225988Y-21848278D01*
X41468008Y-22503519D01*
X40492034Y-22826592D01*
X39533149Y-22718519D01*
X39073667Y-22415500D01*
X38701875Y-21650076D01*
X38662350Y-20658801D01*
X38928522Y-19758823D01*
X39332697Y-19323467D01*
X40482138Y-19016807D01*
X41519869Y-19259549D01*
G36*
X8886197Y-15694852D02*
G01*
X9161249Y-16108705D01*
X9193389Y-16665222D01*
X9085869Y-17438793D01*
X8628726Y-17765446D01*
X8221244Y-17835376D01*
X7358162Y-17741153D01*
X7044881Y-17415010D01*
X6904795Y-16420362D01*
X7336683Y-15792802D01*
X8139887Y-15606889D01*
X8886197Y-15694852D01*
G37*
X8886197Y-15694852D02*
X9161249Y-16108705D01*
X9193389Y-16665222D01*
X9085869Y-17438793D01*
X8628726Y-17765446D01*
X8221244Y-17835376D01*
X7358162Y-17741153D01*
X7044881Y-17415010D01*
X6904795Y-16420362D01*
X7336683Y-15792802D01*
X8139887Y-15606889D01*
X8886197Y-15694852D01*
G36*
X48477800Y-15406858D02*
G01*
X48574810Y-15455492D01*
X49142362Y-16074601D01*
X49201042Y-16856174D01*
X48802247Y-17533829D01*
X48116212Y-17832377D01*
X47200526Y-17696478D01*
X46839425Y-17341298D01*
X46603826Y-16400303D01*
X46898638Y-15655258D01*
X47573436Y-15269622D01*
X48477800Y-15406858D01*
G37*
X48477800Y-15406858D02*
X48574810Y-15455492D01*
X49142362Y-16074601D01*
X49201042Y-16856174D01*
X48802247Y-17533829D01*
X48116212Y-17832377D01*
X47200526Y-17696478D01*
X46839425Y-17341298D01*
X46603826Y-16400303D01*
X46898638Y-15655258D01*
X47573436Y-15269622D01*
X48477800Y-15406858D01*
G36*
X28560546Y-11980010D02*
G01*
X29399625Y-12427374D01*
X29916974Y-13205957D01*
X29943023Y-14213853D01*
X29867286Y-14452824D01*
X29206821Y-15397233D01*
X28271813Y-15764672D01*
X27238654Y-15520816D01*
X26655889Y-15077722D01*
X26036406Y-14099689D01*
X26102703Y-13140340D01*
X26595472Y-12486565D01*
X27569305Y-11965772D01*
X28560546Y-11980010D01*
G37*
X28560546Y-11980010D02*
X29399625Y-12427374D01*
X29916974Y-13205957D01*
X29943023Y-14213853D01*
X29867286Y-14452824D01*
X29206821Y-15397233D01*
X28271813Y-15764672D01*
X27238654Y-15520816D01*
X26655889Y-15077722D01*
X26036406Y-14099689D01*
X26102703Y-13140340D01*
X26595472Y-12486565D01*
X27569305Y-11965772D01*
X28560546Y-11980010D01*
G36*
X19235722Y-10533834D02*
G01*
X19559317Y-10714255D01*
X20188981Y-11487643D01*
X20284057Y-12376080D01*
X19906953Y-13160454D01*
X19120081Y-13621653D01*
X18718389Y-13666611D01*
X17908826Y-13475566D01*
X17554222Y-13243278D01*
X17093162Y-12408347D01*
X17162277Y-11554082D01*
X17630072Y-10846339D01*
X18365052Y-10450971D01*
X19235722Y-10533834D01*
G37*
X19235722Y-10533834D02*
X19559317Y-10714255D01*
X20188981Y-11487643D01*
X20284057Y-12376080D01*
X19906953Y-13160454D01*
X19120081Y-13621653D01*
X18718389Y-13666611D01*
X17908826Y-13475566D01*
X17554222Y-13243278D01*
X17093162Y-12408347D01*
X17162277Y-11554082D01*
X17630072Y-10846339D01*
X18365052Y-10450971D01*
X19235722Y-10533834D01*
G36*
X38438185Y-10589814D02*
G01*
X38944869Y-11375004D01*
X39003111Y-11824603D01*
X38758661Y-12946917D01*
X38052066Y-13561227D01*
X37415611Y-13666611D01*
X36606048Y-13475566D01*
X36251444Y-13243278D01*
X35855952Y-12431302D01*
X35892131Y-11461254D01*
X36321543Y-10659531D01*
X36578290Y-10467729D01*
X37580213Y-10248715D01*
X38438185Y-10589814D01*
G37*
X38438185Y-10589814D02*
X38944869Y-11375004D01*
X39003111Y-11824603D01*
X38758661Y-12946917D01*
X38052066Y-13561227D01*
X37415611Y-13666611D01*
X36606048Y-13475566D01*
X36251444Y-13243278D01*
X35855952Y-12431302D01*
X35892131Y-11461254D01*
X36321543Y-10659531D01*
X36578290Y-10467729D01*
X37580213Y-10248715D01*
X38438185Y-10589814D01*
G36*
X16089152Y-5618962D02*
G01*
X16301500Y-6257056D01*
X16090661Y-6895653D01*
X15456635Y-7252727D01*
X15453617Y-7253159D01*
X14709467Y-7125022D01*
X14445735Y-6812187D01*
X14367214Y-5938807D01*
X14789843Y-5369198D01*
X15453617Y-5263396D01*
X16089152Y-5618962D01*
G37*
X16089152Y-5618962D02*
X16301500Y-6257056D01*
X16090661Y-6895653D01*
X15456635Y-7252727D01*
X15453617Y-7253159D01*
X14709467Y-7125022D01*
X14445735Y-6812187D01*
X14367214Y-5938807D01*
X14789843Y-5369198D01*
X15453617Y-5263396D01*
X16089152Y-5618962D01*
G36*
X41396761Y-5477586D02*
G01*
X41677461Y-6118416D01*
X41435446Y-6832158D01*
X40768833Y-7272110D01*
X40127386Y-7169564D01*
X39836240Y-6787444D01*
X39778285Y-5934732D01*
X40210253Y-5338725D01*
X40718185Y-5199944D01*
X41396761Y-5477586D01*
G37*
X41396761Y-5477586D02*
X41677461Y-6118416D01*
X41435446Y-6832158D01*
X40768833Y-7272110D01*
X40127386Y-7169564D01*
X39836240Y-6787444D01*
X39778285Y-5934732D01*
X40210253Y-5338725D01*
X40718185Y-5199944D01*
X41396761Y-5477586D01*
G36*
X28684361Y-4004838D02*
G01*
X29323397Y-4716731D01*
X29294656Y-5540889D01*
X28941367Y-6039069D01*
X28313494Y-6532458D01*
X27749180Y-6488231D01*
X27214120Y-6146766D01*
X26756399Y-5485979D01*
X26812720Y-4746199D01*
X27247818Y-4124488D01*
X27926426Y-3817909D01*
X28684361Y-4004838D01*
G37*
X28684361Y-4004838D02*
X29323397Y-4716731D01*
X29294656Y-5540889D01*
X28941367Y-6039069D01*
X28313494Y-6532458D01*
X27749180Y-6488231D01*
X27214120Y-6146766D01*
X26756399Y-5485979D01*
X26812720Y-4746199D01*
X27247818Y-4124488D01*
X27926426Y-3817909D01*
X28684361Y-4004838D01*
G36*
X73672744Y-43639418D02*
G01*
X73728201Y-43667068D01*
X73777148Y-43717980D01*
X73790629Y-43736838D01*
X73805314Y-43761515D01*
X73814842Y-43788316D01*
X73820293Y-43824087D01*
X73822747Y-43875669D01*
X73823286Y-43943767D01*
X73820852Y-44037088D01*
X73812394Y-44107157D01*
X73796174Y-44159431D01*
X73770454Y-44199369D01*
X73733497Y-44232429D01*
X73730782Y-44234386D01*
X73694360Y-44254408D01*
X73650502Y-44264315D01*
X73594724Y-44266757D01*
X73504048Y-44266757D01*
X73504010Y-44354783D01*
X73503166Y-44403808D01*
X73498024Y-44432565D01*
X73484587Y-44449811D01*
X73458858Y-44464308D01*
X73452679Y-44467269D01*
X73423764Y-44481148D01*
X73401376Y-44489914D01*
X73384729Y-44490671D01*
X73373036Y-44480523D01*
X73365510Y-44456573D01*
X73361366Y-44415926D01*
X73359815Y-44355686D01*
X73360071Y-44272955D01*
X73361349Y-44164839D01*
X73361748Y-44132500D01*
X73363185Y-44021024D01*
X73364472Y-43948103D01*
X73503971Y-43948103D01*
X73504755Y-44009999D01*
X73508240Y-44050497D01*
X73516124Y-44077208D01*
X73530105Y-44097744D01*
X73539597Y-44107760D01*
X73578404Y-44137067D01*
X73612763Y-44139452D01*
X73648216Y-44115250D01*
X73649114Y-44114357D01*
X73663539Y-44095653D01*
X73672313Y-44070232D01*
X73676739Y-44031084D01*
X73678118Y-43971197D01*
X73678143Y-43957930D01*
X73674812Y-43875401D01*
X73663969Y-43818191D01*
X73644340Y-43783266D01*
X73614650Y-43767594D01*
X73597491Y-43766014D01*
X73556766Y-43773426D01*
X73528832Y-43797830D01*
X73512017Y-43842480D01*
X73504650Y-43910630D01*
X73503971Y-43948103D01*
X73364472Y-43948103D01*
X73364708Y-43934745D01*
X73366677Y-43869833D01*
X73369450Y-43822458D01*
X73373388Y-43788790D01*
X73378849Y-43764998D01*
X73386192Y-43747253D01*
X73395777Y-43731724D01*
X73399887Y-43725881D01*
X73454405Y-43670685D01*
X73523336Y-43639390D01*
X73603072Y-43630665D01*
X73672744Y-43639418D01*
G37*
X73672744Y-43639418D02*
X73728201Y-43667068D01*
X73777148Y-43717980D01*
X73790629Y-43736838D01*
X73805314Y-43761515D01*
X73814842Y-43788316D01*
X73820293Y-43824087D01*
X73822747Y-43875669D01*
X73823286Y-43943767D01*
X73820852Y-44037088D01*
X73812394Y-44107157D01*
X73796174Y-44159431D01*
X73770454Y-44199369D01*
X73733497Y-44232429D01*
X73730782Y-44234386D01*
X73694360Y-44254408D01*
X73650502Y-44264315D01*
X73594724Y-44266757D01*
X73504048Y-44266757D01*
X73504010Y-44354783D01*
X73503166Y-44403808D01*
X73498024Y-44432565D01*
X73484587Y-44449811D01*
X73458858Y-44464308D01*
X73452679Y-44467269D01*
X73423764Y-44481148D01*
X73401376Y-44489914D01*
X73384729Y-44490671D01*
X73373036Y-44480523D01*
X73365510Y-44456573D01*
X73361366Y-44415926D01*
X73359815Y-44355686D01*
X73360071Y-44272955D01*
X73361349Y-44164839D01*
X73361748Y-44132500D01*
X73363185Y-44021024D01*
X73364472Y-43948103D01*
X73503971Y-43948103D01*
X73504755Y-44009999D01*
X73508240Y-44050497D01*
X73516124Y-44077208D01*
X73530105Y-44097744D01*
X73539597Y-44107760D01*
X73578404Y-44137067D01*
X73612763Y-44139452D01*
X73648216Y-44115250D01*
X73649114Y-44114357D01*
X73663539Y-44095653D01*
X73672313Y-44070232D01*
X73676739Y-44031084D01*
X73678118Y-43971197D01*
X73678143Y-43957930D01*
X73674812Y-43875401D01*
X73663969Y-43818191D01*
X73644340Y-43783266D01*
X73614650Y-43767594D01*
X73597491Y-43766014D01*
X73556766Y-43773426D01*
X73528832Y-43797830D01*
X73512017Y-43842480D01*
X73504650Y-43910630D01*
X73503971Y-43948103D01*
X73364472Y-43948103D01*
X73364708Y-43934745D01*
X73366677Y-43869833D01*
X73369450Y-43822458D01*
X73373388Y-43788790D01*
X73378849Y-43764998D01*
X73386192Y-43747253D01*
X73395777Y-43731724D01*
X73399887Y-43725881D01*
X73454405Y-43670685D01*
X73523336Y-43639390D01*
X73603072Y-43630665D01*
X73672744Y-43639418D01*
G36*
X74789093Y-43647280D02*
G01*
X74835672Y-43674223D01*
X74868057Y-43700966D01*
X74891742Y-43728984D01*
X74908059Y-43763248D01*
X74918339Y-43808727D01*
X74923914Y-43870392D01*
X74926116Y-43953211D01*
X74926371Y-44012746D01*
X74926371Y-44231891D01*
X74864686Y-44259544D01*
X74803000Y-44287197D01*
X74795743Y-44047170D01*
X74792744Y-43957528D01*
X74789598Y-43892462D01*
X74785701Y-43847526D01*
X74780447Y-43818270D01*
X74773231Y-43800248D01*
X74763450Y-43789011D01*
X74760312Y-43786579D01*
X74712761Y-43767583D01*
X74664697Y-43775100D01*
X74636086Y-43795043D01*
X74624447Y-43809175D01*
X74616391Y-43827720D01*
X74611271Y-43855834D01*
X74608441Y-43898673D01*
X74607256Y-43961395D01*
X74607057Y-44026761D01*
X74607018Y-44108768D01*
X74605614Y-44166816D01*
X74600914Y-44205965D01*
X74590987Y-44231280D01*
X74573903Y-44247823D01*
X74547732Y-44260656D01*
X74512775Y-44273991D01*
X74474596Y-44288507D01*
X74479141Y-44030889D01*
X74480971Y-43938019D01*
X74483112Y-43869389D01*
X74486181Y-43820211D01*
X74490794Y-43785698D01*
X74497568Y-43761062D01*
X74507119Y-43741516D01*
X74518634Y-43724270D01*
X74574190Y-43669180D01*
X74641980Y-43637322D01*
X74715713Y-43629691D01*
X74789093Y-43647280D01*
G37*
X74789093Y-43647280D02*
X74835672Y-43674223D01*
X74868057Y-43700966D01*
X74891742Y-43728984D01*
X74908059Y-43763248D01*
X74918339Y-43808727D01*
X74923914Y-43870392D01*
X74926116Y-43953211D01*
X74926371Y-44012746D01*
X74926371Y-44231891D01*
X74864686Y-44259544D01*
X74803000Y-44287197D01*
X74795743Y-44047170D01*
X74792744Y-43957528D01*
X74789598Y-43892462D01*
X74785701Y-43847526D01*
X74780447Y-43818270D01*
X74773231Y-43800248D01*
X74763450Y-43789011D01*
X74760312Y-43786579D01*
X74712761Y-43767583D01*
X74664697Y-43775100D01*
X74636086Y-43795043D01*
X74624447Y-43809175D01*
X74616391Y-43827720D01*
X74611271Y-43855834D01*
X74608441Y-43898673D01*
X74607256Y-43961395D01*
X74607057Y-44026761D01*
X74607018Y-44108768D01*
X74605614Y-44166816D01*
X74600914Y-44205965D01*
X74590987Y-44231280D01*
X74573903Y-44247823D01*
X74547732Y-44260656D01*
X74512775Y-44273991D01*
X74474596Y-44288507D01*
X74479141Y-44030889D01*
X74480971Y-43938019D01*
X74483112Y-43869389D01*
X74486181Y-43820211D01*
X74490794Y-43785698D01*
X74497568Y-43761062D01*
X74507119Y-43741516D01*
X74518634Y-43724270D01*
X74574190Y-43669180D01*
X74641980Y-43637322D01*
X74715713Y-43629691D01*
X74789093Y-43647280D01*
G36*
X73114115Y-43641462D02*
G01*
X73182145Y-43677233D01*
X73232351Y-43734801D01*
X73250185Y-43771812D01*
X73264063Y-43827382D01*
X73271167Y-43897596D01*
X73271840Y-43974227D01*
X73266427Y-44049052D01*
X73255270Y-44113842D01*
X73238714Y-44160373D01*
X73233626Y-44168387D01*
X73173355Y-44228207D01*
X73101769Y-44264035D01*
X73024092Y-44274520D01*
X72945548Y-44258310D01*
X72923689Y-44248592D01*
X72881122Y-44218643D01*
X72843763Y-44178933D01*
X72840232Y-44173897D01*
X72825881Y-44149624D01*
X72816394Y-44123678D01*
X72810790Y-44089522D01*
X72808086Y-44040619D01*
X72807299Y-43970435D01*
X72807286Y-43954700D01*
X72807322Y-43949692D01*
X72952429Y-43949692D01*
X72953273Y-44015930D01*
X72956596Y-44059886D01*
X72963583Y-44088279D01*
X72975416Y-44107825D01*
X72981457Y-44114357D01*
X73016186Y-44139180D01*
X73049903Y-44138048D01*
X73083995Y-44116516D01*
X73104329Y-44093529D01*
X73116371Y-44059978D01*
X73123134Y-44007069D01*
X73123598Y-44000899D01*
X73124752Y-43905013D01*
X73112688Y-43833799D01*
X73087570Y-43787694D01*
X73049560Y-43767135D01*
X73035992Y-43766014D01*
X73000364Y-43771652D01*
X72975994Y-43791186D01*
X72961093Y-43828542D01*
X72953875Y-43887650D01*
X72952429Y-43949692D01*
X72807322Y-43949692D01*
X72807826Y-43879913D01*
X72810096Y-43827659D01*
X72815068Y-43791449D01*
X72823713Y-43764799D01*
X72837005Y-43741222D01*
X72839943Y-43736838D01*
X72889313Y-43677749D01*
X72943109Y-43643447D01*
X73008602Y-43629831D01*
X73030842Y-43629165D01*
X73114115Y-43641462D01*
G37*
X73114115Y-43641462D02*
X73182145Y-43677233D01*
X73232351Y-43734801D01*
X73250185Y-43771812D01*
X73264063Y-43827382D01*
X73271167Y-43897596D01*
X73271840Y-43974227D01*
X73266427Y-44049052D01*
X73255270Y-44113842D01*
X73238714Y-44160373D01*
X73233626Y-44168387D01*
X73173355Y-44228207D01*
X73101769Y-44264035D01*
X73024092Y-44274520D01*
X72945548Y-44258310D01*
X72923689Y-44248592D01*
X72881122Y-44218643D01*
X72843763Y-44178933D01*
X72840232Y-44173897D01*
X72825881Y-44149624D01*
X72816394Y-44123678D01*
X72810790Y-44089522D01*
X72808086Y-44040619D01*
X72807299Y-43970435D01*
X72807286Y-43954700D01*
X72807322Y-43949692D01*
X72952429Y-43949692D01*
X72953273Y-44015930D01*
X72956596Y-44059886D01*
X72963583Y-44088279D01*
X72975416Y-44107825D01*
X72981457Y-44114357D01*
X73016186Y-44139180D01*
X73049903Y-44138048D01*
X73083995Y-44116516D01*
X73104329Y-44093529D01*
X73116371Y-44059978D01*
X73123134Y-44007069D01*
X73123598Y-44000899D01*
X73124752Y-43905013D01*
X73112688Y-43833799D01*
X73087570Y-43787694D01*
X73049560Y-43767135D01*
X73035992Y-43766014D01*
X73000364Y-43771652D01*
X72975994Y-43791186D01*
X72961093Y-43828542D01*
X72953875Y-43887650D01*
X72952429Y-43949692D01*
X72807322Y-43949692D01*
X72807826Y-43879913D01*
X72810096Y-43827659D01*
X72815068Y-43791449D01*
X72823713Y-43764799D01*
X72837005Y-43741222D01*
X72839943Y-43736838D01*
X72889313Y-43677749D01*
X72943109Y-43643447D01*
X73008602Y-43629831D01*
X73030842Y-43629165D01*
X73114115Y-43641462D01*
G36*
X74241303Y-43650739D02*
G01*
X74298527Y-43689235D01*
X74342749Y-43744835D01*
X74369167Y-43815586D01*
X74374510Y-43867662D01*
X74373903Y-43889393D01*
X74368822Y-43906031D01*
X74354855Y-43920937D01*
X74327589Y-43937473D01*
X74282612Y-43958998D01*
X74215511Y-43988874D01*
X74215171Y-43989024D01*
X74153407Y-44017313D01*
X74102759Y-44042433D01*
X74068404Y-44061679D01*
X74055518Y-44072348D01*
X74055514Y-44072434D01*
X74066872Y-44095666D01*
X74093431Y-44121274D01*
X74123923Y-44139721D01*
X74139370Y-44143386D01*
X74181515Y-44130712D01*
X74217808Y-44098971D01*
X74235517Y-44064072D01*
X74252552Y-44038345D01*
X74285922Y-44009046D01*
X74325149Y-43983735D01*
X74359756Y-43969971D01*
X74366993Y-43969214D01*
X74375139Y-43981660D01*
X74375630Y-44013472D01*
X74369643Y-44056366D01*
X74358357Y-44102058D01*
X74342950Y-44142261D01*
X74342171Y-44143822D01*
X74295804Y-44208562D01*
X74235711Y-44252597D01*
X74167465Y-44274211D01*
X74096638Y-44271685D01*
X74028804Y-44243304D01*
X74025788Y-44241308D01*
X73972427Y-44192948D01*
X73937340Y-44129852D01*
X73917922Y-44046887D01*
X73915316Y-44023578D01*
X73910701Y-43913555D01*
X73916233Y-43862248D01*
X74055514Y-43862248D01*
X74057324Y-43894253D01*
X74067222Y-43903593D01*
X74091898Y-43896605D01*
X74130795Y-43880087D01*
X74174275Y-43859381D01*
X74175356Y-43858833D01*
X74212209Y-43839449D01*
X74227000Y-43826513D01*
X74223353Y-43812951D01*
X74207995Y-43795132D01*
X74168923Y-43769345D01*
X74126846Y-43767450D01*
X74089103Y-43786217D01*
X74063034Y-43822415D01*
X74055514Y-43862248D01*
X73916233Y-43862248D01*
X73920194Y-43825527D01*
X73944550Y-43755712D01*
X73978456Y-43706802D01*
X74039653Y-43657378D01*
X74107063Y-43632859D01*
X74175880Y-43631297D01*
X74241303Y-43650739D01*
G37*
X74241303Y-43650739D02*
X74298527Y-43689235D01*
X74342749Y-43744835D01*
X74369167Y-43815586D01*
X74374510Y-43867662D01*
X74373903Y-43889393D01*
X74368822Y-43906031D01*
X74354855Y-43920937D01*
X74327589Y-43937473D01*
X74282612Y-43958998D01*
X74215511Y-43988874D01*
X74215171Y-43989024D01*
X74153407Y-44017313D01*
X74102759Y-44042433D01*
X74068404Y-44061679D01*
X74055518Y-44072348D01*
X74055514Y-44072434D01*
X74066872Y-44095666D01*
X74093431Y-44121274D01*
X74123923Y-44139721D01*
X74139370Y-44143386D01*
X74181515Y-44130712D01*
X74217808Y-44098971D01*
X74235517Y-44064072D01*
X74252552Y-44038345D01*
X74285922Y-44009046D01*
X74325149Y-43983735D01*
X74359756Y-43969971D01*
X74366993Y-43969214D01*
X74375139Y-43981660D01*
X74375630Y-44013472D01*
X74369643Y-44056366D01*
X74358357Y-44102058D01*
X74342950Y-44142261D01*
X74342171Y-44143822D01*
X74295804Y-44208562D01*
X74235711Y-44252597D01*
X74167465Y-44274211D01*
X74096638Y-44271685D01*
X74028804Y-44243304D01*
X74025788Y-44241308D01*
X73972427Y-44192948D01*
X73937340Y-44129852D01*
X73917922Y-44046887D01*
X73915316Y-44023578D01*
X73910701Y-43913555D01*
X73916233Y-43862248D01*
X74055514Y-43862248D01*
X74057324Y-43894253D01*
X74067222Y-43903593D01*
X74091898Y-43896605D01*
X74130795Y-43880087D01*
X74174275Y-43859381D01*
X74175356Y-43858833D01*
X74212209Y-43839449D01*
X74227000Y-43826513D01*
X74223353Y-43812951D01*
X74207995Y-43795132D01*
X74168923Y-43769345D01*
X74126846Y-43767450D01*
X74089103Y-43786217D01*
X74063034Y-43822415D01*
X74055514Y-43862248D01*
X73916233Y-43862248D01*
X73920194Y-43825527D01*
X73944550Y-43755712D01*
X73978456Y-43706802D01*
X74039653Y-43657378D01*
X74107063Y-43632859D01*
X74175880Y-43631297D01*
X74241303Y-43650739D01*
G36*
X75448886Y-43570789D02*
G01*
X75453139Y-43630113D01*
X75458025Y-43665072D01*
X75464795Y-43680320D01*
X75474702Y-43680515D01*
X75477914Y-43678695D01*
X75520644Y-43665515D01*
X75576227Y-43666285D01*
X75632737Y-43679833D01*
X75668082Y-43697361D01*
X75704321Y-43725361D01*
X75730813Y-43757049D01*
X75748999Y-43797313D01*
X75760322Y-43851043D01*
X75766222Y-43923126D01*
X75768143Y-44018451D01*
X75768177Y-44036737D01*
X75768200Y-44242146D01*
X75722491Y-44258080D01*
X75690027Y-44268920D01*
X75672215Y-44273968D01*
X75671691Y-44274014D01*
X75669937Y-44260328D01*
X75668444Y-44222576D01*
X75667326Y-44165724D01*
X75666697Y-44094734D01*
X75666600Y-44051573D01*
X75666398Y-43966473D01*
X75665358Y-43905481D01*
X75662831Y-43863677D01*
X75658164Y-43836142D01*
X75650707Y-43817956D01*
X75639811Y-43804198D01*
X75633007Y-43797573D01*
X75586272Y-43770875D01*
X75535272Y-43768875D01*
X75489001Y-43791455D01*
X75480444Y-43799607D01*
X75467893Y-43814936D01*
X75459188Y-43833118D01*
X75453631Y-43859409D01*
X75450526Y-43899062D01*
X75449176Y-43957332D01*
X75448886Y-44037673D01*
X75448886Y-44242146D01*
X75403177Y-44258080D01*
X75370713Y-44268920D01*
X75352901Y-44273968D01*
X75352377Y-44274014D01*
X75351037Y-44260123D01*
X75349828Y-44220939D01*
X75348801Y-44160200D01*
X75348002Y-44081641D01*
X75347481Y-43988998D01*
X75347286Y-43886009D01*
X75347286Y-43488842D01*
X75394457Y-43468944D01*
X75441629Y-43449047D01*
X75448886Y-43570789D01*
G37*
X75448886Y-43570789D02*
X75453139Y-43630113D01*
X75458025Y-43665072D01*
X75464795Y-43680320D01*
X75474702Y-43680515D01*
X75477914Y-43678695D01*
X75520644Y-43665515D01*
X75576227Y-43666285D01*
X75632737Y-43679833D01*
X75668082Y-43697361D01*
X75704321Y-43725361D01*
X75730813Y-43757049D01*
X75748999Y-43797313D01*
X75760322Y-43851043D01*
X75766222Y-43923126D01*
X75768143Y-44018451D01*
X75768177Y-44036737D01*
X75768200Y-44242146D01*
X75722491Y-44258080D01*
X75690027Y-44268920D01*
X75672215Y-44273968D01*
X75671691Y-44274014D01*
X75669937Y-44260328D01*
X75668444Y-44222576D01*
X75667326Y-44165724D01*
X75666697Y-44094734D01*
X75666600Y-44051573D01*
X75666398Y-43966473D01*
X75665358Y-43905481D01*
X75662831Y-43863677D01*
X75658164Y-43836142D01*
X75650707Y-43817956D01*
X75639811Y-43804198D01*
X75633007Y-43797573D01*
X75586272Y-43770875D01*
X75535272Y-43768875D01*
X75489001Y-43791455D01*
X75480444Y-43799607D01*
X75467893Y-43814936D01*
X75459188Y-43833118D01*
X75453631Y-43859409D01*
X75450526Y-43899062D01*
X75449176Y-43957332D01*
X75448886Y-44037673D01*
X75448886Y-44242146D01*
X75403177Y-44258080D01*
X75370713Y-44268920D01*
X75352901Y-44273968D01*
X75352377Y-44274014D01*
X75351037Y-44260123D01*
X75349828Y-44220939D01*
X75348801Y-44160200D01*
X75348002Y-44081641D01*
X75347481Y-43988998D01*
X75347286Y-43886009D01*
X75347286Y-43488842D01*
X75394457Y-43468944D01*
X75441629Y-43449047D01*
X75448886Y-43570789D01*
G36*
X76112744Y-43670468D02*
G01*
X76169616Y-43691587D01*
X76170267Y-43691993D01*
X76205440Y-43717880D01*
X76231407Y-43748133D01*
X76249670Y-43787558D01*
X76261732Y-43840962D01*
X76269096Y-43913151D01*
X76273264Y-44008932D01*
X76273629Y-44022578D01*
X76278876Y-44228342D01*
X76234716Y-44251178D01*
X76202763Y-44266610D01*
X76183470Y-44273923D01*
X76182578Y-44274014D01*
X76179239Y-44260522D01*
X76176587Y-44224126D01*
X76174956Y-44170952D01*
X76174600Y-44127893D01*
X76174592Y-44058141D01*
X76171403Y-44014337D01*
X76160288Y-43993444D01*
X76136501Y-43992425D01*
X76095296Y-44008241D01*
X76033086Y-44037315D01*
X75987341Y-44061463D01*
X75963813Y-44082413D01*
X75956896Y-44105247D01*
X75956886Y-44106377D01*
X75968299Y-44145712D01*
X76002092Y-44166962D01*
X76053809Y-44170039D01*
X76091061Y-44169506D01*
X76110703Y-44180235D01*
X76122952Y-44206005D01*
X76130002Y-44238837D01*
X76119842Y-44257466D01*
X76116017Y-44260132D01*
X76080001Y-44270840D01*
X76029566Y-44272356D01*
X75977626Y-44265259D01*
X75940822Y-44252288D01*
X75889938Y-44209085D01*
X75861014Y-44148946D01*
X75855286Y-44101962D01*
X75859657Y-44059582D01*
X75875475Y-44024988D01*
X75906797Y-43994263D01*
X75957678Y-43963490D01*
X76032176Y-43928752D01*
X76036714Y-43926788D01*
X76103821Y-43895787D01*
X76145232Y-43870362D01*
X76162981Y-43847514D01*
X76159107Y-43824245D01*
X76135643Y-43797556D01*
X76128627Y-43791414D01*
X76081630Y-43767600D01*
X76032933Y-43768603D01*
X75990522Y-43791951D01*
X75962384Y-43835175D01*
X75959769Y-43843660D01*
X75934308Y-43884808D01*
X75902001Y-43904628D01*
X75855286Y-43924270D01*
X75855286Y-43873450D01*
X75869496Y-43799582D01*
X75911675Y-43731827D01*
X75933624Y-43709161D01*
X75983517Y-43680069D01*
X76046967Y-43666900D01*
X76112744Y-43670468D01*
G37*
X76112744Y-43670468D02*
X76169616Y-43691587D01*
X76170267Y-43691993D01*
X76205440Y-43717880D01*
X76231407Y-43748133D01*
X76249670Y-43787558D01*
X76261732Y-43840962D01*
X76269096Y-43913151D01*
X76273264Y-44008932D01*
X76273629Y-44022578D01*
X76278876Y-44228342D01*
X76234716Y-44251178D01*
X76202763Y-44266610D01*
X76183470Y-44273923D01*
X76182578Y-44274014D01*
X76179239Y-44260522D01*
X76176587Y-44224126D01*
X76174956Y-44170952D01*
X76174600Y-44127893D01*
X76174592Y-44058141D01*
X76171403Y-44014337D01*
X76160288Y-43993444D01*
X76136501Y-43992425D01*
X76095296Y-44008241D01*
X76033086Y-44037315D01*
X75987341Y-44061463D01*
X75963813Y-44082413D01*
X75956896Y-44105247D01*
X75956886Y-44106377D01*
X75968299Y-44145712D01*
X76002092Y-44166962D01*
X76053809Y-44170039D01*
X76091061Y-44169506D01*
X76110703Y-44180235D01*
X76122952Y-44206005D01*
X76130002Y-44238837D01*
X76119842Y-44257466D01*
X76116017Y-44260132D01*
X76080001Y-44270840D01*
X76029566Y-44272356D01*
X75977626Y-44265259D01*
X75940822Y-44252288D01*
X75889938Y-44209085D01*
X75861014Y-44148946D01*
X75855286Y-44101962D01*
X75859657Y-44059582D01*
X75875475Y-44024988D01*
X75906797Y-43994263D01*
X75957678Y-43963490D01*
X76032176Y-43928752D01*
X76036714Y-43926788D01*
X76103821Y-43895787D01*
X76145232Y-43870362D01*
X76162981Y-43847514D01*
X76159107Y-43824245D01*
X76135643Y-43797556D01*
X76128627Y-43791414D01*
X76081630Y-43767600D01*
X76032933Y-43768603D01*
X75990522Y-43791951D01*
X75962384Y-43835175D01*
X75959769Y-43843660D01*
X75934308Y-43884808D01*
X75902001Y-43904628D01*
X75855286Y-43924270D01*
X75855286Y-43873450D01*
X75869496Y-43799582D01*
X75911675Y-43731827D01*
X75933624Y-43709161D01*
X75983517Y-43680069D01*
X76046967Y-43666900D01*
X76112744Y-43670468D01*
G36*
X76602926Y-43669255D02*
G01*
X76668858Y-43693584D01*
X76722273Y-43736617D01*
X76743164Y-43766909D01*
X76765939Y-43822494D01*
X76765466Y-43862686D01*
X76741562Y-43889717D01*
X76732717Y-43894313D01*
X76694530Y-43908644D01*
X76675028Y-43904972D01*
X76668422Y-43880907D01*
X76668086Y-43867614D01*
X76655992Y-43818710D01*
X76624471Y-43784499D01*
X76580659Y-43767976D01*
X76531695Y-43772134D01*
X76491894Y-43793727D01*
X76478450Y-43806044D01*
X76468921Y-43820987D01*
X76462485Y-43843575D01*
X76458317Y-43878828D01*
X76455597Y-43931766D01*
X76453502Y-44007407D01*
X76452960Y-44031357D01*
X76450981Y-44113290D01*
X76448731Y-44170955D01*
X76445357Y-44209108D01*
X76440006Y-44232504D01*
X76431824Y-44245898D01*
X76419959Y-44254045D01*
X76412362Y-44257644D01*
X76380102Y-44269952D01*
X76361111Y-44274014D01*
X76354836Y-44260448D01*
X76351006Y-44219434D01*
X76349600Y-44150499D01*
X76350598Y-44053169D01*
X76350908Y-44038157D01*
X76353101Y-43949359D01*
X76355693Y-43884519D01*
X76359382Y-43838567D01*
X76364864Y-43806435D01*
X76372835Y-43783053D01*
X76383993Y-43763352D01*
X76389830Y-43754910D01*
X76423296Y-43717557D01*
X76460727Y-43688503D01*
X76465309Y-43685967D01*
X76532426Y-43665943D01*
X76602926Y-43669255D01*
G37*
X76602926Y-43669255D02*
X76668858Y-43693584D01*
X76722273Y-43736617D01*
X76743164Y-43766909D01*
X76765939Y-43822494D01*
X76765466Y-43862686D01*
X76741562Y-43889717D01*
X76732717Y-43894313D01*
X76694530Y-43908644D01*
X76675028Y-43904972D01*
X76668422Y-43880907D01*
X76668086Y-43867614D01*
X76655992Y-43818710D01*
X76624471Y-43784499D01*
X76580659Y-43767976D01*
X76531695Y-43772134D01*
X76491894Y-43793727D01*
X76478450Y-43806044D01*
X76468921Y-43820987D01*
X76462485Y-43843575D01*
X76458317Y-43878828D01*
X76455597Y-43931766D01*
X76453502Y-44007407D01*
X76452960Y-44031357D01*
X76450981Y-44113290D01*
X76448731Y-44170955D01*
X76445357Y-44209108D01*
X76440006Y-44232504D01*
X76431824Y-44245898D01*
X76419959Y-44254045D01*
X76412362Y-44257644D01*
X76380102Y-44269952D01*
X76361111Y-44274014D01*
X76354836Y-44260448D01*
X76351006Y-44219434D01*
X76349600Y-44150499D01*
X76350598Y-44053169D01*
X76350908Y-44038157D01*
X76353101Y-43949359D01*
X76355693Y-43884519D01*
X76359382Y-43838567D01*
X76364864Y-43806435D01*
X76372835Y-43783053D01*
X76383993Y-43763352D01*
X76389830Y-43754910D01*
X76423296Y-43717557D01*
X76460727Y-43688503D01*
X76465309Y-43685967D01*
X76532426Y-43665943D01*
X76602926Y-43669255D01*
G36*
X77263117Y-43784858D02*
G01*
X77262933Y-43893337D01*
X77262219Y-43976787D01*
X77260675Y-44039204D01*
X77258001Y-44084585D01*
X77253894Y-44116929D01*
X77248055Y-44140233D01*
X77240182Y-44158495D01*
X77234221Y-44168918D01*
X77184855Y-44225445D01*
X77122264Y-44260877D01*
X77053013Y-44273590D01*
X76983668Y-44261963D01*
X76942375Y-44241068D01*
X76899025Y-44204922D01*
X76869481Y-44160776D01*
X76851655Y-44102962D01*
X76843463Y-44025813D01*
X76842302Y-43969214D01*
X76842458Y-43965147D01*
X76943857Y-43965147D01*
X76944476Y-44030050D01*
X76947314Y-44073014D01*
X76953840Y-44101122D01*
X76965523Y-44121453D01*
X76979483Y-44136788D01*
X77026365Y-44166390D01*
X77076701Y-44168919D01*
X77124276Y-44144205D01*
X77127979Y-44140856D01*
X77143783Y-44123435D01*
X77153693Y-44102709D01*
X77159058Y-44071862D01*
X77161228Y-44024077D01*
X77161571Y-43971248D01*
X77160827Y-43904881D01*
X77157748Y-43860606D01*
X77151061Y-43831509D01*
X77139496Y-43810673D01*
X77130013Y-43799607D01*
X77085960Y-43771698D01*
X77035224Y-43768343D01*
X76986796Y-43789659D01*
X76977450Y-43797573D01*
X76961540Y-43815147D01*
X76951610Y-43836087D01*
X76946278Y-43867282D01*
X76944163Y-43915622D01*
X76943857Y-43965147D01*
X76842458Y-43965147D01*
X76845810Y-43878068D01*
X76857726Y-43809586D01*
X76880135Y-43758100D01*
X76915124Y-43717943D01*
X76942375Y-43697361D01*
X76991907Y-43675125D01*
X77049316Y-43664804D01*
X77102682Y-43667567D01*
X77132543Y-43678712D01*
X77144261Y-43681883D01*
X77152037Y-43670057D01*
X77157465Y-43638366D01*
X77161571Y-43590093D01*
X77166067Y-43536329D01*
X77172313Y-43503982D01*
X77183676Y-43485485D01*
X77203528Y-43473270D01*
X77216000Y-43467862D01*
X77263171Y-43448101D01*
X77263117Y-43784858D01*
G37*
X77263117Y-43784858D02*
X77262933Y-43893337D01*
X77262219Y-43976787D01*
X77260675Y-44039204D01*
X77258001Y-44084585D01*
X77253894Y-44116929D01*
X77248055Y-44140233D01*
X77240182Y-44158495D01*
X77234221Y-44168918D01*
X77184855Y-44225445D01*
X77122264Y-44260877D01*
X77053013Y-44273590D01*
X76983668Y-44261963D01*
X76942375Y-44241068D01*
X76899025Y-44204922D01*
X76869481Y-44160776D01*
X76851655Y-44102962D01*
X76843463Y-44025813D01*
X76842302Y-43969214D01*
X76842458Y-43965147D01*
X76943857Y-43965147D01*
X76944476Y-44030050D01*
X76947314Y-44073014D01*
X76953840Y-44101122D01*
X76965523Y-44121453D01*
X76979483Y-44136788D01*
X77026365Y-44166390D01*
X77076701Y-44168919D01*
X77124276Y-44144205D01*
X77127979Y-44140856D01*
X77143783Y-44123435D01*
X77153693Y-44102709D01*
X77159058Y-44071862D01*
X77161228Y-44024077D01*
X77161571Y-43971248D01*
X77160827Y-43904881D01*
X77157748Y-43860606D01*
X77151061Y-43831509D01*
X77139496Y-43810673D01*
X77130013Y-43799607D01*
X77085960Y-43771698D01*
X77035224Y-43768343D01*
X76986796Y-43789659D01*
X76977450Y-43797573D01*
X76961540Y-43815147D01*
X76951610Y-43836087D01*
X76946278Y-43867282D01*
X76944163Y-43915622D01*
X76943857Y-43965147D01*
X76842458Y-43965147D01*
X76845810Y-43878068D01*
X76857726Y-43809586D01*
X76880135Y-43758100D01*
X76915124Y-43717943D01*
X76942375Y-43697361D01*
X76991907Y-43675125D01*
X77049316Y-43664804D01*
X77102682Y-43667567D01*
X77132543Y-43678712D01*
X77144261Y-43681883D01*
X77152037Y-43670057D01*
X77157465Y-43638366D01*
X77161571Y-43590093D01*
X77166067Y-43536329D01*
X77172313Y-43503982D01*
X77183676Y-43485485D01*
X77203528Y-43473270D01*
X77216000Y-43467862D01*
X77263171Y-43448101D01*
X77263117Y-43784858D01*
G36*
X77852833Y-43678163D02*
G01*
X77855048Y-43716350D01*
X77856784Y-43774386D01*
X77857899Y-43847680D01*
X77858257Y-43924555D01*
X77858257Y-44184696D01*
X77812326Y-44230627D01*
X77780675Y-44258929D01*
X77752890Y-44270393D01*
X77714915Y-44269668D01*
X77699840Y-44267821D01*
X77652726Y-44262448D01*
X77613756Y-44259369D01*
X77604257Y-44259085D01*
X77572233Y-44260945D01*
X77526432Y-44265614D01*
X77508674Y-44267821D01*
X77465057Y-44271235D01*
X77435745Y-44263820D01*
X77406680Y-44240927D01*
X77396188Y-44230627D01*
X77350257Y-44184696D01*
X77350257Y-43698102D01*
X77387226Y-43681258D01*
X77419059Y-43668782D01*
X77437683Y-43664414D01*
X77442458Y-43678218D01*
X77446921Y-43716786D01*
X77450775Y-43775856D01*
X77453722Y-43851163D01*
X77455143Y-43914786D01*
X77459114Y-44165157D01*
X77493759Y-44170056D01*
X77525268Y-44166631D01*
X77540708Y-44155541D01*
X77545023Y-44134808D01*
X77548708Y-44090645D01*
X77551469Y-44028646D01*
X77553012Y-43954409D01*
X77553235Y-43916206D01*
X77553457Y-43696283D01*
X77599166Y-43680349D01*
X77631518Y-43669515D01*
X77649115Y-43664462D01*
X77649623Y-43664414D01*
X77651388Y-43678148D01*
X77653329Y-43716230D01*
X77655282Y-43773982D01*
X77657084Y-43846727D01*
X77658343Y-43914786D01*
X77662314Y-44165157D01*
X77749400Y-44165157D01*
X77753396Y-43936740D01*
X77757392Y-43708322D01*
X77799847Y-43686368D01*
X77831192Y-43671293D01*
X77849744Y-43664451D01*
X77850279Y-43664414D01*
X77852833Y-43678163D01*
G37*
X77852833Y-43678163D02*
X77855048Y-43716350D01*
X77856784Y-43774386D01*
X77857899Y-43847680D01*
X77858257Y-43924555D01*
X77858257Y-44184696D01*
X77812326Y-44230627D01*
X77780675Y-44258929D01*
X77752890Y-44270393D01*
X77714915Y-44269668D01*
X77699840Y-44267821D01*
X77652726Y-44262448D01*
X77613756Y-44259369D01*
X77604257Y-44259085D01*
X77572233Y-44260945D01*
X77526432Y-44265614D01*
X77508674Y-44267821D01*
X77465057Y-44271235D01*
X77435745Y-44263820D01*
X77406680Y-44240927D01*
X77396188Y-44230627D01*
X77350257Y-44184696D01*
X77350257Y-43698102D01*
X77387226Y-43681258D01*
X77419059Y-43668782D01*
X77437683Y-43664414D01*
X77442458Y-43678218D01*
X77446921Y-43716786D01*
X77450775Y-43775856D01*
X77453722Y-43851163D01*
X77455143Y-43914786D01*
X77459114Y-44165157D01*
X77493759Y-44170056D01*
X77525268Y-44166631D01*
X77540708Y-44155541D01*
X77545023Y-44134808D01*
X77548708Y-44090645D01*
X77551469Y-44028646D01*
X77553012Y-43954409D01*
X77553235Y-43916206D01*
X77553457Y-43696283D01*
X77599166Y-43680349D01*
X77631518Y-43669515D01*
X77649115Y-43664462D01*
X77649623Y-43664414D01*
X77651388Y-43678148D01*
X77653329Y-43716230D01*
X77655282Y-43773982D01*
X77657084Y-43846727D01*
X77658343Y-43914786D01*
X77662314Y-44165157D01*
X77749400Y-44165157D01*
X77753396Y-43936740D01*
X77757392Y-43708322D01*
X77799847Y-43686368D01*
X77831192Y-43671293D01*
X77849744Y-43664451D01*
X77850279Y-43664414D01*
X77852833Y-43678163D01*
G36*
X78217876Y-43675835D02*
G01*
X78259667Y-43694844D01*
X78292469Y-43717878D01*
X78316503Y-43743633D01*
X78333097Y-43776858D01*
X78343577Y-43822300D01*
X78349271Y-43884707D01*
X78351507Y-43968827D01*
X78351743Y-44024221D01*
X78351743Y-44240326D01*
X78314774Y-44257170D01*
X78285656Y-44269481D01*
X78271231Y-44274014D01*
X78268472Y-44260525D01*
X78266282Y-44224153D01*
X78264942Y-44171042D01*
X78264657Y-44128872D01*
X78263434Y-44067947D01*
X78260136Y-44019615D01*
X78255321Y-43990018D01*
X78251496Y-43983729D01*
X78225783Y-43990152D01*
X78185418Y-44006625D01*
X78138679Y-44028958D01*
X78093845Y-44052957D01*
X78059193Y-44074430D01*
X78043002Y-44089185D01*
X78042938Y-44089345D01*
X78044330Y-44116652D01*
X78056818Y-44142719D01*
X78078743Y-44163892D01*
X78110743Y-44170974D01*
X78138092Y-44170149D01*
X78176826Y-44169542D01*
X78197158Y-44178616D01*
X78209369Y-44202592D01*
X78210909Y-44207113D01*
X78216203Y-44241306D01*
X78202047Y-44262068D01*
X78165148Y-44271962D01*
X78125289Y-44273792D01*
X78053562Y-44260227D01*
X78016432Y-44240855D01*
X77970576Y-44195345D01*
X77946256Y-44139483D01*
X77944073Y-44080457D01*
X77964629Y-44025453D01*
X77995549Y-43990986D01*
X78026420Y-43971689D01*
X78074942Y-43947259D01*
X78131485Y-43922485D01*
X78140910Y-43918699D01*
X78203019Y-43891291D01*
X78238822Y-43867134D01*
X78250337Y-43843119D01*
X78239580Y-43816135D01*
X78221114Y-43795043D01*
X78177469Y-43769072D01*
X78129446Y-43767124D01*
X78085406Y-43787137D01*
X78053709Y-43827051D01*
X78049549Y-43837348D01*
X78025327Y-43875224D01*
X77989965Y-43903342D01*
X77945343Y-43926417D01*
X77945343Y-43860985D01*
X77947969Y-43821006D01*
X77959230Y-43789497D01*
X77984199Y-43755878D01*
X78008169Y-43729984D01*
X78045441Y-43693317D01*
X78074401Y-43673621D01*
X78105505Y-43665720D01*
X78140713Y-43664414D01*
X78217876Y-43675835D01*
G37*
X78217876Y-43675835D02*
X78259667Y-43694844D01*
X78292469Y-43717878D01*
X78316503Y-43743633D01*
X78333097Y-43776858D01*
X78343577Y-43822300D01*
X78349271Y-43884707D01*
X78351507Y-43968827D01*
X78351743Y-44024221D01*
X78351743Y-44240326D01*
X78314774Y-44257170D01*
X78285656Y-44269481D01*
X78271231Y-44274014D01*
X78268472Y-44260525D01*
X78266282Y-44224153D01*
X78264942Y-44171042D01*
X78264657Y-44128872D01*
X78263434Y-44067947D01*
X78260136Y-44019615D01*
X78255321Y-43990018D01*
X78251496Y-43983729D01*
X78225783Y-43990152D01*
X78185418Y-44006625D01*
X78138679Y-44028958D01*
X78093845Y-44052957D01*
X78059193Y-44074430D01*
X78043002Y-44089185D01*
X78042938Y-44089345D01*
X78044330Y-44116652D01*
X78056818Y-44142719D01*
X78078743Y-44163892D01*
X78110743Y-44170974D01*
X78138092Y-44170149D01*
X78176826Y-44169542D01*
X78197158Y-44178616D01*
X78209369Y-44202592D01*
X78210909Y-44207113D01*
X78216203Y-44241306D01*
X78202047Y-44262068D01*
X78165148Y-44271962D01*
X78125289Y-44273792D01*
X78053562Y-44260227D01*
X78016432Y-44240855D01*
X77970576Y-44195345D01*
X77946256Y-44139483D01*
X77944073Y-44080457D01*
X77964629Y-44025453D01*
X77995549Y-43990986D01*
X78026420Y-43971689D01*
X78074942Y-43947259D01*
X78131485Y-43922485D01*
X78140910Y-43918699D01*
X78203019Y-43891291D01*
X78238822Y-43867134D01*
X78250337Y-43843119D01*
X78239580Y-43816135D01*
X78221114Y-43795043D01*
X78177469Y-43769072D01*
X78129446Y-43767124D01*
X78085406Y-43787137D01*
X78053709Y-43827051D01*
X78049549Y-43837348D01*
X78025327Y-43875224D01*
X77989965Y-43903342D01*
X77945343Y-43926417D01*
X77945343Y-43860985D01*
X77947969Y-43821006D01*
X77959230Y-43789497D01*
X77984199Y-43755878D01*
X78008169Y-43729984D01*
X78045441Y-43693317D01*
X78074401Y-43673621D01*
X78105505Y-43665720D01*
X78140713Y-43664414D01*
X78217876Y-43675835D01*
G36*
X78725600Y-43678252D02*
G01*
X78742948Y-43685834D01*
X78784356Y-43718628D01*
X78819765Y-43766047D01*
X78841664Y-43816651D01*
X78845229Y-43841598D01*
X78833279Y-43876427D01*
X78807067Y-43894857D01*
X78778964Y-43906016D01*
X78766095Y-43908072D01*
X78759829Y-43893149D01*
X78747456Y-43860675D01*
X78742028Y-43846002D01*
X78711590Y-43795244D01*
X78667520Y-43769927D01*
X78611010Y-43770706D01*
X78606825Y-43771703D01*
X78576655Y-43786007D01*
X78554476Y-43813893D01*
X78539327Y-43858787D01*
X78530250Y-43924115D01*
X78526286Y-44013304D01*
X78525914Y-44060761D01*
X78525730Y-44135571D01*
X78524522Y-44186569D01*
X78521309Y-44218971D01*
X78515109Y-44237995D01*
X78504940Y-44248856D01*
X78489819Y-44256772D01*
X78488946Y-44257170D01*
X78459828Y-44269481D01*
X78445403Y-44274014D01*
X78443186Y-44260309D01*
X78441289Y-44222425D01*
X78439847Y-44165215D01*
X78438998Y-44093527D01*
X78438829Y-44041065D01*
X78439692Y-43939547D01*
X78443070Y-43862532D01*
X78450142Y-43805523D01*
X78462088Y-43764026D01*
X78480090Y-43733543D01*
X78505327Y-43709580D01*
X78530247Y-43692855D01*
X78590171Y-43670597D01*
X78659911Y-43665576D01*
X78725600Y-43678252D01*
G37*
X78725600Y-43678252D02*
X78742948Y-43685834D01*
X78784356Y-43718628D01*
X78819765Y-43766047D01*
X78841664Y-43816651D01*
X78845229Y-43841598D01*
X78833279Y-43876427D01*
X78807067Y-43894857D01*
X78778964Y-43906016D01*
X78766095Y-43908072D01*
X78759829Y-43893149D01*
X78747456Y-43860675D01*
X78742028Y-43846002D01*
X78711590Y-43795244D01*
X78667520Y-43769927D01*
X78611010Y-43770706D01*
X78606825Y-43771703D01*
X78576655Y-43786007D01*
X78554476Y-43813893D01*
X78539327Y-43858787D01*
X78530250Y-43924115D01*
X78526286Y-44013304D01*
X78525914Y-44060761D01*
X78525730Y-44135571D01*
X78524522Y-44186569D01*
X78521309Y-44218971D01*
X78515109Y-44237995D01*
X78504940Y-44248856D01*
X78489819Y-44256772D01*
X78488946Y-44257170D01*
X78459828Y-44269481D01*
X78445403Y-44274014D01*
X78443186Y-44260309D01*
X78441289Y-44222425D01*
X78439847Y-44165215D01*
X78438998Y-44093527D01*
X78438829Y-44041065D01*
X78439692Y-43939547D01*
X78443070Y-43862532D01*
X78450142Y-43805523D01*
X78462088Y-43764026D01*
X78480090Y-43733543D01*
X78505327Y-43709580D01*
X78530247Y-43692855D01*
X78590171Y-43670597D01*
X78659911Y-43665576D01*
X78725600Y-43678252D01*
G36*
X79226595Y-43686466D02*
G01*
X79284021Y-43723997D01*
X79311719Y-43757596D01*
X79333662Y-43818564D01*
X79335405Y-43866808D01*
X79331457Y-43931316D01*
X79182686Y-43996434D01*
X79110349Y-44029702D01*
X79063084Y-44056464D01*
X79038507Y-44079644D01*
X79034237Y-44102167D01*
X79047889Y-44126955D01*
X79062943Y-44143386D01*
X79106746Y-44169735D01*
X79154389Y-44171581D01*
X79198145Y-44151046D01*
X79230289Y-44110252D01*
X79236038Y-44095847D01*
X79263576Y-44050856D01*
X79295258Y-44031682D01*
X79338714Y-44015279D01*
X79338714Y-44077466D01*
X79334872Y-44119783D01*
X79319823Y-44155469D01*
X79288280Y-44196443D01*
X79283592Y-44201767D01*
X79248506Y-44238220D01*
X79218347Y-44257783D01*
X79180615Y-44266783D01*
X79149335Y-44269730D01*
X79093385Y-44270465D01*
X79053555Y-44261160D01*
X79028708Y-44247346D01*
X78989656Y-44216967D01*
X78962625Y-44184113D01*
X78945517Y-44142794D01*
X78936238Y-44087021D01*
X78932693Y-44010805D01*
X78932410Y-43972122D01*
X78933372Y-43925747D01*
X79021007Y-43925747D01*
X79022023Y-43950626D01*
X79024556Y-43954700D01*
X79041274Y-43949165D01*
X79077249Y-43934517D01*
X79125331Y-43913690D01*
X79135386Y-43909214D01*
X79196152Y-43878314D01*
X79229632Y-43851157D01*
X79236990Y-43825720D01*
X79219391Y-43799981D01*
X79204856Y-43788609D01*
X79152410Y-43765864D01*
X79103322Y-43769622D01*
X79062227Y-43797384D01*
X79033758Y-43846652D01*
X79024631Y-43885757D01*
X79021007Y-43925747D01*
X78933372Y-43925747D01*
X78934285Y-43881749D01*
X78941196Y-43814884D01*
X78954884Y-43766195D01*
X78977096Y-43730349D01*
X79009574Y-43702013D01*
X79023733Y-43692855D01*
X79088053Y-43669007D01*
X79158473Y-43667506D01*
X79226595Y-43686466D01*
G37*
X79226595Y-43686466D02*
X79284021Y-43723997D01*
X79311719Y-43757596D01*
X79333662Y-43818564D01*
X79335405Y-43866808D01*
X79331457Y-43931316D01*
X79182686Y-43996434D01*
X79110349Y-44029702D01*
X79063084Y-44056464D01*
X79038507Y-44079644D01*
X79034237Y-44102167D01*
X79047889Y-44126955D01*
X79062943Y-44143386D01*
X79106746Y-44169735D01*
X79154389Y-44171581D01*
X79198145Y-44151046D01*
X79230289Y-44110252D01*
X79236038Y-44095847D01*
X79263576Y-44050856D01*
X79295258Y-44031682D01*
X79338714Y-44015279D01*
X79338714Y-44077466D01*
X79334872Y-44119783D01*
X79319823Y-44155469D01*
X79288280Y-44196443D01*
X79283592Y-44201767D01*
X79248506Y-44238220D01*
X79218347Y-44257783D01*
X79180615Y-44266783D01*
X79149335Y-44269730D01*
X79093385Y-44270465D01*
X79053555Y-44261160D01*
X79028708Y-44247346D01*
X78989656Y-44216967D01*
X78962625Y-44184113D01*
X78945517Y-44142794D01*
X78936238Y-44087021D01*
X78932693Y-44010805D01*
X78932410Y-43972122D01*
X78933372Y-43925747D01*
X79021007Y-43925747D01*
X79022023Y-43950626D01*
X79024556Y-43954700D01*
X79041274Y-43949165D01*
X79077249Y-43934517D01*
X79125331Y-43913690D01*
X79135386Y-43909214D01*
X79196152Y-43878314D01*
X79229632Y-43851157D01*
X79236990Y-43825720D01*
X79219391Y-43799981D01*
X79204856Y-43788609D01*
X79152410Y-43765864D01*
X79103322Y-43769622D01*
X79062227Y-43797384D01*
X79033758Y-43846652D01*
X79024631Y-43885757D01*
X79021007Y-43925747D01*
X78933372Y-43925747D01*
X78934285Y-43881749D01*
X78941196Y-43814884D01*
X78954884Y-43766195D01*
X78977096Y-43730349D01*
X79009574Y-43702013D01*
X79023733Y-43692855D01*
X79088053Y-43669007D01*
X79158473Y-43667506D01*
X79226595Y-43686466D01*
G36*
X76176910Y-38961848D02*
G01*
X76255454Y-38962278D01*
X76312298Y-38963442D01*
X76351105Y-38965707D01*
X76375538Y-38969440D01*
X76389262Y-38975006D01*
X76395940Y-38982773D01*
X76399236Y-38993105D01*
X76399556Y-38994443D01*
X76404562Y-39018579D01*
X76413829Y-39066201D01*
X76426392Y-39132241D01*
X76441287Y-39211628D01*
X76457551Y-39299296D01*
X76458119Y-39302375D01*
X76474410Y-39388289D01*
X76489652Y-39464196D01*
X76502861Y-39525545D01*
X76513054Y-39567782D01*
X76519248Y-39586355D01*
X76519543Y-39586684D01*
X76537788Y-39595753D01*
X76575405Y-39610867D01*
X76624271Y-39628762D01*
X76624543Y-39628858D01*
X76686093Y-39651993D01*
X76758657Y-39681465D01*
X76827057Y-39711097D01*
X76830294Y-39712562D01*
X76941702Y-39763126D01*
X77188399Y-39594660D01*
X77264077Y-39543303D01*
X77332631Y-39497389D01*
X77390088Y-39459530D01*
X77432476Y-39432337D01*
X77455825Y-39418421D01*
X77458042Y-39417389D01*
X77475010Y-39421984D01*
X77506701Y-39444155D01*
X77554352Y-39484947D01*
X77619198Y-39545405D01*
X77685397Y-39609727D01*
X77749214Y-39673112D01*
X77806329Y-39730951D01*
X77853305Y-39779675D01*
X77886703Y-39815710D01*
X77903085Y-39835484D01*
X77903694Y-39836502D01*
X77905505Y-39850072D01*
X77898683Y-39872233D01*
X77881540Y-39905978D01*
X77852393Y-39954300D01*
X77809555Y-40020192D01*
X77752448Y-40105017D01*
X77701766Y-40179677D01*
X77656461Y-40246640D01*
X77619150Y-40302016D01*
X77592452Y-40341920D01*
X77578985Y-40362462D01*
X77578137Y-40363856D01*
X77579781Y-40383538D01*
X77592245Y-40421793D01*
X77613048Y-40471389D01*
X77620462Y-40487228D01*
X77652814Y-40557790D01*
X77687328Y-40637853D01*
X77715365Y-40707129D01*
X77735568Y-40758545D01*
X77751615Y-40797619D01*
X77760888Y-40818041D01*
X77762041Y-40819614D01*
X77779096Y-40822221D01*
X77819298Y-40829363D01*
X77877302Y-40840023D01*
X77947763Y-40853185D01*
X78025335Y-40867833D01*
X78104672Y-40882949D01*
X78180431Y-40897518D01*
X78247264Y-40910522D01*
X78299828Y-40920945D01*
X78332776Y-40927770D01*
X78340857Y-40929699D01*
X78349205Y-40934462D01*
X78355506Y-40945218D01*
X78360045Y-40965598D01*
X78363104Y-40999234D01*
X78364967Y-41049755D01*
X78365918Y-41120792D01*
X78366240Y-41215976D01*
X78366257Y-41254992D01*
X78366257Y-41572299D01*
X78290057Y-41587339D01*
X78247663Y-41595495D01*
X78184400Y-41607399D01*
X78107962Y-41621616D01*
X78026043Y-41636710D01*
X78003400Y-41640855D01*
X77927806Y-41655553D01*
X77861953Y-41670005D01*
X77811366Y-41682875D01*
X77781574Y-41692822D01*
X77776612Y-41695787D01*
X77764426Y-41716783D01*
X77746953Y-41757467D01*
X77727577Y-41809822D01*
X77723734Y-41821100D01*
X77698339Y-41891023D01*
X77666817Y-41969918D01*
X77635969Y-42040766D01*
X77635817Y-42041095D01*
X77584447Y-42152233D01*
X77753399Y-42400753D01*
X77922352Y-42649272D01*
X77705429Y-42866558D01*
X77639819Y-42931226D01*
X77579979Y-42988233D01*
X77529267Y-43034533D01*
X77491046Y-43067084D01*
X77468675Y-43082843D01*
X77465466Y-43083843D01*
X77446626Y-43075969D01*
X77408180Y-43054078D01*
X77354330Y-43020767D01*
X77289276Y-42978631D01*
X77218940Y-42931443D01*
X77147555Y-42883310D01*
X77083908Y-42841428D01*
X77032041Y-42808371D01*
X76995995Y-42786718D01*
X76979867Y-42779043D01*
X76960189Y-42785537D01*
X76922875Y-42802650D01*
X76875621Y-42826826D01*
X76870612Y-42829513D01*
X76806977Y-42861427D01*
X76763341Y-42877079D01*
X76736202Y-42877245D01*
X76722057Y-42862704D01*
X76721975Y-42862500D01*
X76714905Y-42845279D01*
X76698042Y-42804399D01*
X76672695Y-42743025D01*
X76640171Y-42664319D01*
X76601778Y-42571447D01*
X76558822Y-42467572D01*
X76517222Y-42367002D01*
X76471504Y-42256016D01*
X76429526Y-42153203D01*
X76392548Y-42061715D01*
X76361827Y-41984701D01*
X76338622Y-41925315D01*
X76324190Y-41886709D01*
X76319743Y-41872300D01*
X76330896Y-41855772D01*
X76360069Y-41829430D01*
X76398971Y-41800387D01*
X76509757Y-41708539D01*
X76596351Y-41603259D01*
X76657716Y-41486766D01*
X76692815Y-41361276D01*
X76700608Y-41229007D01*
X76694943Y-41167957D01*
X76664078Y-41041295D01*
X76610920Y-40929441D01*
X76538767Y-40833501D01*
X76450917Y-40754576D01*
X76350665Y-40693770D01*
X76241310Y-40652187D01*
X76126147Y-40630928D01*
X76008475Y-40631099D01*
X75891590Y-40653801D01*
X75778789Y-40700138D01*
X75673369Y-40771213D01*
X75629368Y-40811411D01*
X75544979Y-40914629D01*
X75486222Y-41027425D01*
X75452704Y-41146510D01*
X75444035Y-41268595D01*
X75459823Y-41390393D01*
X75499678Y-41508616D01*
X75563207Y-41619975D01*
X75650021Y-41721184D01*
X75747029Y-41800387D01*
X75787437Y-41830662D01*
X75815982Y-41856719D01*
X75826257Y-41872325D01*
X75820877Y-41889343D01*
X75805575Y-41930000D01*
X75781612Y-41991142D01*
X75750244Y-42069619D01*
X75712732Y-42162280D01*
X75670333Y-42265972D01*
X75628663Y-42367026D01*
X75582690Y-42478107D01*
X75540107Y-42581041D01*
X75502221Y-42672665D01*
X75470340Y-42749816D01*
X75445771Y-42809331D01*
X75429820Y-42848044D01*
X75423910Y-42862500D01*
X75409948Y-42877185D01*
X75382940Y-42877142D01*
X75339413Y-42861599D01*
X75275890Y-42829784D01*
X75275388Y-42829513D01*
X75227560Y-42804823D01*
X75188897Y-42786838D01*
X75167095Y-42779114D01*
X75166133Y-42779043D01*
X75149721Y-42786878D01*
X75113487Y-42808665D01*
X75061474Y-42841828D01*
X74997725Y-42883791D01*
X74927060Y-42931443D01*
X74855116Y-42979691D01*
X74790274Y-43021651D01*
X74736735Y-43054727D01*
X74698697Y-43076321D01*
X74680533Y-43083843D01*
X74663808Y-43073957D01*
X74630180Y-43046326D01*
X74583010Y-43003995D01*
X74525658Y-42950005D01*
X74461484Y-42887399D01*
X74440497Y-42866483D01*
X74223499Y-42649123D01*
X74388668Y-42406720D01*
X74438864Y-42332281D01*
X74482919Y-42265472D01*
X74518362Y-42210165D01*
X74542719Y-42170229D01*
X74553522Y-42149536D01*
X74553838Y-42148063D01*
X74548143Y-42128558D01*
X74532826Y-42089322D01*
X74510537Y-42036930D01*
X74494893Y-42001855D01*
X74465641Y-41934701D01*
X74438094Y-41866858D01*
X74416737Y-41809534D01*
X74410935Y-41792072D01*
X74394452Y-41745438D01*
X74378340Y-41709405D01*
X74369490Y-41695787D01*
X74349960Y-41687452D01*
X74307334Y-41675637D01*
X74247145Y-41661681D01*
X74174922Y-41646922D01*
X74142600Y-41640855D01*
X74060522Y-41625773D01*
X73981795Y-41611169D01*
X73914109Y-41598480D01*
X73865160Y-41589142D01*
X73855943Y-41587339D01*
X73779743Y-41572299D01*
X73779743Y-41254992D01*
X73779914Y-41150654D01*
X73780616Y-41071713D01*
X73782134Y-41014538D01*
X73784749Y-40975499D01*
X73788746Y-40950965D01*
X73794409Y-40937305D01*
X73802020Y-40930889D01*
X73805143Y-40929699D01*
X73823978Y-40925480D01*
X73865588Y-40917062D01*
X73924630Y-40905461D01*
X73995757Y-40891695D01*
X74073625Y-40876780D01*
X74152887Y-40861732D01*
X74228198Y-40847569D01*
X74294213Y-40835306D01*
X74345587Y-40825961D01*
X74376975Y-40820550D01*
X74383959Y-40819614D01*
X74390285Y-40807096D01*
X74404290Y-40773746D01*
X74423355Y-40725877D01*
X74430634Y-40707129D01*
X74459996Y-40634695D01*
X74494571Y-40554670D01*
X74525537Y-40487228D01*
X74548323Y-40435659D01*
X74563482Y-40393285D01*
X74568542Y-40367334D01*
X74567736Y-40363856D01*
X74557041Y-40347436D01*
X74532620Y-40310917D01*
X74497095Y-40258187D01*
X74453087Y-40193135D01*
X74403217Y-40119651D01*
X74393356Y-40105145D01*
X74335492Y-40019204D01*
X74292956Y-39953761D01*
X74264054Y-39905804D01*
X74247090Y-39872320D01*
X74240367Y-39850295D01*
X74242190Y-39836717D01*
X74242236Y-39836631D01*
X74256586Y-39818797D01*
X74288323Y-39784317D01*
X74334010Y-39736768D01*
X74390204Y-39679722D01*
X74453468Y-39616755D01*
X74460602Y-39609727D01*
X74540330Y-39532520D01*
X74601857Y-39475830D01*
X74646421Y-39438610D01*
X74675257Y-39419815D01*
X74687958Y-39417389D01*
X74706494Y-39427971D01*
X74744961Y-39452416D01*
X74799386Y-39488112D01*
X74865798Y-39532447D01*
X74940225Y-39582811D01*
X74957601Y-39594660D01*
X75204297Y-39763126D01*
X75315706Y-39712562D01*
X75383457Y-39683095D01*
X75456183Y-39653459D01*
X75518703Y-39629830D01*
X75521457Y-39628858D01*
X75570360Y-39610957D01*
X75608057Y-39595820D01*
X75626425Y-39586710D01*
X75626456Y-39586684D01*
X75632285Y-39570217D01*
X75642192Y-39529719D01*
X75655195Y-39469742D01*
X75670309Y-39394840D01*
X75686552Y-39309564D01*
X75687881Y-39302375D01*
X75704175Y-39214514D01*
X75719133Y-39134760D01*
X75731791Y-39068181D01*
X75741186Y-39019847D01*
X75746354Y-38994825D01*
X75746444Y-38994443D01*
X75749589Y-38983799D01*
X75755704Y-38975762D01*
X75768453Y-38969967D01*
X75791500Y-38966047D01*
X75828509Y-38963635D01*
X75883144Y-38962365D01*
X75959067Y-38961871D01*
X76059944Y-38961786D01*
X76073000Y-38961786D01*
X76176910Y-38961848D01*
G37*
X76176910Y-38961848D02*
X76255454Y-38962278D01*
X76312298Y-38963442D01*
X76351105Y-38965707D01*
X76375538Y-38969440D01*
X76389262Y-38975006D01*
X76395940Y-38982773D01*
X76399236Y-38993105D01*
X76399556Y-38994443D01*
X76404562Y-39018579D01*
X76413829Y-39066201D01*
X76426392Y-39132241D01*
X76441287Y-39211628D01*
X76457551Y-39299296D01*
X76458119Y-39302375D01*
X76474410Y-39388289D01*
X76489652Y-39464196D01*
X76502861Y-39525545D01*
X76513054Y-39567782D01*
X76519248Y-39586355D01*
X76519543Y-39586684D01*
X76537788Y-39595753D01*
X76575405Y-39610867D01*
X76624271Y-39628762D01*
X76624543Y-39628858D01*
X76686093Y-39651993D01*
X76758657Y-39681465D01*
X76827057Y-39711097D01*
X76830294Y-39712562D01*
X76941702Y-39763126D01*
X77188399Y-39594660D01*
X77264077Y-39543303D01*
X77332631Y-39497389D01*
X77390088Y-39459530D01*
X77432476Y-39432337D01*
X77455825Y-39418421D01*
X77458042Y-39417389D01*
X77475010Y-39421984D01*
X77506701Y-39444155D01*
X77554352Y-39484947D01*
X77619198Y-39545405D01*
X77685397Y-39609727D01*
X77749214Y-39673112D01*
X77806329Y-39730951D01*
X77853305Y-39779675D01*
X77886703Y-39815710D01*
X77903085Y-39835484D01*
X77903694Y-39836502D01*
X77905505Y-39850072D01*
X77898683Y-39872233D01*
X77881540Y-39905978D01*
X77852393Y-39954300D01*
X77809555Y-40020192D01*
X77752448Y-40105017D01*
X77701766Y-40179677D01*
X77656461Y-40246640D01*
X77619150Y-40302016D01*
X77592452Y-40341920D01*
X77578985Y-40362462D01*
X77578137Y-40363856D01*
X77579781Y-40383538D01*
X77592245Y-40421793D01*
X77613048Y-40471389D01*
X77620462Y-40487228D01*
X77652814Y-40557790D01*
X77687328Y-40637853D01*
X77715365Y-40707129D01*
X77735568Y-40758545D01*
X77751615Y-40797619D01*
X77760888Y-40818041D01*
X77762041Y-40819614D01*
X77779096Y-40822221D01*
X77819298Y-40829363D01*
X77877302Y-40840023D01*
X77947763Y-40853185D01*
X78025335Y-40867833D01*
X78104672Y-40882949D01*
X78180431Y-40897518D01*
X78247264Y-40910522D01*
X78299828Y-40920945D01*
X78332776Y-40927770D01*
X78340857Y-40929699D01*
X78349205Y-40934462D01*
X78355506Y-40945218D01*
X78360045Y-40965598D01*
X78363104Y-40999234D01*
X78364967Y-41049755D01*
X78365918Y-41120792D01*
X78366240Y-41215976D01*
X78366257Y-41254992D01*
X78366257Y-41572299D01*
X78290057Y-41587339D01*
X78247663Y-41595495D01*
X78184400Y-41607399D01*
X78107962Y-41621616D01*
X78026043Y-41636710D01*
X78003400Y-41640855D01*
X77927806Y-41655553D01*
X77861953Y-41670005D01*
X77811366Y-41682875D01*
X77781574Y-41692822D01*
X77776612Y-41695787D01*
X77764426Y-41716783D01*
X77746953Y-41757467D01*
X77727577Y-41809822D01*
X77723734Y-41821100D01*
X77698339Y-41891023D01*
X77666817Y-41969918D01*
X77635969Y-42040766D01*
X77635817Y-42041095D01*
X77584447Y-42152233D01*
X77753399Y-42400753D01*
X77922352Y-42649272D01*
X77705429Y-42866558D01*
X77639819Y-42931226D01*
X77579979Y-42988233D01*
X77529267Y-43034533D01*
X77491046Y-43067084D01*
X77468675Y-43082843D01*
X77465466Y-43083843D01*
X77446626Y-43075969D01*
X77408180Y-43054078D01*
X77354330Y-43020767D01*
X77289276Y-42978631D01*
X77218940Y-42931443D01*
X77147555Y-42883310D01*
X77083908Y-42841428D01*
X77032041Y-42808371D01*
X76995995Y-42786718D01*
X76979867Y-42779043D01*
X76960189Y-42785537D01*
X76922875Y-42802650D01*
X76875621Y-42826826D01*
X76870612Y-42829513D01*
X76806977Y-42861427D01*
X76763341Y-42877079D01*
X76736202Y-42877245D01*
X76722057Y-42862704D01*
X76721975Y-42862500D01*
X76714905Y-42845279D01*
X76698042Y-42804399D01*
X76672695Y-42743025D01*
X76640171Y-42664319D01*
X76601778Y-42571447D01*
X76558822Y-42467572D01*
X76517222Y-42367002D01*
X76471504Y-42256016D01*
X76429526Y-42153203D01*
X76392548Y-42061715D01*
X76361827Y-41984701D01*
X76338622Y-41925315D01*
X76324190Y-41886709D01*
X76319743Y-41872300D01*
X76330896Y-41855772D01*
X76360069Y-41829430D01*
X76398971Y-41800387D01*
X76509757Y-41708539D01*
X76596351Y-41603259D01*
X76657716Y-41486766D01*
X76692815Y-41361276D01*
X76700608Y-41229007D01*
X76694943Y-41167957D01*
X76664078Y-41041295D01*
X76610920Y-40929441D01*
X76538767Y-40833501D01*
X76450917Y-40754576D01*
X76350665Y-40693770D01*
X76241310Y-40652187D01*
X76126147Y-40630928D01*
X76008475Y-40631099D01*
X75891590Y-40653801D01*
X75778789Y-40700138D01*
X75673369Y-40771213D01*
X75629368Y-40811411D01*
X75544979Y-40914629D01*
X75486222Y-41027425D01*
X75452704Y-41146510D01*
X75444035Y-41268595D01*
X75459823Y-41390393D01*
X75499678Y-41508616D01*
X75563207Y-41619975D01*
X75650021Y-41721184D01*
X75747029Y-41800387D01*
X75787437Y-41830662D01*
X75815982Y-41856719D01*
X75826257Y-41872325D01*
X75820877Y-41889343D01*
X75805575Y-41930000D01*
X75781612Y-41991142D01*
X75750244Y-42069619D01*
X75712732Y-42162280D01*
X75670333Y-42265972D01*
X75628663Y-42367026D01*
X75582690Y-42478107D01*
X75540107Y-42581041D01*
X75502221Y-42672665D01*
X75470340Y-42749816D01*
X75445771Y-42809331D01*
X75429820Y-42848044D01*
X75423910Y-42862500D01*
X75409948Y-42877185D01*
X75382940Y-42877142D01*
X75339413Y-42861599D01*
X75275890Y-42829784D01*
X75275388Y-42829513D01*
X75227560Y-42804823D01*
X75188897Y-42786838D01*
X75167095Y-42779114D01*
X75166133Y-42779043D01*
X75149721Y-42786878D01*
X75113487Y-42808665D01*
X75061474Y-42841828D01*
X74997725Y-42883791D01*
X74927060Y-42931443D01*
X74855116Y-42979691D01*
X74790274Y-43021651D01*
X74736735Y-43054727D01*
X74698697Y-43076321D01*
X74680533Y-43083843D01*
X74663808Y-43073957D01*
X74630180Y-43046326D01*
X74583010Y-43003995D01*
X74525658Y-42950005D01*
X74461484Y-42887399D01*
X74440497Y-42866483D01*
X74223499Y-42649123D01*
X74388668Y-42406720D01*
X74438864Y-42332281D01*
X74482919Y-42265472D01*
X74518362Y-42210165D01*
X74542719Y-42170229D01*
X74553522Y-42149536D01*
X74553838Y-42148063D01*
X74548143Y-42128558D01*
X74532826Y-42089322D01*
X74510537Y-42036930D01*
X74494893Y-42001855D01*
X74465641Y-41934701D01*
X74438094Y-41866858D01*
X74416737Y-41809534D01*
X74410935Y-41792072D01*
X74394452Y-41745438D01*
X74378340Y-41709405D01*
X74369490Y-41695787D01*
X74349960Y-41687452D01*
X74307334Y-41675637D01*
X74247145Y-41661681D01*
X74174922Y-41646922D01*
X74142600Y-41640855D01*
X74060522Y-41625773D01*
X73981795Y-41611169D01*
X73914109Y-41598480D01*
X73865160Y-41589142D01*
X73855943Y-41587339D01*
X73779743Y-41572299D01*
X73779743Y-41254992D01*
X73779914Y-41150654D01*
X73780616Y-41071713D01*
X73782134Y-41014538D01*
X73784749Y-40975499D01*
X73788746Y-40950965D01*
X73794409Y-40937305D01*
X73802020Y-40930889D01*
X73805143Y-40929699D01*
X73823978Y-40925480D01*
X73865588Y-40917062D01*
X73924630Y-40905461D01*
X73995757Y-40891695D01*
X74073625Y-40876780D01*
X74152887Y-40861732D01*
X74228198Y-40847569D01*
X74294213Y-40835306D01*
X74345587Y-40825961D01*
X74376975Y-40820550D01*
X74383959Y-40819614D01*
X74390285Y-40807096D01*
X74404290Y-40773746D01*
X74423355Y-40725877D01*
X74430634Y-40707129D01*
X74459996Y-40634695D01*
X74494571Y-40554670D01*
X74525537Y-40487228D01*
X74548323Y-40435659D01*
X74563482Y-40393285D01*
X74568542Y-40367334D01*
X74567736Y-40363856D01*
X74557041Y-40347436D01*
X74532620Y-40310917D01*
X74497095Y-40258187D01*
X74453087Y-40193135D01*
X74403217Y-40119651D01*
X74393356Y-40105145D01*
X74335492Y-40019204D01*
X74292956Y-39953761D01*
X74264054Y-39905804D01*
X74247090Y-39872320D01*
X74240367Y-39850295D01*
X74242190Y-39836717D01*
X74242236Y-39836631D01*
X74256586Y-39818797D01*
X74288323Y-39784317D01*
X74334010Y-39736768D01*
X74390204Y-39679722D01*
X74453468Y-39616755D01*
X74460602Y-39609727D01*
X74540330Y-39532520D01*
X74601857Y-39475830D01*
X74646421Y-39438610D01*
X74675257Y-39419815D01*
X74687958Y-39417389D01*
X74706494Y-39427971D01*
X74744961Y-39452416D01*
X74799386Y-39488112D01*
X74865798Y-39532447D01*
X74940225Y-39582811D01*
X74957601Y-39594660D01*
X75204297Y-39763126D01*
X75315706Y-39712562D01*
X75383457Y-39683095D01*
X75456183Y-39653459D01*
X75518703Y-39629830D01*
X75521457Y-39628858D01*
X75570360Y-39610957D01*
X75608057Y-39595820D01*
X75626425Y-39586710D01*
X75626456Y-39586684D01*
X75632285Y-39570217D01*
X75642192Y-39529719D01*
X75655195Y-39469742D01*
X75670309Y-39394840D01*
X75686552Y-39309564D01*
X75687881Y-39302375D01*
X75704175Y-39214514D01*
X75719133Y-39134760D01*
X75731791Y-39068181D01*
X75741186Y-39019847D01*
X75746354Y-38994825D01*
X75746444Y-38994443D01*
X75749589Y-38983799D01*
X75755704Y-38975762D01*
X75768453Y-38969967D01*
X75791500Y-38966047D01*
X75828509Y-38963635D01*
X75883144Y-38962365D01*
X75959067Y-38961871D01*
X76059944Y-38961786D01*
X76073000Y-38961786D01*
X76176910Y-38961848D01*
D12*
X76388500Y-35757733D02*
X76388500Y-36050267D01*
X77408500Y-35757733D02*
X77408500Y-36050267D01*
X79902000Y-47104500D02*
X79902000Y-53914500D01*
X72752000Y-47104500D02*
X72752000Y-53914500D01*
X79902000Y-53914500D02*
X72752000Y-53914500D01*
X72752000Y-47104500D02*
X79902000Y-47104500D01*
X84408000Y-21256500D02*
X83008000Y-21256500D01*
X82308000Y-20556500D02*
X82308000Y-19956500D01*
X83008000Y-19256500D02*
X84408000Y-19256500D01*
X85108000Y-19956500D02*
X85108000Y-20556500D01*
X83008000Y-21256500D02*
G75*
G02*
X82308000Y-20556500I0J700000D01*
G01*
X82308000Y-19956500D02*
G75*
G02*
X83008000Y-19256500I700000J0D01*
G01*
X84408000Y-19256500D02*
G75*
G02*
X85108000Y-19956500I0J-700000D01*
G01*
X85108000Y-20556500D02*
G75*
G02*
X84408000Y-21256500I-700000J0D01*
G01*
X84469500Y-35599276D02*
X84469500Y-36108724D01*
X83424500Y-35599276D02*
X83424500Y-36108724D01*
X75198500Y-31433224D02*
X75198500Y-30923776D01*
X74153500Y-31433224D02*
X74153500Y-30923776D01*
X75198500Y-35599276D02*
X75198500Y-36108724D01*
X74153500Y-35599276D02*
X74153500Y-36108724D01*
X76566500Y-30947276D02*
X76566500Y-31456724D01*
X77611500Y-30947276D02*
X77611500Y-31456724D01*
X83461776Y-17413500D02*
X83971224Y-17413500D01*
X83461776Y-16368500D02*
X83971224Y-16368500D01*
X84966000Y-10028500D02*
X84966000Y-14228500D01*
X84966000Y-14228500D02*
X82166000Y-14228500D01*
X82166000Y-10028500D02*
X82166000Y-14228500D01*
X84966000Y-10028500D02*
X82166000Y-10028500D01*
X78715000Y-35211000D02*
X78715000Y-37661000D01*
X81935000Y-37011000D02*
X81935000Y-35211000D01*
X82225000Y-30418500D02*
X82225000Y-31878500D01*
X79065000Y-30418500D02*
X79065000Y-32578500D01*
X79065000Y-30418500D02*
X79995000Y-30418500D01*
X82225000Y-30418500D02*
X81295000Y-30418500D01*
D11*
X66864484Y-53846476D02*
X50864491Y-53846476D01*
X50864491Y-53846476D02*
X49864493Y-52846478D01*
X49864493Y-52846478D02*
X49864493Y-30846472D01*
X49864493Y-30846472D02*
X50864491Y-29846474D01*
X50864491Y-29846474D02*
X66864484Y-29846474D01*
X66864484Y-29846474D02*
X67864508Y-30846472D01*
X67864508Y-30846472D02*
X67864508Y-52846478D01*
X67864508Y-52846478D02*
X66864510Y-53846476D01*
D10*
X61150595Y-12215880D02*
X61150595Y-13025404D01*
X61198214Y-13120642D01*
X61245833Y-13168261D01*
X61341071Y-13215880D01*
X61531547Y-13215880D01*
X61626785Y-13168261D01*
X61674404Y-13120642D01*
X61722023Y-13025404D01*
X61722023Y-12215880D01*
X62102976Y-12215880D02*
X62722023Y-12215880D01*
X62388690Y-12596833D01*
X62531547Y-12596833D01*
X62626785Y-12644452D01*
X62674404Y-12692071D01*
X62722023Y-12787309D01*
X62722023Y-13025404D01*
X62674404Y-13120642D01*
X62626785Y-13168261D01*
X62531547Y-13215880D01*
X62245833Y-13215880D01*
X62150595Y-13168261D01*
X62102976Y-13120642D01*
X76795333Y-38647642D02*
X76747714Y-38695261D01*
X76604857Y-38742880D01*
X76509619Y-38742880D01*
X76366761Y-38695261D01*
X76271523Y-38600023D01*
X76223904Y-38504785D01*
X76176285Y-38314309D01*
X76176285Y-38171452D01*
X76223904Y-37980976D01*
X76271523Y-37885738D01*
X76366761Y-37790500D01*
X76509619Y-37742880D01*
X76604857Y-37742880D01*
X76747714Y-37790500D01*
X76795333Y-37838119D01*
X77747714Y-38742880D02*
X77176285Y-38742880D01*
X77462000Y-38742880D02*
X77462000Y-37742880D01*
X77366761Y-37885738D01*
X77271523Y-37980976D01*
X77176285Y-38028595D01*
X75930166Y-51141380D02*
X75930166Y-51855666D01*
X75882547Y-51998523D01*
X75787309Y-52093761D01*
X75644452Y-52141380D01*
X75549214Y-52141380D01*
X76930166Y-52141380D02*
X76358738Y-52141380D01*
X76644452Y-52141380D02*
X76644452Y-51141380D01*
X76549214Y-51284238D01*
X76453976Y-51379476D01*
X76358738Y-51427095D01*
X82826166Y-21931380D02*
X82826166Y-22645666D01*
X82778547Y-22788523D01*
X82683309Y-22883761D01*
X82540452Y-22931380D01*
X82445214Y-22931380D01*
X83302357Y-22931380D02*
X83302357Y-21931380D01*
X83683309Y-21931380D01*
X83778547Y-21979000D01*
X83826166Y-22026619D01*
X83873785Y-22121857D01*
X83873785Y-22264714D01*
X83826166Y-22359952D01*
X83778547Y-22407571D01*
X83683309Y-22455190D01*
X83302357Y-22455190D01*
X84826166Y-22931380D02*
X84254738Y-22931380D01*
X84540452Y-22931380D02*
X84540452Y-21931380D01*
X84445214Y-22074238D01*
X84349976Y-22169476D01*
X84254738Y-22217095D01*
X83780333Y-38806380D02*
X83447000Y-38330190D01*
X83208904Y-38806380D02*
X83208904Y-37806380D01*
X83589857Y-37806380D01*
X83685095Y-37854000D01*
X83732714Y-37901619D01*
X83780333Y-37996857D01*
X83780333Y-38139714D01*
X83732714Y-38234952D01*
X83685095Y-38282571D01*
X83589857Y-38330190D01*
X83208904Y-38330190D01*
X84732714Y-38806380D02*
X84161285Y-38806380D01*
X84447000Y-38806380D02*
X84447000Y-37806380D01*
X84351761Y-37949238D01*
X84256523Y-38044476D01*
X84161285Y-38092095D01*
X74445833Y-34020380D02*
X74112500Y-33544190D01*
X73874404Y-34020380D02*
X73874404Y-33020380D01*
X74255357Y-33020380D01*
X74350595Y-33068000D01*
X74398214Y-33115619D01*
X74445833Y-33210857D01*
X74445833Y-33353714D01*
X74398214Y-33448952D01*
X74350595Y-33496571D01*
X74255357Y-33544190D01*
X73874404Y-33544190D01*
X74826785Y-33115619D02*
X74874404Y-33068000D01*
X74969642Y-33020380D01*
X75207738Y-33020380D01*
X75302976Y-33068000D01*
X75350595Y-33115619D01*
X75398214Y-33210857D01*
X75398214Y-33306095D01*
X75350595Y-33448952D01*
X74779166Y-34020380D01*
X75398214Y-34020380D01*
X74445833Y-38742880D02*
X74112500Y-38266690D01*
X73874404Y-38742880D02*
X73874404Y-37742880D01*
X74255357Y-37742880D01*
X74350595Y-37790500D01*
X74398214Y-37838119D01*
X74445833Y-37933357D01*
X74445833Y-38076214D01*
X74398214Y-38171452D01*
X74350595Y-38219071D01*
X74255357Y-38266690D01*
X73874404Y-38266690D01*
X74779166Y-37742880D02*
X75398214Y-37742880D01*
X75064880Y-38123833D01*
X75207738Y-38123833D01*
X75302976Y-38171452D01*
X75350595Y-38219071D01*
X75398214Y-38314309D01*
X75398214Y-38552404D01*
X75350595Y-38647642D01*
X75302976Y-38695261D01*
X75207738Y-38742880D01*
X74922023Y-38742880D01*
X74826785Y-38695261D01*
X74779166Y-38647642D01*
X76985833Y-34107380D02*
X76652500Y-33631190D01*
X76414404Y-34107380D02*
X76414404Y-33107380D01*
X76795357Y-33107380D01*
X76890595Y-33155000D01*
X76938214Y-33202619D01*
X76985833Y-33297857D01*
X76985833Y-33440714D01*
X76938214Y-33535952D01*
X76890595Y-33583571D01*
X76795357Y-33631190D01*
X76414404Y-33631190D01*
X77842976Y-33440714D02*
X77842976Y-34107380D01*
X77604880Y-33059761D02*
X77366785Y-33774047D01*
X77985833Y-33774047D01*
X83549833Y-18803880D02*
X83216500Y-18327690D01*
X82978404Y-18803880D02*
X82978404Y-17803880D01*
X83359357Y-17803880D01*
X83454595Y-17851500D01*
X83502214Y-17899119D01*
X83549833Y-17994357D01*
X83549833Y-18137214D01*
X83502214Y-18232452D01*
X83454595Y-18280071D01*
X83359357Y-18327690D01*
X82978404Y-18327690D01*
X84454595Y-17803880D02*
X83978404Y-17803880D01*
X83930785Y-18280071D01*
X83978404Y-18232452D01*
X84073642Y-18184833D01*
X84311738Y-18184833D01*
X84406976Y-18232452D01*
X84454595Y-18280071D01*
X84502214Y-18375309D01*
X84502214Y-18613404D01*
X84454595Y-18708642D01*
X84406976Y-18756261D01*
X84311738Y-18803880D01*
X84073642Y-18803880D01*
X83978404Y-18756261D01*
X83930785Y-18708642D01*
X82423166Y-15835261D02*
X82566023Y-15882880D01*
X82804119Y-15882880D01*
X82899357Y-15835261D01*
X82946976Y-15787642D01*
X82994595Y-15692404D01*
X82994595Y-15597166D01*
X82946976Y-15501928D01*
X82899357Y-15454309D01*
X82804119Y-15406690D01*
X82613642Y-15359071D01*
X82518404Y-15311452D01*
X82470785Y-15263833D01*
X82423166Y-15168595D01*
X82423166Y-15073357D01*
X82470785Y-14978119D01*
X82518404Y-14930500D01*
X82613642Y-14882880D01*
X82851738Y-14882880D01*
X82994595Y-14930500D01*
X83327928Y-14882880D02*
X83566023Y-15882880D01*
X83756500Y-15168595D01*
X83946976Y-15882880D01*
X84185071Y-14882880D01*
X85089833Y-15882880D02*
X84518404Y-15882880D01*
X84804119Y-15882880D02*
X84804119Y-14882880D01*
X84708880Y-15025738D01*
X84613642Y-15120976D01*
X84518404Y-15168595D01*
X79438595Y-38250880D02*
X79438595Y-39060404D01*
X79486214Y-39155642D01*
X79533833Y-39203261D01*
X79629071Y-39250880D01*
X79819547Y-39250880D01*
X79914785Y-39203261D01*
X79962404Y-39155642D01*
X80010023Y-39060404D01*
X80010023Y-38250880D01*
X81010023Y-39250880D02*
X80438595Y-39250880D01*
X80724309Y-39250880D02*
X80724309Y-38250880D01*
X80629071Y-38393738D01*
X80533833Y-38488976D01*
X80438595Y-38536595D01*
X80549761Y-34139119D02*
X80454523Y-34091500D01*
X80359285Y-33996261D01*
X80216428Y-33853404D01*
X80121190Y-33805785D01*
X80025952Y-33805785D01*
X80073571Y-34043880D02*
X79978333Y-33996261D01*
X79883095Y-33901023D01*
X79835476Y-33710547D01*
X79835476Y-33377214D01*
X79883095Y-33186738D01*
X79978333Y-33091500D01*
X80073571Y-33043880D01*
X80264047Y-33043880D01*
X80359285Y-33091500D01*
X80454523Y-33186738D01*
X80502142Y-33377214D01*
X80502142Y-33710547D01*
X80454523Y-33901023D01*
X80359285Y-33996261D01*
X80264047Y-34043880D01*
X80073571Y-34043880D01*
X81454523Y-34043880D02*
X80883095Y-34043880D01*
X81168809Y-34043880D02*
X81168809Y-33043880D01*
X81073571Y-33186738D01*
X80978333Y-33281976D01*
X80883095Y-33329595D01*
X58102595Y-34186880D02*
X58102595Y-34996404D01*
X58150214Y-35091642D01*
X58197833Y-35139261D01*
X58293071Y-35186880D01*
X58483547Y-35186880D01*
X58578785Y-35139261D01*
X58626404Y-35091642D01*
X58674023Y-34996404D01*
X58674023Y-34186880D01*
X59102595Y-34282119D02*
X59150214Y-34234500D01*
X59245452Y-34186880D01*
X59483547Y-34186880D01*
X59578785Y-34234500D01*
X59626404Y-34282119D01*
X59674023Y-34377357D01*
X59674023Y-34472595D01*
X59626404Y-34615452D01*
X59054976Y-35186880D01*
X59674023Y-35186880D01*
D14*
X51506331Y-50407457D02*
X51506331Y-47907462D01*
X52458710Y-47907462D01*
X52696805Y-48026509D01*
X52815852Y-48145556D01*
X52934899Y-48383651D01*
X52934899Y-48740793D01*
X52815852Y-48978888D01*
X52696805Y-49097935D01*
X52458710Y-49216983D01*
X51506331Y-49216983D01*
X54006326Y-50407457D02*
X54006326Y-47907462D01*
X56625368Y-50169362D02*
X56506321Y-50288409D01*
X56149179Y-50407457D01*
X55911084Y-50407457D01*
X55553942Y-50288409D01*
X55315847Y-50050314D01*
X55196800Y-49812220D01*
X55077752Y-49336030D01*
X55077752Y-48978888D01*
X55196800Y-48502699D01*
X55315847Y-48264604D01*
X55553942Y-48026509D01*
X55911084Y-47907462D01*
X56149179Y-47907462D01*
X56506321Y-48026509D01*
X56625368Y-48145556D01*
X58172984Y-47907462D02*
X58649174Y-47907462D01*
X58887268Y-48026509D01*
X59125363Y-48264604D01*
X59244411Y-48740793D01*
X59244411Y-49574125D01*
X59125363Y-50050314D01*
X58887268Y-50288409D01*
X58649174Y-50407457D01*
X58172984Y-50407457D01*
X57934889Y-50288409D01*
X57696795Y-50050314D01*
X57577747Y-49574125D01*
X57577747Y-48740793D01*
X57696795Y-48264604D01*
X57934889Y-48026509D01*
X58172984Y-47907462D01*
D15*
X50609011Y-52890354D02*
X50609011Y-51190357D01*
X51175676Y-52404640D01*
X51742342Y-51190357D01*
X51742342Y-52890354D01*
X53361387Y-51190357D02*
X52551864Y-51190357D01*
X52470912Y-51999879D01*
X52551864Y-51918927D01*
X52713769Y-51837975D01*
X53118530Y-51837975D01*
X53280435Y-51918927D01*
X53361387Y-51999879D01*
X53442339Y-52161784D01*
X53442339Y-52566545D01*
X53361387Y-52728449D01*
X53280435Y-52809402D01*
X53118530Y-52890354D01*
X52713769Y-52890354D01*
X52551864Y-52809402D01*
X52470912Y-52728449D01*
X54089957Y-52809402D02*
X54332814Y-52890354D01*
X54737575Y-52890354D01*
X54899479Y-52809402D01*
X54980432Y-52728449D01*
X55061384Y-52566545D01*
X55061384Y-52404640D01*
X54980432Y-52242736D01*
X54899479Y-52161784D01*
X54737575Y-52080831D01*
X54413766Y-51999879D01*
X54251861Y-51918927D01*
X54170909Y-51837975D01*
X54089957Y-51676070D01*
X54089957Y-51514166D01*
X54170909Y-51352261D01*
X54251861Y-51271309D01*
X54413766Y-51190357D01*
X54818527Y-51190357D01*
X55061384Y-51271309D01*
X55547097Y-51190357D02*
X56518524Y-51190357D01*
X56032811Y-52890354D02*
X56032811Y-51190357D01*
X57004237Y-52404640D02*
X57813760Y-52404640D01*
X56842333Y-52890354D02*
X57408999Y-51190357D01*
X57975664Y-52890354D01*
X58542330Y-52890354D02*
X58542330Y-51190357D01*
X59108996Y-52404640D01*
X59675661Y-51190357D01*
X59675661Y-52890354D01*
X60485184Y-52890354D02*
X60485184Y-51190357D01*
X61132802Y-51190357D01*
X61294706Y-51271309D01*
X61375658Y-51352261D01*
X61456611Y-51514166D01*
X61456611Y-51757022D01*
X61375658Y-51918927D01*
X61294706Y-51999879D01*
X61132802Y-52080831D01*
X60485184Y-52080831D01*
D16*
X61642700Y-31820322D02*
X61585557Y-31934608D01*
X61585557Y-32106036D01*
X61642700Y-32277465D01*
X61756985Y-32391750D01*
X61871271Y-32448893D01*
X62099842Y-32506036D01*
X62271271Y-32506036D01*
X62499842Y-32448893D01*
X62614128Y-32391750D01*
X62728414Y-32277465D01*
X62785557Y-32106036D01*
X62785557Y-31991750D01*
X62728414Y-31820322D01*
X62671271Y-31763179D01*
X62271271Y-31763179D01*
X62271271Y-31991750D01*
X59045557Y-32848893D02*
X59045557Y-33420322D01*
X59616985Y-33477465D01*
X59559842Y-33420322D01*
X59502700Y-33306036D01*
X59502700Y-33020322D01*
X59559842Y-32906036D01*
X59616985Y-32848893D01*
X59731271Y-32791750D01*
X60016985Y-32791750D01*
X60131271Y-32848893D01*
X60188414Y-32906036D01*
X60245557Y-33020322D01*
X60245557Y-33306036D01*
X60188414Y-33420322D01*
X60131271Y-33477465D01*
X59045557Y-32448893D02*
X60245557Y-32048893D01*
X59045557Y-31648893D01*
X53965557Y-33648893D02*
X53965557Y-32906036D01*
X54422700Y-33306036D01*
X54422700Y-33134608D01*
X54479842Y-33020322D01*
X54536985Y-32963179D01*
X54651271Y-32906036D01*
X54936985Y-32906036D01*
X55051271Y-32963179D01*
X55108414Y-33020322D01*
X55165557Y-33134608D01*
X55165557Y-33477465D01*
X55108414Y-33591750D01*
X55051271Y-33648893D01*
X53965557Y-32506036D02*
X53965557Y-31763179D01*
X54422700Y-32163179D01*
X54422700Y-31991750D01*
X54479842Y-31877465D01*
X54536985Y-31820322D01*
X54651271Y-31763179D01*
X54936985Y-31763179D01*
X55051271Y-31820322D01*
X55108414Y-31877465D01*
X55165557Y-31991750D01*
X55165557Y-32334608D01*
X55108414Y-32448893D01*
X55051271Y-32506036D01*
X56505557Y-33648893D02*
X56505557Y-32906036D01*
X56962700Y-33306036D01*
X56962700Y-33134608D01*
X57019842Y-33020322D01*
X57076985Y-32963179D01*
X57191271Y-32906036D01*
X57476985Y-32906036D01*
X57591271Y-32963179D01*
X57648414Y-33020322D01*
X57705557Y-33134608D01*
X57705557Y-33477465D01*
X57648414Y-33591750D01*
X57591271Y-33648893D01*
X56619842Y-32448893D02*
X56562700Y-32391750D01*
X56505557Y-32277465D01*
X56505557Y-31991750D01*
X56562700Y-31877465D01*
X56619842Y-31820322D01*
X56734128Y-31763179D01*
X56848414Y-31763179D01*
X57019842Y-31820322D01*
X57705557Y-32506036D01*
X57705557Y-31763179D01*
X52952685Y-31328308D02*
X52838400Y-31271165D01*
X52666971Y-31271165D01*
X52495542Y-31328308D01*
X52381257Y-31442593D01*
X52324114Y-31556879D01*
X52266971Y-31785450D01*
X52266971Y-31956879D01*
X52324114Y-32185450D01*
X52381257Y-32299736D01*
X52495542Y-32414022D01*
X52666971Y-32471165D01*
X52781257Y-32471165D01*
X52952685Y-32414022D01*
X53009828Y-32356879D01*
X53009828Y-31956879D01*
X52781257Y-31956879D01*
X52617194Y-33743855D02*
X52731480Y-33743855D01*
X52845766Y-33800998D01*
X52902908Y-33858140D01*
X52960051Y-33972426D01*
X53017194Y-34200998D01*
X53017194Y-34486712D01*
X52960051Y-34715283D01*
X52902908Y-34829569D01*
X52845766Y-34886712D01*
X52731480Y-34943855D01*
X52617194Y-34943855D01*
X52502908Y-34886712D01*
X52445766Y-34829569D01*
X52388623Y-34715283D01*
X52331480Y-34486712D01*
X52331480Y-34200998D01*
X52388623Y-33972426D01*
X52445766Y-33858140D01*
X52502908Y-33800998D01*
X52617194Y-33743855D01*
X52258217Y-36854267D02*
X52658217Y-36854267D01*
X52829645Y-37482839D02*
X52258217Y-37482839D01*
X52258217Y-36282839D01*
X52829645Y-36282839D01*
X53343931Y-37482839D02*
X53343931Y-36282839D01*
X54029645Y-37482839D01*
X54029645Y-36282839D01*
X52274337Y-38823601D02*
X53017194Y-38823601D01*
X52617194Y-39280744D01*
X52788623Y-39280744D01*
X52902908Y-39337886D01*
X52960051Y-39395029D01*
X53017194Y-39509315D01*
X53017194Y-39795029D01*
X52960051Y-39909315D01*
X52902908Y-39966458D01*
X52788623Y-40023601D01*
X52445766Y-40023601D01*
X52331480Y-39966458D01*
X52274337Y-39909315D01*
X52526720Y-42564109D02*
X51841006Y-42564109D01*
X52183863Y-42564109D02*
X52183863Y-41364109D01*
X52069577Y-41535537D01*
X51955292Y-41649823D01*
X51841006Y-41706966D01*
X52381542Y-43971165D02*
X53124400Y-43971165D01*
X52724400Y-44428308D01*
X52895828Y-44428308D01*
X53010114Y-44485450D01*
X53067257Y-44542593D01*
X53124400Y-44656879D01*
X53124400Y-44942593D01*
X53067257Y-45056879D01*
X53010114Y-45114022D01*
X52895828Y-45171165D01*
X52552971Y-45171165D01*
X52438685Y-45114022D01*
X52381542Y-45056879D01*
X53467257Y-43971165D02*
X53867257Y-45171165D01*
X54267257Y-43971165D01*
X54552971Y-43971165D02*
X55295828Y-43971165D01*
X54895828Y-44428308D01*
X55067257Y-44428308D01*
X55181542Y-44485450D01*
X55238685Y-44542593D01*
X55295828Y-44656879D01*
X55295828Y-44942593D01*
X55238685Y-45056879D01*
X55181542Y-45114022D01*
X55067257Y-45171165D01*
X54724400Y-45171165D01*
X54610114Y-45114022D01*
X54552971Y-45056879D01*
X63246257Y-51639156D02*
X63303400Y-51582014D01*
X63417685Y-51524871D01*
X63703400Y-51524871D01*
X63817685Y-51582014D01*
X63874828Y-51639156D01*
X63931971Y-51753442D01*
X63931971Y-51867728D01*
X63874828Y-52039156D01*
X63189114Y-52724871D01*
X63931971Y-52724871D01*
X64960542Y-51524871D02*
X64731971Y-51524871D01*
X64617685Y-51582014D01*
X64560542Y-51639156D01*
X64446257Y-51810585D01*
X64389114Y-52039156D01*
X64389114Y-52496299D01*
X64446257Y-52610585D01*
X64503400Y-52667728D01*
X64617685Y-52724871D01*
X64846257Y-52724871D01*
X64960542Y-52667728D01*
X65017685Y-52610585D01*
X65074828Y-52496299D01*
X65074828Y-52210585D01*
X65017685Y-52096299D01*
X64960542Y-52039156D01*
X64846257Y-51982014D01*
X64617685Y-51982014D01*
X64503400Y-52039156D01*
X64446257Y-52096299D01*
X64389114Y-52210585D01*
X63189114Y-48984871D02*
X63931971Y-48984871D01*
X63531971Y-49442014D01*
X63703400Y-49442014D01*
X63817685Y-49499156D01*
X63874828Y-49556299D01*
X63931971Y-49670585D01*
X63931971Y-49956299D01*
X63874828Y-50070585D01*
X63817685Y-50127728D01*
X63703400Y-50184871D01*
X63360542Y-50184871D01*
X63246257Y-50127728D01*
X63189114Y-50070585D01*
X64960542Y-48984871D02*
X64731971Y-48984871D01*
X64617685Y-49042014D01*
X64560542Y-49099156D01*
X64446257Y-49270585D01*
X64389114Y-49499156D01*
X64389114Y-49956299D01*
X64446257Y-50070585D01*
X64503400Y-50127728D01*
X64617685Y-50184871D01*
X64846257Y-50184871D01*
X64960542Y-50127728D01*
X65017685Y-50070585D01*
X65074828Y-49956299D01*
X65074828Y-49670585D01*
X65017685Y-49556299D01*
X64960542Y-49499156D01*
X64846257Y-49442014D01*
X64617685Y-49442014D01*
X64503400Y-49499156D01*
X64446257Y-49556299D01*
X64389114Y-49670585D01*
X63931971Y-47644871D02*
X63246257Y-47644871D01*
X63589114Y-47644871D02*
X63589114Y-46444871D01*
X63474828Y-46616299D01*
X63360542Y-46730585D01*
X63246257Y-46787728D01*
X64617685Y-46959156D02*
X64503400Y-46902014D01*
X64446257Y-46844871D01*
X64389114Y-46730585D01*
X64389114Y-46673442D01*
X64446257Y-46559156D01*
X64503400Y-46502014D01*
X64617685Y-46444871D01*
X64846257Y-46444871D01*
X64960542Y-46502014D01*
X65017685Y-46559156D01*
X65074828Y-46673442D01*
X65074828Y-46730585D01*
X65017685Y-46844871D01*
X64960542Y-46902014D01*
X64846257Y-46959156D01*
X64617685Y-46959156D01*
X64503400Y-47016299D01*
X64446257Y-47073442D01*
X64389114Y-47187728D01*
X64389114Y-47416299D01*
X64446257Y-47530585D01*
X64503400Y-47587728D01*
X64617685Y-47644871D01*
X64846257Y-47644871D01*
X64960542Y-47587728D01*
X65017685Y-47530585D01*
X65074828Y-47416299D01*
X65074828Y-47187728D01*
X65017685Y-47073442D01*
X64960542Y-47016299D01*
X64846257Y-46959156D01*
X63931971Y-45104871D02*
X63246257Y-45104871D01*
X63589114Y-45104871D02*
X63589114Y-43904871D01*
X63474828Y-44076299D01*
X63360542Y-44190585D01*
X63246257Y-44247728D01*
X64503400Y-45104871D02*
X64731971Y-45104871D01*
X64846257Y-45047728D01*
X64903400Y-44990585D01*
X65017685Y-44819156D01*
X65074828Y-44590585D01*
X65074828Y-44133442D01*
X65017685Y-44019156D01*
X64960542Y-43962014D01*
X64846257Y-43904871D01*
X64617685Y-43904871D01*
X64503400Y-43962014D01*
X64446257Y-44019156D01*
X64389114Y-44133442D01*
X64389114Y-44419156D01*
X64446257Y-44533442D01*
X64503400Y-44590585D01*
X64617685Y-44647728D01*
X64846257Y-44647728D01*
X64960542Y-44590585D01*
X65017685Y-44533442D01*
X65074828Y-44419156D01*
X63246257Y-41479156D02*
X63303400Y-41422014D01*
X63417685Y-41364871D01*
X63703400Y-41364871D01*
X63817685Y-41422014D01*
X63874828Y-41479156D01*
X63931971Y-41593442D01*
X63931971Y-41707728D01*
X63874828Y-41879156D01*
X63189114Y-42564871D01*
X63931971Y-42564871D01*
X65074828Y-42564871D02*
X64389114Y-42564871D01*
X64731971Y-42564871D02*
X64731971Y-41364871D01*
X64617685Y-41536299D01*
X64503400Y-41650585D01*
X64389114Y-41707728D01*
X63246257Y-38939156D02*
X63303400Y-38882014D01*
X63417685Y-38824871D01*
X63703400Y-38824871D01*
X63817685Y-38882014D01*
X63874828Y-38939156D01*
X63931971Y-39053442D01*
X63931971Y-39167728D01*
X63874828Y-39339156D01*
X63189114Y-40024871D01*
X63931971Y-40024871D01*
X64389114Y-38939156D02*
X64446257Y-38882014D01*
X64560542Y-38824871D01*
X64846257Y-38824871D01*
X64960542Y-38882014D01*
X65017685Y-38939156D01*
X65074828Y-39053442D01*
X65074828Y-39167728D01*
X65017685Y-39339156D01*
X64331971Y-40024871D01*
X65074828Y-40024871D01*
X63246257Y-36399156D02*
X63303400Y-36342014D01*
X63417685Y-36284871D01*
X63703400Y-36284871D01*
X63817685Y-36342014D01*
X63874828Y-36399156D01*
X63931971Y-36513442D01*
X63931971Y-36627728D01*
X63874828Y-36799156D01*
X63189114Y-37484871D01*
X63931971Y-37484871D01*
X65017685Y-36284871D02*
X64446257Y-36284871D01*
X64389114Y-36856299D01*
X64446257Y-36799156D01*
X64560542Y-36742014D01*
X64846257Y-36742014D01*
X64960542Y-36799156D01*
X65017685Y-36856299D01*
X65074828Y-36970585D01*
X65074828Y-37256299D01*
X65017685Y-37370585D01*
X64960542Y-37427728D01*
X64846257Y-37484871D01*
X64560542Y-37484871D01*
X64446257Y-37427728D01*
X64389114Y-37370585D01*
X65017685Y-31201308D02*
X64903400Y-31144165D01*
X64731971Y-31144165D01*
X64560542Y-31201308D01*
X64446257Y-31315593D01*
X64389114Y-31429879D01*
X64331971Y-31658450D01*
X64331971Y-31829879D01*
X64389114Y-32058450D01*
X64446257Y-32172736D01*
X64560542Y-32287022D01*
X64731971Y-32344165D01*
X64846257Y-32344165D01*
X65017685Y-32287022D01*
X65074828Y-32229879D01*
X65074828Y-31829879D01*
X64846257Y-31829879D01*
X63989114Y-33744871D02*
X63417685Y-33744871D01*
X63360542Y-34316299D01*
X63417685Y-34259156D01*
X63531971Y-34202014D01*
X63817685Y-34202014D01*
X63931971Y-34259156D01*
X63989114Y-34316299D01*
X64046257Y-34430585D01*
X64046257Y-34716299D01*
X63989114Y-34830585D01*
X63931971Y-34887728D01*
X63817685Y-34944871D01*
X63531971Y-34944871D01*
X63417685Y-34887728D01*
X63360542Y-34830585D01*
X64389114Y-33744871D02*
X64789114Y-34944871D01*
X65189114Y-33744871D01*
%LPC*%
D17*
X65953500Y-7226500D03*
X65953500Y-7926500D03*
X65953500Y-8626500D03*
X65953500Y-9326500D03*
X65953500Y-10026500D03*
X65953500Y-10726500D03*
X65953500Y-11426500D03*
X65953500Y-12126500D03*
X65953500Y-12826500D03*
X65953500Y-13526500D03*
X65953500Y-14226500D03*
X65953500Y-14926500D03*
G36*
G01*
X76661000Y-34504000D02*
X77136000Y-34504000D01*
G75*
G02*
X77373500Y-34741500I0J-237500D01*
G01*
X77373500Y-35341500D01*
G75*
G02*
X77136000Y-35579000I-237500J0D01*
G01*
X76661000Y-35579000D01*
G75*
G02*
X76423500Y-35341500I0J237500D01*
G01*
X76423500Y-34741500D01*
G75*
G02*
X76661000Y-34504000I237500J0D01*
G01*
G37*
G36*
G01*
X76661000Y-36229000D02*
X77136000Y-36229000D01*
G75*
G02*
X77373500Y-36466500I0J-237500D01*
G01*
X77373500Y-37066500D01*
G75*
G02*
X77136000Y-37304000I-237500J0D01*
G01*
X76661000Y-37304000D01*
G75*
G02*
X76423500Y-37066500I0J237500D01*
G01*
X76423500Y-36466500D01*
G75*
G02*
X76661000Y-36229000I237500J0D01*
G01*
G37*
G36*
G01*
X72302000Y-48944500D02*
X72302000Y-47664500D01*
G75*
G02*
X72662000Y-47304500I360000J0D01*
G01*
X72842000Y-47304500D01*
G75*
G02*
X73202000Y-47664500I0J-360000D01*
G01*
X73202000Y-48944500D01*
G75*
G02*
X72842000Y-49304500I-360000J0D01*
G01*
X72662000Y-49304500D01*
G75*
G02*
X72302000Y-48944500I0J360000D01*
G01*
G37*
D18*
X74327000Y-49429500D03*
D19*
X75027000Y-48704500D03*
X75677000Y-48704500D03*
X76327000Y-48704500D03*
X76977000Y-48704500D03*
X77627000Y-48704500D03*
D18*
X78327000Y-49429500D03*
G36*
G01*
X72302000Y-52394500D02*
X72302000Y-51114500D01*
G75*
G02*
X72662000Y-50754500I360000J0D01*
G01*
X72842000Y-50754500D01*
G75*
G02*
X73202000Y-51114500I0J-360000D01*
G01*
X73202000Y-52394500D01*
G75*
G02*
X72842000Y-52754500I-360000J0D01*
G01*
X72662000Y-52754500D01*
G75*
G02*
X72302000Y-52394500I0J360000D01*
G01*
G37*
G36*
G01*
X79452000Y-48944500D02*
X79452000Y-47664500D01*
G75*
G02*
X79812000Y-47304500I360000J0D01*
G01*
X79992000Y-47304500D01*
G75*
G02*
X80352000Y-47664500I0J-360000D01*
G01*
X80352000Y-48944500D01*
G75*
G02*
X79992000Y-49304500I-360000J0D01*
G01*
X79812000Y-49304500D01*
G75*
G02*
X79452000Y-48944500I0J360000D01*
G01*
G37*
G36*
G01*
X79452000Y-52304500D02*
X79452000Y-51204500D01*
G75*
G02*
X79902000Y-50754500I450000J0D01*
G01*
X79902000Y-50754500D01*
G75*
G02*
X80352000Y-51204500I0J-450000D01*
G01*
X80352000Y-52304500D01*
G75*
G02*
X79902000Y-52754500I-450000J0D01*
G01*
X79902000Y-52754500D01*
G75*
G02*
X79452000Y-52304500I0J450000D01*
G01*
G37*
D20*
G36*
X83858000Y-19506500D02*
G01*
X84358000Y-19506500D01*
X84358000Y-19507102D01*
X84382534Y-19507102D01*
X84431365Y-19511912D01*
X84479490Y-19521484D01*
X84526445Y-19535728D01*
X84571778Y-19554505D01*
X84615051Y-19577636D01*
X84655850Y-19604896D01*
X84693779Y-19636024D01*
X84728476Y-19670721D01*
X84759604Y-19708650D01*
X84786864Y-19749449D01*
X84809995Y-19792722D01*
X84828772Y-19838055D01*
X84843016Y-19885010D01*
X84852588Y-19933135D01*
X84857398Y-19981966D01*
X84857398Y-20006500D01*
X84858000Y-20006500D01*
X84858000Y-20506500D01*
X84857398Y-20506500D01*
X84857398Y-20531034D01*
X84852588Y-20579865D01*
X84843016Y-20627990D01*
X84828772Y-20674945D01*
X84809995Y-20720278D01*
X84786864Y-20763551D01*
X84759604Y-20804350D01*
X84728476Y-20842279D01*
X84693779Y-20876976D01*
X84655850Y-20908104D01*
X84615051Y-20935364D01*
X84571778Y-20958495D01*
X84526445Y-20977272D01*
X84479490Y-20991516D01*
X84431365Y-21001088D01*
X84382534Y-21005898D01*
X84358000Y-21005898D01*
X84358000Y-21006500D01*
X83858000Y-21006500D01*
X83858000Y-19506500D01*
G37*
G36*
X83058000Y-21005898D02*
G01*
X83033466Y-21005898D01*
X82984635Y-21001088D01*
X82936510Y-20991516D01*
X82889555Y-20977272D01*
X82844222Y-20958495D01*
X82800949Y-20935364D01*
X82760150Y-20908104D01*
X82722221Y-20876976D01*
X82687524Y-20842279D01*
X82656396Y-20804350D01*
X82629136Y-20763551D01*
X82606005Y-20720278D01*
X82587228Y-20674945D01*
X82572984Y-20627990D01*
X82563412Y-20579865D01*
X82558602Y-20531034D01*
X82558602Y-20506500D01*
X82558000Y-20506500D01*
X82558000Y-20006500D01*
X82558602Y-20006500D01*
X82558602Y-19981966D01*
X82563412Y-19933135D01*
X82572984Y-19885010D01*
X82587228Y-19838055D01*
X82606005Y-19792722D01*
X82629136Y-19749449D01*
X82656396Y-19708650D01*
X82687524Y-19670721D01*
X82722221Y-19636024D01*
X82760150Y-19604896D01*
X82800949Y-19577636D01*
X82844222Y-19554505D01*
X82889555Y-19535728D01*
X82936510Y-19521484D01*
X82984635Y-19511912D01*
X83033466Y-19507102D01*
X83058000Y-19507102D01*
X83058000Y-19506500D01*
X83558000Y-19506500D01*
X83558000Y-21006500D01*
X83058000Y-21006500D01*
X83058000Y-21005898D01*
G37*
G36*
G01*
X83709500Y-36279000D02*
X84184500Y-36279000D01*
G75*
G02*
X84422000Y-36516500I0J-237500D01*
G01*
X84422000Y-37016500D01*
G75*
G02*
X84184500Y-37254000I-237500J0D01*
G01*
X83709500Y-37254000D01*
G75*
G02*
X83472000Y-37016500I0J237500D01*
G01*
X83472000Y-36516500D01*
G75*
G02*
X83709500Y-36279000I237500J0D01*
G01*
G37*
G36*
G01*
X83709500Y-34454000D02*
X84184500Y-34454000D01*
G75*
G02*
X84422000Y-34691500I0J-237500D01*
G01*
X84422000Y-35191500D01*
G75*
G02*
X84184500Y-35429000I-237500J0D01*
G01*
X83709500Y-35429000D01*
G75*
G02*
X83472000Y-35191500I0J237500D01*
G01*
X83472000Y-34691500D01*
G75*
G02*
X83709500Y-34454000I237500J0D01*
G01*
G37*
G36*
G01*
X74913500Y-32578500D02*
X74438500Y-32578500D01*
G75*
G02*
X74201000Y-32341000I0J237500D01*
G01*
X74201000Y-31841000D01*
G75*
G02*
X74438500Y-31603500I237500J0D01*
G01*
X74913500Y-31603500D01*
G75*
G02*
X75151000Y-31841000I0J-237500D01*
G01*
X75151000Y-32341000D01*
G75*
G02*
X74913500Y-32578500I-237500J0D01*
G01*
G37*
G36*
G01*
X74913500Y-30753500D02*
X74438500Y-30753500D01*
G75*
G02*
X74201000Y-30516000I0J237500D01*
G01*
X74201000Y-30016000D01*
G75*
G02*
X74438500Y-29778500I237500J0D01*
G01*
X74913500Y-29778500D01*
G75*
G02*
X75151000Y-30016000I0J-237500D01*
G01*
X75151000Y-30516000D01*
G75*
G02*
X74913500Y-30753500I-237500J0D01*
G01*
G37*
G36*
G01*
X74438500Y-36279000D02*
X74913500Y-36279000D01*
G75*
G02*
X75151000Y-36516500I0J-237500D01*
G01*
X75151000Y-37016500D01*
G75*
G02*
X74913500Y-37254000I-237500J0D01*
G01*
X74438500Y-37254000D01*
G75*
G02*
X74201000Y-37016500I0J237500D01*
G01*
X74201000Y-36516500D01*
G75*
G02*
X74438500Y-36279000I237500J0D01*
G01*
G37*
G36*
G01*
X74438500Y-34454000D02*
X74913500Y-34454000D01*
G75*
G02*
X75151000Y-34691500I0J-237500D01*
G01*
X75151000Y-35191500D01*
G75*
G02*
X74913500Y-35429000I-237500J0D01*
G01*
X74438500Y-35429000D01*
G75*
G02*
X74201000Y-35191500I0J237500D01*
G01*
X74201000Y-34691500D01*
G75*
G02*
X74438500Y-34454000I237500J0D01*
G01*
G37*
G36*
G01*
X76851500Y-29802000D02*
X77326500Y-29802000D01*
G75*
G02*
X77564000Y-30039500I0J-237500D01*
G01*
X77564000Y-30539500D01*
G75*
G02*
X77326500Y-30777000I-237500J0D01*
G01*
X76851500Y-30777000D01*
G75*
G02*
X76614000Y-30539500I0J237500D01*
G01*
X76614000Y-30039500D01*
G75*
G02*
X76851500Y-29802000I237500J0D01*
G01*
G37*
G36*
G01*
X76851500Y-31627000D02*
X77326500Y-31627000D01*
G75*
G02*
X77564000Y-31864500I0J-237500D01*
G01*
X77564000Y-32364500D01*
G75*
G02*
X77326500Y-32602000I-237500J0D01*
G01*
X76851500Y-32602000D01*
G75*
G02*
X76614000Y-32364500I0J237500D01*
G01*
X76614000Y-31864500D01*
G75*
G02*
X76851500Y-31627000I237500J0D01*
G01*
G37*
G36*
G01*
X82316500Y-17128500D02*
X82316500Y-16653500D01*
G75*
G02*
X82554000Y-16416000I237500J0D01*
G01*
X83054000Y-16416000D01*
G75*
G02*
X83291500Y-16653500I0J-237500D01*
G01*
X83291500Y-17128500D01*
G75*
G02*
X83054000Y-17366000I-237500J0D01*
G01*
X82554000Y-17366000D01*
G75*
G02*
X82316500Y-17128500I0J237500D01*
G01*
G37*
G36*
G01*
X84141500Y-17128500D02*
X84141500Y-16653500D01*
G75*
G02*
X84379000Y-16416000I237500J0D01*
G01*
X84879000Y-16416000D01*
G75*
G02*
X85116500Y-16653500I0J-237500D01*
G01*
X85116500Y-17128500D01*
G75*
G02*
X84879000Y-17366000I-237500J0D01*
G01*
X84379000Y-17366000D01*
G75*
G02*
X84141500Y-17128500I0J237500D01*
G01*
G37*
D21*
X84366000Y-10078500D03*
X84366000Y-14178500D03*
X82766000Y-10078500D03*
X82766000Y-14178500D03*
D22*
X79375000Y-37211000D03*
X80325000Y-37211000D03*
X81275000Y-37211000D03*
X81275000Y-35011000D03*
X79375000Y-35011000D03*
D23*
X79695000Y-32178500D03*
X81595000Y-32178500D03*
X80645000Y-30178500D03*
D24*
X51244500Y-44386500D03*
D25*
X51244500Y-31686500D03*
X66484500Y-31686500D03*
D26*
X66484500Y-34226500D03*
D27*
X58864500Y-37846508D03*
D28*
X49864518Y-44386500D03*
X49864518Y-41846500D03*
X49864518Y-39306500D03*
X49864518Y-36766500D03*
X49864518Y-34226500D03*
X49864518Y-31686500D03*
D29*
X55054500Y-29846524D03*
X57594500Y-29846524D03*
X60134500Y-29846524D03*
X62674500Y-29846524D03*
D28*
X67864482Y-31686500D03*
X67864482Y-34226500D03*
X67864482Y-36766500D03*
X67864482Y-39306500D03*
X67864482Y-41846500D03*
X67864482Y-44386500D03*
X67864482Y-52006500D03*
X67864482Y-49466500D03*
X67864482Y-46926500D03*
M02*
