G04 #@! TF.GenerationSoftware,KiCad,Pcbnew,5.1.10-88a1d61d58~90~ubuntu20.04.1*
G04 #@! TF.CreationDate,2021-10-07T18:37:15+08:00*
G04 #@! TF.ProjectId,Ada_Ticker,4164615f-5469-4636-9b65-722e6b696361,rev?*
G04 #@! TF.SameCoordinates,Original*
G04 #@! TF.FileFunction,Paste,Top*
G04 #@! TF.FilePolarity,Positive*
%FSLAX46Y46*%
G04 Gerber Fmt 4.6, Leading zero omitted, Abs format (unit mm)*
G04 Created by KiCad (PCBNEW 5.1.10-88a1d61d58~90~ubuntu20.04.1) date 2021-10-07 18:37:15*
%MOMM*%
%LPD*%
G01*
G04 APERTURE LIST*
%ADD10R,2.000000X0.350000*%
%ADD11R,0.400000X1.850000*%
%ADD12R,1.000000X0.900000*%
%ADD13R,0.650000X1.060000*%
%ADD14R,0.800000X0.900000*%
%ADD15R,1.999996X1.199998*%
%ADD16R,1.199998X1.999996*%
G04 APERTURE END LIST*
D10*
X65953500Y-7226500D03*
X65953500Y-7926500D03*
X65953500Y-8626500D03*
X65953500Y-9326500D03*
X65953500Y-10026500D03*
X65953500Y-10726500D03*
X65953500Y-11426500D03*
X65953500Y-12126500D03*
X65953500Y-12826500D03*
X65953500Y-13526500D03*
X65953500Y-14226500D03*
X65953500Y-14926500D03*
G36*
G01*
X76661000Y-34504000D02*
X77136000Y-34504000D01*
G75*
G02*
X77373500Y-34741500I0J-237500D01*
G01*
X77373500Y-35341500D01*
G75*
G02*
X77136000Y-35579000I-237500J0D01*
G01*
X76661000Y-35579000D01*
G75*
G02*
X76423500Y-35341500I0J237500D01*
G01*
X76423500Y-34741500D01*
G75*
G02*
X76661000Y-34504000I237500J0D01*
G01*
G37*
G36*
G01*
X76661000Y-36229000D02*
X77136000Y-36229000D01*
G75*
G02*
X77373500Y-36466500I0J-237500D01*
G01*
X77373500Y-37066500D01*
G75*
G02*
X77136000Y-37304000I-237500J0D01*
G01*
X76661000Y-37304000D01*
G75*
G02*
X76423500Y-37066500I0J237500D01*
G01*
X76423500Y-36466500D01*
G75*
G02*
X76661000Y-36229000I237500J0D01*
G01*
G37*
D11*
X75027000Y-48704500D03*
X75677000Y-48704500D03*
X76327000Y-48704500D03*
X76977000Y-48704500D03*
X77627000Y-48704500D03*
G36*
G01*
X83709500Y-36279000D02*
X84184500Y-36279000D01*
G75*
G02*
X84422000Y-36516500I0J-237500D01*
G01*
X84422000Y-37016500D01*
G75*
G02*
X84184500Y-37254000I-237500J0D01*
G01*
X83709500Y-37254000D01*
G75*
G02*
X83472000Y-37016500I0J237500D01*
G01*
X83472000Y-36516500D01*
G75*
G02*
X83709500Y-36279000I237500J0D01*
G01*
G37*
G36*
G01*
X83709500Y-34454000D02*
X84184500Y-34454000D01*
G75*
G02*
X84422000Y-34691500I0J-237500D01*
G01*
X84422000Y-35191500D01*
G75*
G02*
X84184500Y-35429000I-237500J0D01*
G01*
X83709500Y-35429000D01*
G75*
G02*
X83472000Y-35191500I0J237500D01*
G01*
X83472000Y-34691500D01*
G75*
G02*
X83709500Y-34454000I237500J0D01*
G01*
G37*
G36*
G01*
X74913500Y-32578500D02*
X74438500Y-32578500D01*
G75*
G02*
X74201000Y-32341000I0J237500D01*
G01*
X74201000Y-31841000D01*
G75*
G02*
X74438500Y-31603500I237500J0D01*
G01*
X74913500Y-31603500D01*
G75*
G02*
X75151000Y-31841000I0J-237500D01*
G01*
X75151000Y-32341000D01*
G75*
G02*
X74913500Y-32578500I-237500J0D01*
G01*
G37*
G36*
G01*
X74913500Y-30753500D02*
X74438500Y-30753500D01*
G75*
G02*
X74201000Y-30516000I0J237500D01*
G01*
X74201000Y-30016000D01*
G75*
G02*
X74438500Y-29778500I237500J0D01*
G01*
X74913500Y-29778500D01*
G75*
G02*
X75151000Y-30016000I0J-237500D01*
G01*
X75151000Y-30516000D01*
G75*
G02*
X74913500Y-30753500I-237500J0D01*
G01*
G37*
G36*
G01*
X74438500Y-36279000D02*
X74913500Y-36279000D01*
G75*
G02*
X75151000Y-36516500I0J-237500D01*
G01*
X75151000Y-37016500D01*
G75*
G02*
X74913500Y-37254000I-237500J0D01*
G01*
X74438500Y-37254000D01*
G75*
G02*
X74201000Y-37016500I0J237500D01*
G01*
X74201000Y-36516500D01*
G75*
G02*
X74438500Y-36279000I237500J0D01*
G01*
G37*
G36*
G01*
X74438500Y-34454000D02*
X74913500Y-34454000D01*
G75*
G02*
X75151000Y-34691500I0J-237500D01*
G01*
X75151000Y-35191500D01*
G75*
G02*
X74913500Y-35429000I-237500J0D01*
G01*
X74438500Y-35429000D01*
G75*
G02*
X74201000Y-35191500I0J237500D01*
G01*
X74201000Y-34691500D01*
G75*
G02*
X74438500Y-34454000I237500J0D01*
G01*
G37*
G36*
G01*
X76851500Y-29802000D02*
X77326500Y-29802000D01*
G75*
G02*
X77564000Y-30039500I0J-237500D01*
G01*
X77564000Y-30539500D01*
G75*
G02*
X77326500Y-30777000I-237500J0D01*
G01*
X76851500Y-30777000D01*
G75*
G02*
X76614000Y-30539500I0J237500D01*
G01*
X76614000Y-30039500D01*
G75*
G02*
X76851500Y-29802000I237500J0D01*
G01*
G37*
G36*
G01*
X76851500Y-31627000D02*
X77326500Y-31627000D01*
G75*
G02*
X77564000Y-31864500I0J-237500D01*
G01*
X77564000Y-32364500D01*
G75*
G02*
X77326500Y-32602000I-237500J0D01*
G01*
X76851500Y-32602000D01*
G75*
G02*
X76614000Y-32364500I0J237500D01*
G01*
X76614000Y-31864500D01*
G75*
G02*
X76851500Y-31627000I237500J0D01*
G01*
G37*
G36*
G01*
X82316500Y-17128500D02*
X82316500Y-16653500D01*
G75*
G02*
X82554000Y-16416000I237500J0D01*
G01*
X83054000Y-16416000D01*
G75*
G02*
X83291500Y-16653500I0J-237500D01*
G01*
X83291500Y-17128500D01*
G75*
G02*
X83054000Y-17366000I-237500J0D01*
G01*
X82554000Y-17366000D01*
G75*
G02*
X82316500Y-17128500I0J237500D01*
G01*
G37*
G36*
G01*
X84141500Y-17128500D02*
X84141500Y-16653500D01*
G75*
G02*
X84379000Y-16416000I237500J0D01*
G01*
X84879000Y-16416000D01*
G75*
G02*
X85116500Y-16653500I0J-237500D01*
G01*
X85116500Y-17128500D01*
G75*
G02*
X84879000Y-17366000I-237500J0D01*
G01*
X84379000Y-17366000D01*
G75*
G02*
X84141500Y-17128500I0J237500D01*
G01*
G37*
D12*
X84366000Y-10078500D03*
X84366000Y-14178500D03*
X82766000Y-10078500D03*
X82766000Y-14178500D03*
D13*
X79375000Y-37211000D03*
X80325000Y-37211000D03*
X81275000Y-37211000D03*
X81275000Y-35011000D03*
X79375000Y-35011000D03*
D14*
X79695000Y-32178500D03*
X81595000Y-32178500D03*
X80645000Y-30178500D03*
D15*
X49864518Y-44386500D03*
X49864518Y-41846500D03*
X49864518Y-39306500D03*
X49864518Y-36766500D03*
X49864518Y-34226500D03*
X49864518Y-31686500D03*
D16*
X55054500Y-29846524D03*
X57594500Y-29846524D03*
X60134500Y-29846524D03*
X62674500Y-29846524D03*
D15*
X67864482Y-31686500D03*
X67864482Y-34226500D03*
X67864482Y-36766500D03*
X67864482Y-39306500D03*
X67864482Y-41846500D03*
X67864482Y-44386500D03*
X67864482Y-52006500D03*
X67864482Y-49466500D03*
X67864482Y-46926500D03*
M02*
