G04 #@! TF.GenerationSoftware,KiCad,Pcbnew,5.1.10-88a1d61d58~90~ubuntu20.04.1*
G04 #@! TF.CreationDate,2021-10-07T18:37:15+08:00*
G04 #@! TF.ProjectId,Ada_Ticker,4164615f-5469-4636-9b65-722e6b696361,rev?*
G04 #@! TF.SameCoordinates,Original*
G04 #@! TF.FileFunction,Copper,L2,Bot*
G04 #@! TF.FilePolarity,Positive*
%FSLAX46Y46*%
G04 Gerber Fmt 4.6, Leading zero omitted, Abs format (unit mm)*
G04 Created by KiCad (PCBNEW 5.1.10-88a1d61d58~90~ubuntu20.04.1) date 2021-10-07 18:37:15*
%MOMM*%
%LPD*%
G01*
G04 APERTURE LIST*
G04 #@! TA.AperFunction,ComponentPad*
%ADD10R,1.299997X1.299997*%
G04 #@! TD*
G04 #@! TA.AperFunction,ComponentPad*
%ADD11O,1.399997X1.299997*%
G04 #@! TD*
G04 #@! TA.AperFunction,ComponentPad*
%ADD12R,1.399997X1.299997*%
G04 #@! TD*
G04 #@! TA.AperFunction,ComponentPad*
%ADD13C,1.999996*%
G04 #@! TD*
G04 #@! TA.AperFunction,ViaPad*
%ADD14C,0.800000*%
G04 #@! TD*
G04 #@! TA.AperFunction,Conductor*
%ADD15C,0.500000*%
G04 #@! TD*
G04 #@! TA.AperFunction,Conductor*
%ADD16C,0.250000*%
G04 #@! TD*
G04 #@! TA.AperFunction,Conductor*
%ADD17C,0.254000*%
G04 #@! TD*
G04 #@! TA.AperFunction,Conductor*
%ADD18C,0.100000*%
G04 #@! TD*
G04 APERTURE END LIST*
G04 #@! TA.AperFunction,ComponentPad*
G36*
G01*
X72302000Y-48944500D02*
X72302000Y-47664500D01*
G75*
G02*
X72662000Y-47304500I360000J0D01*
G01*
X72842000Y-47304500D01*
G75*
G02*
X73202000Y-47664500I0J-360000D01*
G01*
X73202000Y-48944500D01*
G75*
G02*
X72842000Y-49304500I-360000J0D01*
G01*
X72662000Y-49304500D01*
G75*
G02*
X72302000Y-48944500I0J360000D01*
G01*
G37*
G04 #@! TD.AperFunction*
G04 #@! TA.AperFunction,ComponentPad*
G36*
G01*
X72302000Y-52394500D02*
X72302000Y-51114500D01*
G75*
G02*
X72662000Y-50754500I360000J0D01*
G01*
X72842000Y-50754500D01*
G75*
G02*
X73202000Y-51114500I0J-360000D01*
G01*
X73202000Y-52394500D01*
G75*
G02*
X72842000Y-52754500I-360000J0D01*
G01*
X72662000Y-52754500D01*
G75*
G02*
X72302000Y-52394500I0J360000D01*
G01*
G37*
G04 #@! TD.AperFunction*
G04 #@! TA.AperFunction,ComponentPad*
G36*
G01*
X79452000Y-48944500D02*
X79452000Y-47664500D01*
G75*
G02*
X79812000Y-47304500I360000J0D01*
G01*
X79992000Y-47304500D01*
G75*
G02*
X80352000Y-47664500I0J-360000D01*
G01*
X80352000Y-48944500D01*
G75*
G02*
X79992000Y-49304500I-360000J0D01*
G01*
X79812000Y-49304500D01*
G75*
G02*
X79452000Y-48944500I0J360000D01*
G01*
G37*
G04 #@! TD.AperFunction*
G04 #@! TA.AperFunction,ComponentPad*
G36*
G01*
X79452000Y-52304500D02*
X79452000Y-51204500D01*
G75*
G02*
X79902000Y-50754500I450000J0D01*
G01*
X79902000Y-50754500D01*
G75*
G02*
X80352000Y-51204500I0J-450000D01*
G01*
X80352000Y-52304500D01*
G75*
G02*
X79902000Y-52754500I-450000J0D01*
G01*
X79902000Y-52754500D01*
G75*
G02*
X79452000Y-52304500I0J450000D01*
G01*
G37*
G04 #@! TD.AperFunction*
D10*
X51244500Y-44386500D03*
D11*
X51244500Y-31686500D03*
X66484500Y-31686500D03*
D12*
X66484500Y-34226500D03*
D13*
X58864500Y-37846508D03*
D14*
X72072500Y-29527500D03*
X82804000Y-29146500D03*
X62738000Y-33210500D03*
X80327500Y-38671500D03*
X62992000Y-14986000D03*
X68135500Y-14986000D03*
X61214000Y-15049500D03*
X59372500Y-15049500D03*
X59372500Y-13271500D03*
X61150500Y-13271500D03*
X62992000Y-13335000D03*
X62992000Y-11684000D03*
X61150500Y-11557000D03*
X59372500Y-11557000D03*
X84709000Y-33718500D03*
X84010500Y-24320500D03*
X82740500Y-8128000D03*
X84391500Y-8128000D03*
X68135500Y-16891000D03*
X68135500Y-18923000D03*
X66484500Y-18986500D03*
X66484500Y-16954500D03*
X66484500Y-20637500D03*
X68135500Y-20764500D03*
X81407000Y-42037000D03*
X82867500Y-41973500D03*
X84137500Y-41973500D03*
X84137500Y-43561000D03*
X82867500Y-43561000D03*
X81407000Y-43561000D03*
X81407000Y-44958000D03*
X82931000Y-44958000D03*
X84137500Y-45021500D03*
X84772500Y-22034500D03*
X84772500Y-23431500D03*
X55372000Y-42608500D03*
X55372000Y-40767000D03*
X57086500Y-40703500D03*
X57086500Y-42672000D03*
X71310500Y-35179000D03*
X71310500Y-33147000D03*
X68516500Y-7937500D03*
X72390000Y-12192000D03*
X72961500Y-27686000D03*
X65532000Y-27686000D03*
X47498000Y-34226500D03*
X82423000Y-26225500D03*
X72712153Y-45026153D03*
X69088000Y-13843000D03*
X68516500Y-12192000D03*
X72771000Y-42926000D03*
X72717966Y-44004339D03*
X69559597Y-12926903D03*
D15*
X82023001Y-29927499D02*
X82804000Y-29146500D01*
X72472499Y-29927499D02*
X82023001Y-29927499D01*
X72072500Y-29527500D02*
X72472499Y-29927499D01*
X64262000Y-31686500D02*
X62738000Y-33210500D01*
X66484500Y-31686500D02*
X64262000Y-31686500D01*
X80327500Y-38671500D02*
X79902000Y-39097000D01*
X75202000Y-51754500D02*
X79902000Y-51754500D01*
X72752000Y-49304500D02*
X75202000Y-51754500D01*
X72752000Y-48304500D02*
X72752000Y-49304500D01*
X62992000Y-14986000D02*
X68135500Y-14986000D01*
X61214000Y-15049500D02*
X59372500Y-15049500D01*
X59372500Y-13271500D02*
X61150500Y-13271500D01*
X61150500Y-11557000D02*
X59372500Y-11557000D01*
X84709000Y-33718500D02*
X84709000Y-46672500D01*
X83077000Y-48304500D02*
X79902000Y-48304500D01*
X84709000Y-46672500D02*
X83077000Y-48304500D01*
X84010500Y-27940000D02*
X84010500Y-24320500D01*
X82804000Y-29146500D02*
X84010500Y-27940000D01*
X82740500Y-8128000D02*
X84391500Y-8128000D01*
X84391500Y-8128000D02*
X84010500Y-8509000D01*
X83610501Y-8908999D02*
X84010500Y-8509000D01*
X83610501Y-23920501D02*
X83610501Y-8908999D01*
X84010500Y-24320500D02*
X83610501Y-23920501D01*
X66484500Y-18986500D02*
X66484500Y-16954500D01*
X68008500Y-20637500D02*
X68135500Y-20764500D01*
X66484500Y-20637500D02*
X68008500Y-20637500D01*
X81388000Y-42056000D02*
X81407000Y-42037000D01*
X79902000Y-42056000D02*
X81388000Y-42056000D01*
X79902000Y-39097000D02*
X79902000Y-42056000D01*
X79902000Y-42056000D02*
X79902000Y-48304500D01*
X82867500Y-41973500D02*
X84137500Y-41973500D01*
X84137500Y-43561000D02*
X82867500Y-43561000D01*
X81407000Y-43561000D02*
X81407000Y-44958000D01*
X84074000Y-44958000D02*
X84137500Y-45021500D01*
X82931000Y-44958000D02*
X84074000Y-44958000D01*
X84772500Y-23431500D02*
X84772500Y-22034500D01*
X55372000Y-42608500D02*
X55372000Y-40767000D01*
X57086500Y-40703500D02*
X57086500Y-42672000D01*
X55372000Y-42418000D02*
X55372000Y-42608500D01*
X57086500Y-40703500D02*
X55372000Y-42418000D01*
X57086500Y-42481500D02*
X57086500Y-42672000D01*
X55372000Y-40767000D02*
X57086500Y-42481500D01*
X57531000Y-43116500D02*
X57086500Y-42672000D01*
X73279000Y-34226500D02*
X72834500Y-34671000D01*
X72834500Y-34671000D02*
X72834500Y-36703000D01*
X72834500Y-36703000D02*
X73533000Y-37401500D01*
X73533000Y-37401500D02*
X73533000Y-42037000D01*
X73621001Y-42125001D02*
X73621001Y-45375307D01*
X73533000Y-42037000D02*
X73621001Y-42125001D01*
X73621001Y-45375307D02*
X73120154Y-45876154D01*
X73120154Y-45876154D02*
X72304152Y-45876154D01*
X72304152Y-45876154D02*
X70739000Y-44311002D01*
X70739000Y-44311002D02*
X70739000Y-43815000D01*
X70739000Y-43815000D02*
X70040500Y-43116500D01*
X70040500Y-43116500D02*
X57531000Y-43116500D01*
X84860501Y-32106499D02*
X82740500Y-34226500D01*
X84860501Y-23912499D02*
X84860501Y-32106499D01*
X84772500Y-23824498D02*
X84860501Y-23912499D01*
X84772500Y-23431500D02*
X84772500Y-23824498D01*
X82740500Y-34226500D02*
X73279000Y-34226500D01*
D16*
X71310500Y-35179000D02*
X71310500Y-33147000D01*
X69151500Y-7937500D02*
X68516500Y-7937500D01*
X70548500Y-7937500D02*
X69151500Y-7937500D01*
X72390000Y-12192000D02*
X72390000Y-8445500D01*
X71882000Y-7937500D02*
X70548500Y-7937500D01*
X72390000Y-8445500D02*
X71882000Y-7937500D01*
X82423000Y-27114500D02*
X81851500Y-27686000D01*
X81851500Y-27686000D02*
X72961500Y-27686000D01*
X65532000Y-27686000D02*
X55054500Y-27686000D01*
X55054500Y-27686000D02*
X54102000Y-28638500D01*
X54102000Y-28638500D02*
X54102000Y-33591500D01*
X53467000Y-34226500D02*
X47498000Y-34226500D01*
X54102000Y-33591500D02*
X53467000Y-34226500D01*
X82423000Y-27114500D02*
X82423000Y-26225500D01*
X71595989Y-43909989D02*
X71595990Y-42391598D01*
X72712153Y-45026153D02*
X71595989Y-43909989D01*
X71595990Y-42391598D02*
X71870980Y-42116608D01*
X71870980Y-42116608D02*
X71870980Y-38663300D01*
X71870980Y-38663300D02*
X69648480Y-36440800D01*
X69648480Y-36440800D02*
X69648480Y-29591000D01*
X69648480Y-14403480D02*
X69088000Y-13843000D01*
X69648480Y-29591000D02*
X69648480Y-14403480D01*
X69850000Y-12192000D02*
X68516500Y-12192000D01*
X70548500Y-12890500D02*
X69850000Y-12192000D01*
X72771000Y-38290500D02*
X70548500Y-36068000D01*
X70548500Y-36068000D02*
X70548500Y-12890500D01*
X72771000Y-42926000D02*
X72771000Y-38290500D01*
X72045999Y-42577999D02*
X72320990Y-42303008D01*
X72045999Y-43332372D02*
X72045999Y-42577999D01*
X72717966Y-44004339D02*
X72045999Y-43332372D01*
X72320990Y-42303008D02*
X72320990Y-38476900D01*
X72320990Y-38476900D02*
X70098490Y-36254400D01*
X70098490Y-13465796D02*
X69559597Y-12926903D01*
X70098490Y-36254400D02*
X70098490Y-13465796D01*
D17*
X84940001Y-50792712D02*
X84888998Y-51312883D01*
X84747307Y-51782186D01*
X84517161Y-52215028D01*
X84207323Y-52594927D01*
X83829600Y-52907406D01*
X83398373Y-53140569D01*
X82930073Y-53285532D01*
X82411847Y-53340000D01*
X80218658Y-53340000D01*
X80318388Y-53309747D01*
X80506501Y-53209199D01*
X80671384Y-53073883D01*
X80806700Y-52909000D01*
X80907248Y-52720887D01*
X80969166Y-52516772D01*
X80990073Y-52304500D01*
X80990073Y-51204500D01*
X80969166Y-50992228D01*
X80907248Y-50788113D01*
X80806700Y-50600000D01*
X80671384Y-50435117D01*
X80506501Y-50299801D01*
X80318388Y-50199253D01*
X80114273Y-50137335D01*
X79902001Y-50116428D01*
X79901999Y-50116428D01*
X79689727Y-50137335D01*
X79485612Y-50199253D01*
X79297499Y-50299801D01*
X79132616Y-50435117D01*
X78997300Y-50600000D01*
X78896752Y-50788113D01*
X78834834Y-50992228D01*
X78813927Y-51204500D01*
X78813927Y-52304500D01*
X78834834Y-52516772D01*
X78896752Y-52720887D01*
X78997300Y-52909000D01*
X79132616Y-53073883D01*
X79297499Y-53209199D01*
X79485612Y-53309747D01*
X79585342Y-53340000D01*
X73146800Y-53340000D01*
X73223946Y-53316598D01*
X73396499Y-53224367D01*
X73547743Y-53100243D01*
X73671867Y-52948999D01*
X73764098Y-52776446D01*
X73820894Y-52589214D01*
X73840072Y-52394500D01*
X73840072Y-51114500D01*
X73820894Y-50919786D01*
X73764098Y-50732554D01*
X73671867Y-50560001D01*
X73547743Y-50408757D01*
X73396499Y-50284633D01*
X73223946Y-50192402D01*
X73036714Y-50135606D01*
X72842000Y-50116428D01*
X72662000Y-50116428D01*
X72467286Y-50135606D01*
X72280054Y-50192402D01*
X72107501Y-50284633D01*
X71956257Y-50408757D01*
X71832133Y-50560001D01*
X71739902Y-50732554D01*
X71683106Y-50919786D01*
X71663928Y-51114500D01*
X71663928Y-52394500D01*
X71683106Y-52589214D01*
X71739902Y-52776446D01*
X71832133Y-52948999D01*
X71956257Y-53100243D01*
X72107501Y-53224367D01*
X72280054Y-53316598D01*
X72357200Y-53340000D01*
X69977000Y-53340000D01*
X69977000Y-44762798D01*
X69999589Y-44805060D01*
X70110183Y-44939819D01*
X70143956Y-44967536D01*
X71647622Y-46471203D01*
X71675335Y-46504971D01*
X71709103Y-46532684D01*
X71709105Y-46532686D01*
X71780604Y-46591364D01*
X71810093Y-46615565D01*
X71963839Y-46697743D01*
X72130662Y-46748349D01*
X72247415Y-46759848D01*
X72107501Y-46834633D01*
X71956257Y-46958757D01*
X71832133Y-47110001D01*
X71739902Y-47282554D01*
X71683106Y-47469786D01*
X71663928Y-47664500D01*
X71663928Y-48944500D01*
X71683106Y-49139214D01*
X71739902Y-49326446D01*
X71832133Y-49498999D01*
X71956257Y-49650243D01*
X72107501Y-49774367D01*
X72280054Y-49866598D01*
X72467286Y-49923394D01*
X72662000Y-49942572D01*
X72842000Y-49942572D01*
X73036714Y-49923394D01*
X73223946Y-49866598D01*
X73358079Y-49794903D01*
X73409795Y-49919756D01*
X73523063Y-50089274D01*
X73667226Y-50233437D01*
X73836744Y-50346705D01*
X74025102Y-50424726D01*
X74225061Y-50464500D01*
X74428939Y-50464500D01*
X74628898Y-50424726D01*
X74817256Y-50346705D01*
X74986774Y-50233437D01*
X75130937Y-50089274D01*
X75244205Y-49919756D01*
X75322226Y-49731398D01*
X75362000Y-49531439D01*
X75362000Y-49327561D01*
X77292000Y-49327561D01*
X77292000Y-49531439D01*
X77331774Y-49731398D01*
X77409795Y-49919756D01*
X77523063Y-50089274D01*
X77667226Y-50233437D01*
X77836744Y-50346705D01*
X78025102Y-50424726D01*
X78225061Y-50464500D01*
X78428939Y-50464500D01*
X78628898Y-50424726D01*
X78817256Y-50346705D01*
X78986774Y-50233437D01*
X79130937Y-50089274D01*
X79244205Y-49919756D01*
X79295921Y-49794903D01*
X79430054Y-49866598D01*
X79617286Y-49923394D01*
X79812000Y-49942572D01*
X79992000Y-49942572D01*
X80186714Y-49923394D01*
X80373946Y-49866598D01*
X80546499Y-49774367D01*
X80697743Y-49650243D01*
X80821867Y-49498999D01*
X80914098Y-49326446D01*
X80970894Y-49139214D01*
X80990072Y-48944500D01*
X80990072Y-47664500D01*
X80970894Y-47469786D01*
X80914098Y-47282554D01*
X80821867Y-47110001D01*
X80697743Y-46958757D01*
X80546499Y-46834633D01*
X80373946Y-46742402D01*
X80186714Y-46685606D01*
X79992000Y-46666428D01*
X79812000Y-46666428D01*
X79617286Y-46685606D01*
X79430054Y-46742402D01*
X79257501Y-46834633D01*
X79106257Y-46958757D01*
X78982133Y-47110001D01*
X78889902Y-47282554D01*
X78833106Y-47469786D01*
X78813928Y-47664500D01*
X78813928Y-48510916D01*
X78628898Y-48434274D01*
X78428939Y-48394500D01*
X78225061Y-48394500D01*
X78025102Y-48434274D01*
X77836744Y-48512295D01*
X77667226Y-48625563D01*
X77523063Y-48769726D01*
X77409795Y-48939244D01*
X77331774Y-49127602D01*
X77292000Y-49327561D01*
X75362000Y-49327561D01*
X75322226Y-49127602D01*
X75244205Y-48939244D01*
X75130937Y-48769726D01*
X74986774Y-48625563D01*
X74817256Y-48512295D01*
X74628898Y-48434274D01*
X74428939Y-48394500D01*
X74225061Y-48394500D01*
X74025102Y-48434274D01*
X73840072Y-48510916D01*
X73840072Y-47664500D01*
X73820894Y-47469786D01*
X73764098Y-47282554D01*
X73671867Y-47110001D01*
X73547743Y-46958757D01*
X73396499Y-46834633D01*
X73244185Y-46753220D01*
X73293644Y-46748349D01*
X73460467Y-46697743D01*
X73614213Y-46615565D01*
X73748971Y-46504971D01*
X73776688Y-46471198D01*
X74216045Y-46031841D01*
X74249818Y-46004124D01*
X74360412Y-45869366D01*
X74402925Y-45789829D01*
X74442590Y-45715621D01*
X74493196Y-45548797D01*
X74502884Y-45450428D01*
X74506001Y-45418784D01*
X74506001Y-45418776D01*
X74510282Y-45375307D01*
X74506001Y-45331838D01*
X74506001Y-42168466D01*
X74510282Y-42125000D01*
X74506001Y-42081534D01*
X74506001Y-42081524D01*
X74493196Y-41951511D01*
X74442590Y-41784688D01*
X74418000Y-41738683D01*
X74418000Y-37444965D01*
X74422281Y-37401499D01*
X74418000Y-37358033D01*
X74418000Y-37358023D01*
X74405195Y-37228010D01*
X74354589Y-37061187D01*
X74272411Y-36907441D01*
X74161817Y-36772683D01*
X74128050Y-36744971D01*
X73719500Y-36336422D01*
X73719500Y-35111500D01*
X82697031Y-35111500D01*
X82740500Y-35115781D01*
X82783969Y-35111500D01*
X82783977Y-35111500D01*
X82913990Y-35098695D01*
X83080813Y-35048089D01*
X83234559Y-34965911D01*
X83369317Y-34855317D01*
X83397034Y-34821544D01*
X84940001Y-33278578D01*
X84940001Y-50792712D01*
G04 #@! TA.AperFunction,Conductor*
D18*
G36*
X84940001Y-50792712D02*
G01*
X84888998Y-51312883D01*
X84747307Y-51782186D01*
X84517161Y-52215028D01*
X84207323Y-52594927D01*
X83829600Y-52907406D01*
X83398373Y-53140569D01*
X82930073Y-53285532D01*
X82411847Y-53340000D01*
X80218658Y-53340000D01*
X80318388Y-53309747D01*
X80506501Y-53209199D01*
X80671384Y-53073883D01*
X80806700Y-52909000D01*
X80907248Y-52720887D01*
X80969166Y-52516772D01*
X80990073Y-52304500D01*
X80990073Y-51204500D01*
X80969166Y-50992228D01*
X80907248Y-50788113D01*
X80806700Y-50600000D01*
X80671384Y-50435117D01*
X80506501Y-50299801D01*
X80318388Y-50199253D01*
X80114273Y-50137335D01*
X79902001Y-50116428D01*
X79901999Y-50116428D01*
X79689727Y-50137335D01*
X79485612Y-50199253D01*
X79297499Y-50299801D01*
X79132616Y-50435117D01*
X78997300Y-50600000D01*
X78896752Y-50788113D01*
X78834834Y-50992228D01*
X78813927Y-51204500D01*
X78813927Y-52304500D01*
X78834834Y-52516772D01*
X78896752Y-52720887D01*
X78997300Y-52909000D01*
X79132616Y-53073883D01*
X79297499Y-53209199D01*
X79485612Y-53309747D01*
X79585342Y-53340000D01*
X73146800Y-53340000D01*
X73223946Y-53316598D01*
X73396499Y-53224367D01*
X73547743Y-53100243D01*
X73671867Y-52948999D01*
X73764098Y-52776446D01*
X73820894Y-52589214D01*
X73840072Y-52394500D01*
X73840072Y-51114500D01*
X73820894Y-50919786D01*
X73764098Y-50732554D01*
X73671867Y-50560001D01*
X73547743Y-50408757D01*
X73396499Y-50284633D01*
X73223946Y-50192402D01*
X73036714Y-50135606D01*
X72842000Y-50116428D01*
X72662000Y-50116428D01*
X72467286Y-50135606D01*
X72280054Y-50192402D01*
X72107501Y-50284633D01*
X71956257Y-50408757D01*
X71832133Y-50560001D01*
X71739902Y-50732554D01*
X71683106Y-50919786D01*
X71663928Y-51114500D01*
X71663928Y-52394500D01*
X71683106Y-52589214D01*
X71739902Y-52776446D01*
X71832133Y-52948999D01*
X71956257Y-53100243D01*
X72107501Y-53224367D01*
X72280054Y-53316598D01*
X72357200Y-53340000D01*
X69977000Y-53340000D01*
X69977000Y-44762798D01*
X69999589Y-44805060D01*
X70110183Y-44939819D01*
X70143956Y-44967536D01*
X71647622Y-46471203D01*
X71675335Y-46504971D01*
X71709103Y-46532684D01*
X71709105Y-46532686D01*
X71780604Y-46591364D01*
X71810093Y-46615565D01*
X71963839Y-46697743D01*
X72130662Y-46748349D01*
X72247415Y-46759848D01*
X72107501Y-46834633D01*
X71956257Y-46958757D01*
X71832133Y-47110001D01*
X71739902Y-47282554D01*
X71683106Y-47469786D01*
X71663928Y-47664500D01*
X71663928Y-48944500D01*
X71683106Y-49139214D01*
X71739902Y-49326446D01*
X71832133Y-49498999D01*
X71956257Y-49650243D01*
X72107501Y-49774367D01*
X72280054Y-49866598D01*
X72467286Y-49923394D01*
X72662000Y-49942572D01*
X72842000Y-49942572D01*
X73036714Y-49923394D01*
X73223946Y-49866598D01*
X73358079Y-49794903D01*
X73409795Y-49919756D01*
X73523063Y-50089274D01*
X73667226Y-50233437D01*
X73836744Y-50346705D01*
X74025102Y-50424726D01*
X74225061Y-50464500D01*
X74428939Y-50464500D01*
X74628898Y-50424726D01*
X74817256Y-50346705D01*
X74986774Y-50233437D01*
X75130937Y-50089274D01*
X75244205Y-49919756D01*
X75322226Y-49731398D01*
X75362000Y-49531439D01*
X75362000Y-49327561D01*
X77292000Y-49327561D01*
X77292000Y-49531439D01*
X77331774Y-49731398D01*
X77409795Y-49919756D01*
X77523063Y-50089274D01*
X77667226Y-50233437D01*
X77836744Y-50346705D01*
X78025102Y-50424726D01*
X78225061Y-50464500D01*
X78428939Y-50464500D01*
X78628898Y-50424726D01*
X78817256Y-50346705D01*
X78986774Y-50233437D01*
X79130937Y-50089274D01*
X79244205Y-49919756D01*
X79295921Y-49794903D01*
X79430054Y-49866598D01*
X79617286Y-49923394D01*
X79812000Y-49942572D01*
X79992000Y-49942572D01*
X80186714Y-49923394D01*
X80373946Y-49866598D01*
X80546499Y-49774367D01*
X80697743Y-49650243D01*
X80821867Y-49498999D01*
X80914098Y-49326446D01*
X80970894Y-49139214D01*
X80990072Y-48944500D01*
X80990072Y-47664500D01*
X80970894Y-47469786D01*
X80914098Y-47282554D01*
X80821867Y-47110001D01*
X80697743Y-46958757D01*
X80546499Y-46834633D01*
X80373946Y-46742402D01*
X80186714Y-46685606D01*
X79992000Y-46666428D01*
X79812000Y-46666428D01*
X79617286Y-46685606D01*
X79430054Y-46742402D01*
X79257501Y-46834633D01*
X79106257Y-46958757D01*
X78982133Y-47110001D01*
X78889902Y-47282554D01*
X78833106Y-47469786D01*
X78813928Y-47664500D01*
X78813928Y-48510916D01*
X78628898Y-48434274D01*
X78428939Y-48394500D01*
X78225061Y-48394500D01*
X78025102Y-48434274D01*
X77836744Y-48512295D01*
X77667226Y-48625563D01*
X77523063Y-48769726D01*
X77409795Y-48939244D01*
X77331774Y-49127602D01*
X77292000Y-49327561D01*
X75362000Y-49327561D01*
X75322226Y-49127602D01*
X75244205Y-48939244D01*
X75130937Y-48769726D01*
X74986774Y-48625563D01*
X74817256Y-48512295D01*
X74628898Y-48434274D01*
X74428939Y-48394500D01*
X74225061Y-48394500D01*
X74025102Y-48434274D01*
X73840072Y-48510916D01*
X73840072Y-47664500D01*
X73820894Y-47469786D01*
X73764098Y-47282554D01*
X73671867Y-47110001D01*
X73547743Y-46958757D01*
X73396499Y-46834633D01*
X73244185Y-46753220D01*
X73293644Y-46748349D01*
X73460467Y-46697743D01*
X73614213Y-46615565D01*
X73748971Y-46504971D01*
X73776688Y-46471198D01*
X74216045Y-46031841D01*
X74249818Y-46004124D01*
X74360412Y-45869366D01*
X74402925Y-45789829D01*
X74442590Y-45715621D01*
X74493196Y-45548797D01*
X74502884Y-45450428D01*
X74506001Y-45418784D01*
X74506001Y-45418776D01*
X74510282Y-45375307D01*
X74506001Y-45331838D01*
X74506001Y-42168466D01*
X74510282Y-42125000D01*
X74506001Y-42081534D01*
X74506001Y-42081524D01*
X74493196Y-41951511D01*
X74442590Y-41784688D01*
X74418000Y-41738683D01*
X74418000Y-37444965D01*
X74422281Y-37401499D01*
X74418000Y-37358033D01*
X74418000Y-37358023D01*
X74405195Y-37228010D01*
X74354589Y-37061187D01*
X74272411Y-36907441D01*
X74161817Y-36772683D01*
X74128050Y-36744971D01*
X73719500Y-36336422D01*
X73719500Y-35111500D01*
X82697031Y-35111500D01*
X82740500Y-35115781D01*
X82783969Y-35111500D01*
X82783977Y-35111500D01*
X82913990Y-35098695D01*
X83080813Y-35048089D01*
X83234559Y-34965911D01*
X83369317Y-34855317D01*
X83397034Y-34821544D01*
X84940001Y-33278578D01*
X84940001Y-50792712D01*
G37*
G04 #@! TD.AperFunction*
D17*
X79740550Y-759617D02*
X79727807Y-889000D01*
X79731000Y-921419D01*
X79731001Y-26891571D01*
X79727807Y-26924000D01*
X79728004Y-26926000D01*
X73665211Y-26926000D01*
X73621274Y-26882063D01*
X73451756Y-26768795D01*
X73263398Y-26690774D01*
X73063439Y-26651000D01*
X72859561Y-26651000D01*
X72659602Y-26690774D01*
X72471244Y-26768795D01*
X72301726Y-26882063D01*
X72157563Y-27026226D01*
X72044295Y-27195744D01*
X71966274Y-27384102D01*
X71926500Y-27584061D01*
X71926500Y-27787939D01*
X71966274Y-27987898D01*
X72044295Y-28176256D01*
X72157563Y-28345774D01*
X72301726Y-28489937D01*
X72471244Y-28603205D01*
X72659602Y-28681226D01*
X72859561Y-28721000D01*
X73063439Y-28721000D01*
X73263398Y-28681226D01*
X73451756Y-28603205D01*
X73621274Y-28489937D01*
X73665211Y-28446000D01*
X81814178Y-28446000D01*
X81851500Y-28449676D01*
X81888822Y-28446000D01*
X81888833Y-28446000D01*
X82000486Y-28435003D01*
X82143747Y-28391546D01*
X82275776Y-28320974D01*
X82391501Y-28226001D01*
X82415303Y-28196998D01*
X82934004Y-27678298D01*
X82963001Y-27654501D01*
X82989332Y-27622417D01*
X83057974Y-27538777D01*
X83128546Y-27406747D01*
X83135415Y-27384102D01*
X83172003Y-27263486D01*
X83183000Y-27151833D01*
X83183000Y-27151824D01*
X83186676Y-27114501D01*
X83183000Y-27077178D01*
X83183000Y-26929211D01*
X83226937Y-26885274D01*
X83340205Y-26715756D01*
X83418226Y-26527398D01*
X83458000Y-26327439D01*
X83458000Y-26123561D01*
X83418226Y-25923602D01*
X83340205Y-25735244D01*
X83226937Y-25565726D01*
X83082774Y-25421563D01*
X82913256Y-25308295D01*
X82724898Y-25230274D01*
X82524939Y-25190500D01*
X82321061Y-25190500D01*
X82251000Y-25204436D01*
X82251000Y-921419D01*
X82254193Y-889000D01*
X82241450Y-759617D01*
X82211231Y-660000D01*
X82372325Y-660000D01*
X82912496Y-712964D01*
X83381424Y-854542D01*
X83813923Y-1084506D01*
X84193512Y-1394092D01*
X84505748Y-1771520D01*
X84738724Y-2202399D01*
X84883573Y-2670331D01*
X84940000Y-3207195D01*
X84940000Y-21012541D01*
X84874439Y-20999500D01*
X84670561Y-20999500D01*
X84470602Y-21039274D01*
X84282244Y-21117295D01*
X84112726Y-21230563D01*
X83968563Y-21374726D01*
X83855295Y-21544244D01*
X83777274Y-21732602D01*
X83737500Y-21932561D01*
X83737500Y-22136439D01*
X83777274Y-22336398D01*
X83855295Y-22524756D01*
X83887501Y-22572955D01*
X83887500Y-22893045D01*
X83855295Y-22941244D01*
X83777274Y-23129602D01*
X83737500Y-23329561D01*
X83737500Y-23533439D01*
X83777274Y-23733398D01*
X83855295Y-23921756D01*
X83899280Y-23987585D01*
X83900305Y-23997988D01*
X83950911Y-24164811D01*
X83975501Y-24210816D01*
X83975502Y-31739919D01*
X82373922Y-33341500D01*
X73322469Y-33341500D01*
X73279000Y-33337219D01*
X73235531Y-33341500D01*
X73235523Y-33341500D01*
X73120306Y-33352848D01*
X73105509Y-33354305D01*
X73054903Y-33369657D01*
X72938687Y-33404911D01*
X72784941Y-33487089D01*
X72650183Y-33597683D01*
X72622468Y-33631454D01*
X72239456Y-34014466D01*
X72205683Y-34042183D01*
X72095089Y-34176942D01*
X72070500Y-34222945D01*
X72070500Y-33850711D01*
X72114437Y-33806774D01*
X72227705Y-33637256D01*
X72305726Y-33448898D01*
X72345500Y-33248939D01*
X72345500Y-33045061D01*
X72305726Y-32845102D01*
X72227705Y-32656744D01*
X72114437Y-32487226D01*
X71970274Y-32343063D01*
X71800756Y-32229795D01*
X71612398Y-32151774D01*
X71412439Y-32112000D01*
X71308500Y-32112000D01*
X71308500Y-12927822D01*
X71312176Y-12890499D01*
X71308500Y-12853176D01*
X71308500Y-12853167D01*
X71297503Y-12741514D01*
X71254046Y-12598253D01*
X71183474Y-12466224D01*
X71088501Y-12350499D01*
X71059502Y-12326701D01*
X70413803Y-11681002D01*
X70390001Y-11651999D01*
X70274276Y-11557026D01*
X70142247Y-11486454D01*
X69998986Y-11442997D01*
X69887333Y-11432000D01*
X69887322Y-11432000D01*
X69850000Y-11428324D01*
X69812678Y-11432000D01*
X69220211Y-11432000D01*
X69176274Y-11388063D01*
X69006756Y-11274795D01*
X68818398Y-11196774D01*
X68618439Y-11157000D01*
X68414561Y-11157000D01*
X68214602Y-11196774D01*
X68026244Y-11274795D01*
X67856726Y-11388063D01*
X67712563Y-11532226D01*
X67599295Y-11701744D01*
X67521274Y-11890102D01*
X67481500Y-12090061D01*
X67481500Y-12293939D01*
X67521274Y-12493898D01*
X67599295Y-12682256D01*
X67712563Y-12851774D01*
X67856726Y-12995937D01*
X68026244Y-13109205D01*
X68214602Y-13187226D01*
X68273555Y-13198952D01*
X68170795Y-13352744D01*
X68092774Y-13541102D01*
X68053000Y-13741061D01*
X68053000Y-13944939D01*
X68092774Y-14144898D01*
X68170795Y-14333256D01*
X68284063Y-14502774D01*
X68428226Y-14646937D01*
X68597744Y-14760205D01*
X68786102Y-14838226D01*
X68888481Y-14858590D01*
X68888480Y-29628332D01*
X68888481Y-29628342D01*
X68888480Y-36403477D01*
X68884804Y-36440800D01*
X68888480Y-36478122D01*
X68888480Y-36478132D01*
X68899477Y-36589785D01*
X68933812Y-36702974D01*
X68942934Y-36733046D01*
X69013506Y-36865076D01*
X69048275Y-36907442D01*
X69108479Y-36980801D01*
X69137483Y-37004604D01*
X71110981Y-38978103D01*
X71110980Y-41801807D01*
X71084988Y-41827799D01*
X71055990Y-41851597D01*
X71032192Y-41880595D01*
X71032191Y-41880596D01*
X70961016Y-41967322D01*
X70890444Y-42099352D01*
X70866605Y-42177941D01*
X70846988Y-42242612D01*
X70840547Y-42308009D01*
X70832314Y-42391598D01*
X70835991Y-42428930D01*
X70835991Y-42660412D01*
X70697032Y-42521454D01*
X70669317Y-42487683D01*
X70534559Y-42377089D01*
X70380813Y-42294911D01*
X70213990Y-42244305D01*
X70083977Y-42231500D01*
X70083969Y-42231500D01*
X70040500Y-42227219D01*
X69997031Y-42231500D01*
X58024315Y-42231500D01*
X58003705Y-42181744D01*
X57971500Y-42133546D01*
X57971500Y-41241954D01*
X58003705Y-41193756D01*
X58081726Y-41005398D01*
X58121500Y-40805439D01*
X58121500Y-40601561D01*
X58081726Y-40401602D01*
X58003705Y-40213244D01*
X57890437Y-40043726D01*
X57746274Y-39899563D01*
X57576756Y-39786295D01*
X57388398Y-39708274D01*
X57188439Y-39668500D01*
X56984561Y-39668500D01*
X56784602Y-39708274D01*
X56596244Y-39786295D01*
X56426726Y-39899563D01*
X56282563Y-40043726D01*
X56208035Y-40155265D01*
X56175937Y-40107226D01*
X56031774Y-39963063D01*
X55862256Y-39849795D01*
X55673898Y-39771774D01*
X55473939Y-39732000D01*
X55270061Y-39732000D01*
X55070102Y-39771774D01*
X54881744Y-39849795D01*
X54712226Y-39963063D01*
X54568063Y-40107226D01*
X54454795Y-40276744D01*
X54376774Y-40465102D01*
X54337000Y-40665061D01*
X54337000Y-40868939D01*
X54376774Y-41068898D01*
X54454795Y-41257256D01*
X54487001Y-41305455D01*
X54487000Y-42070045D01*
X54454795Y-42118244D01*
X54376774Y-42306602D01*
X54337000Y-42506561D01*
X54337000Y-42710439D01*
X54376774Y-42910398D01*
X54454795Y-43098756D01*
X54568063Y-43268274D01*
X54712226Y-43412437D01*
X54881744Y-43525705D01*
X55070102Y-43603726D01*
X55270061Y-43643500D01*
X55473939Y-43643500D01*
X55673898Y-43603726D01*
X55862256Y-43525705D01*
X56031774Y-43412437D01*
X56175937Y-43268274D01*
X56208035Y-43220235D01*
X56282563Y-43331774D01*
X56426726Y-43475937D01*
X56596244Y-43589205D01*
X56784602Y-43667226D01*
X56841457Y-43678535D01*
X56850922Y-43688000D01*
X52527793Y-43688000D01*
X52520310Y-43612020D01*
X52484000Y-43492322D01*
X52425035Y-43382008D01*
X52345683Y-43285317D01*
X52248992Y-43205965D01*
X52138678Y-43147000D01*
X52018980Y-43110690D01*
X51894498Y-43098430D01*
X50594502Y-43098430D01*
X50470020Y-43110690D01*
X50350322Y-43147000D01*
X50240008Y-43205965D01*
X50143317Y-43285317D01*
X50063965Y-43382008D01*
X50005000Y-43492322D01*
X49968690Y-43612020D01*
X49961207Y-43688000D01*
X39306500Y-43688000D01*
X39281724Y-43690440D01*
X39257899Y-43697667D01*
X39235943Y-43709403D01*
X39216697Y-43725197D01*
X39200903Y-43744443D01*
X39189167Y-43766399D01*
X39181940Y-43790224D01*
X39179500Y-43815000D01*
X39179500Y-53340000D01*
X3207278Y-53340000D01*
X2687117Y-53288998D01*
X2217814Y-53147307D01*
X1784972Y-52917161D01*
X1405073Y-52607323D01*
X1092594Y-52229600D01*
X859431Y-51798373D01*
X714468Y-51330073D01*
X660000Y-50811847D01*
X660000Y-37685475D01*
X57229502Y-37685475D01*
X57229502Y-38007541D01*
X57292334Y-38323419D01*
X57415584Y-38620970D01*
X57594514Y-38888758D01*
X57822250Y-39116494D01*
X58090038Y-39295424D01*
X58387589Y-39418674D01*
X58703467Y-39481506D01*
X59025533Y-39481506D01*
X59341411Y-39418674D01*
X59638962Y-39295424D01*
X59906750Y-39116494D01*
X60134486Y-38888758D01*
X60313416Y-38620970D01*
X60436666Y-38323419D01*
X60499498Y-38007541D01*
X60499498Y-37685475D01*
X60436666Y-37369597D01*
X60313416Y-37072046D01*
X60134486Y-36804258D01*
X59906750Y-36576522D01*
X59638962Y-36397592D01*
X59341411Y-36274342D01*
X59025533Y-36211510D01*
X58703467Y-36211510D01*
X58387589Y-36274342D01*
X58090038Y-36397592D01*
X57822250Y-36576522D01*
X57594514Y-36804258D01*
X57415584Y-37072046D01*
X57292334Y-37369597D01*
X57229502Y-37685475D01*
X660000Y-37685475D01*
X660000Y-34124561D01*
X46463000Y-34124561D01*
X46463000Y-34328439D01*
X46502774Y-34528398D01*
X46580795Y-34716756D01*
X46694063Y-34886274D01*
X46838226Y-35030437D01*
X47007744Y-35143705D01*
X47196102Y-35221726D01*
X47396061Y-35261500D01*
X47599939Y-35261500D01*
X47799898Y-35221726D01*
X47988256Y-35143705D01*
X48157774Y-35030437D01*
X48201711Y-34986500D01*
X53429678Y-34986500D01*
X53467000Y-34990176D01*
X53504322Y-34986500D01*
X53504333Y-34986500D01*
X53615986Y-34975503D01*
X53759247Y-34932046D01*
X53891276Y-34861474D01*
X54007001Y-34766501D01*
X54030803Y-34737498D01*
X54613002Y-34155300D01*
X54642001Y-34131501D01*
X54736974Y-34015776D01*
X54807546Y-33883747D01*
X54851003Y-33740486D01*
X54862000Y-33628833D01*
X54865677Y-33591500D01*
X54864200Y-33576502D01*
X65146430Y-33576502D01*
X65146430Y-34876498D01*
X65158690Y-35000980D01*
X65195000Y-35120678D01*
X65253965Y-35230992D01*
X65333317Y-35327683D01*
X65430008Y-35407035D01*
X65540322Y-35466000D01*
X65660020Y-35502310D01*
X65784502Y-35514570D01*
X67184498Y-35514570D01*
X67308980Y-35502310D01*
X67428678Y-35466000D01*
X67538992Y-35407035D01*
X67635683Y-35327683D01*
X67715035Y-35230992D01*
X67774000Y-35120678D01*
X67810310Y-35000980D01*
X67822570Y-34876498D01*
X67822570Y-33576502D01*
X67810310Y-33452020D01*
X67774000Y-33332322D01*
X67715035Y-33222008D01*
X67635683Y-33125317D01*
X67538992Y-33045965D01*
X67428678Y-32987000D01*
X67308980Y-32950690D01*
X67184498Y-32938430D01*
X66815395Y-32938430D01*
X67050182Y-32861851D01*
X67269573Y-32738662D01*
X67460715Y-32575039D01*
X67616263Y-32377270D01*
X67730240Y-32152956D01*
X67777597Y-32011970D01*
X67653565Y-31813500D01*
X66611500Y-31813500D01*
X66611500Y-31833500D01*
X66357500Y-31833500D01*
X66357500Y-31813500D01*
X65315435Y-31813500D01*
X65191403Y-32011970D01*
X65238760Y-32152956D01*
X65352737Y-32377270D01*
X65508285Y-32575039D01*
X65699427Y-32738662D01*
X65918818Y-32861851D01*
X66153605Y-32938430D01*
X65784502Y-32938430D01*
X65660020Y-32950690D01*
X65540322Y-32987000D01*
X65430008Y-33045965D01*
X65333317Y-33125317D01*
X65253965Y-33222008D01*
X65195000Y-33332322D01*
X65158690Y-33452020D01*
X65146430Y-33576502D01*
X54864200Y-33576502D01*
X54862000Y-33554167D01*
X54862000Y-31361030D01*
X65191403Y-31361030D01*
X65315435Y-31559500D01*
X66357500Y-31559500D01*
X66357500Y-30564059D01*
X66611500Y-30564059D01*
X66611500Y-31559500D01*
X67653565Y-31559500D01*
X67777597Y-31361030D01*
X67730240Y-31220044D01*
X67616263Y-30995730D01*
X67460715Y-30797961D01*
X67269573Y-30634338D01*
X67050182Y-30511149D01*
X66810974Y-30433128D01*
X66611500Y-30564059D01*
X66357500Y-30564059D01*
X66158026Y-30433128D01*
X65918818Y-30511149D01*
X65699427Y-30634338D01*
X65508285Y-30797961D01*
X65352737Y-30995730D01*
X65238760Y-31220044D01*
X65191403Y-31361030D01*
X54862000Y-31361030D01*
X54862000Y-28953301D01*
X55369303Y-28446000D01*
X64828289Y-28446000D01*
X64872226Y-28489937D01*
X65041744Y-28603205D01*
X65230102Y-28681226D01*
X65430061Y-28721000D01*
X65633939Y-28721000D01*
X65833898Y-28681226D01*
X66022256Y-28603205D01*
X66191774Y-28489937D01*
X66335937Y-28345774D01*
X66449205Y-28176256D01*
X66527226Y-27987898D01*
X66567000Y-27787939D01*
X66567000Y-27584061D01*
X66527226Y-27384102D01*
X66449205Y-27195744D01*
X66335937Y-27026226D01*
X66191774Y-26882063D01*
X66022256Y-26768795D01*
X65833898Y-26690774D01*
X65633939Y-26651000D01*
X65430061Y-26651000D01*
X65230102Y-26690774D01*
X65041744Y-26768795D01*
X64872226Y-26882063D01*
X64828289Y-26926000D01*
X55091822Y-26926000D01*
X55054499Y-26922324D01*
X55017176Y-26926000D01*
X55017167Y-26926000D01*
X54905514Y-26936997D01*
X54762253Y-26980454D01*
X54630224Y-27051026D01*
X54630222Y-27051027D01*
X54630223Y-27051027D01*
X54543496Y-27122201D01*
X54543492Y-27122205D01*
X54514499Y-27145999D01*
X54490705Y-27174992D01*
X53591002Y-28074697D01*
X53561999Y-28098499D01*
X53506871Y-28165674D01*
X53467026Y-28214224D01*
X53448011Y-28249799D01*
X53396454Y-28346254D01*
X53352997Y-28489515D01*
X53342000Y-28601168D01*
X53342000Y-28601178D01*
X53338324Y-28638500D01*
X53342000Y-28675823D01*
X53342001Y-33276697D01*
X53152199Y-33466500D01*
X48201711Y-33466500D01*
X48157774Y-33422563D01*
X47988256Y-33309295D01*
X47799898Y-33231274D01*
X47599939Y-33191500D01*
X47396061Y-33191500D01*
X47196102Y-33231274D01*
X47007744Y-33309295D01*
X46838226Y-33422563D01*
X46694063Y-33566726D01*
X46580795Y-33736244D01*
X46502774Y-33924602D01*
X46463000Y-34124561D01*
X660000Y-34124561D01*
X660000Y-32011970D01*
X49951403Y-32011970D01*
X49998760Y-32152956D01*
X50112737Y-32377270D01*
X50268285Y-32575039D01*
X50459427Y-32738662D01*
X50678818Y-32861851D01*
X50918026Y-32939872D01*
X51117500Y-32808941D01*
X51117500Y-31813500D01*
X51371500Y-31813500D01*
X51371500Y-32808941D01*
X51570974Y-32939872D01*
X51810182Y-32861851D01*
X52029573Y-32738662D01*
X52220715Y-32575039D01*
X52376263Y-32377270D01*
X52490240Y-32152956D01*
X52537597Y-32011970D01*
X52413565Y-31813500D01*
X51371500Y-31813500D01*
X51117500Y-31813500D01*
X50075435Y-31813500D01*
X49951403Y-32011970D01*
X660000Y-32011970D01*
X660000Y-31361030D01*
X49951403Y-31361030D01*
X50075435Y-31559500D01*
X51117500Y-31559500D01*
X51117500Y-30564059D01*
X51371500Y-30564059D01*
X51371500Y-31559500D01*
X52413565Y-31559500D01*
X52537597Y-31361030D01*
X52490240Y-31220044D01*
X52376263Y-30995730D01*
X52220715Y-30797961D01*
X52029573Y-30634338D01*
X51810182Y-30511149D01*
X51570974Y-30433128D01*
X51371500Y-30564059D01*
X51117500Y-30564059D01*
X50918026Y-30433128D01*
X50678818Y-30511149D01*
X50459427Y-30634338D01*
X50268285Y-30797961D01*
X50112737Y-30995730D01*
X49998760Y-31220044D01*
X49951403Y-31361030D01*
X660000Y-31361030D01*
X660000Y-7835561D01*
X67481500Y-7835561D01*
X67481500Y-8039439D01*
X67521274Y-8239398D01*
X67599295Y-8427756D01*
X67712563Y-8597274D01*
X67856726Y-8741437D01*
X68026244Y-8854705D01*
X68214602Y-8932726D01*
X68414561Y-8972500D01*
X68618439Y-8972500D01*
X68818398Y-8932726D01*
X69006756Y-8854705D01*
X69176274Y-8741437D01*
X69220211Y-8697500D01*
X71567199Y-8697500D01*
X71630001Y-8760302D01*
X71630000Y-11488289D01*
X71586063Y-11532226D01*
X71472795Y-11701744D01*
X71394774Y-11890102D01*
X71355000Y-12090061D01*
X71355000Y-12293939D01*
X71394774Y-12493898D01*
X71472795Y-12682256D01*
X71586063Y-12851774D01*
X71730226Y-12995937D01*
X71899744Y-13109205D01*
X72088102Y-13187226D01*
X72288061Y-13227000D01*
X72491939Y-13227000D01*
X72691898Y-13187226D01*
X72880256Y-13109205D01*
X73049774Y-12995937D01*
X73193937Y-12851774D01*
X73307205Y-12682256D01*
X73385226Y-12493898D01*
X73425000Y-12293939D01*
X73425000Y-12090061D01*
X73385226Y-11890102D01*
X73307205Y-11701744D01*
X73193937Y-11532226D01*
X73150000Y-11488289D01*
X73150000Y-8482822D01*
X73153676Y-8445499D01*
X73150000Y-8408176D01*
X73150000Y-8408167D01*
X73139003Y-8296514D01*
X73095546Y-8153253D01*
X73024974Y-8021224D01*
X72930001Y-7905499D01*
X72901002Y-7881700D01*
X72445803Y-7426502D01*
X72422001Y-7397499D01*
X72306276Y-7302526D01*
X72174247Y-7231954D01*
X72030986Y-7188497D01*
X71919333Y-7177500D01*
X71919322Y-7177500D01*
X71882000Y-7173824D01*
X71844678Y-7177500D01*
X69220211Y-7177500D01*
X69176274Y-7133563D01*
X69006756Y-7020295D01*
X68818398Y-6942274D01*
X68618439Y-6902500D01*
X68414561Y-6902500D01*
X68214602Y-6942274D01*
X68026244Y-7020295D01*
X67856726Y-7133563D01*
X67712563Y-7277726D01*
X67599295Y-7447244D01*
X67521274Y-7635602D01*
X67481500Y-7835561D01*
X660000Y-7835561D01*
X660000Y-3207278D01*
X711002Y-2687116D01*
X852694Y-2217812D01*
X1082837Y-1784975D01*
X1392678Y-1405073D01*
X1770397Y-1092597D01*
X2201627Y-859431D01*
X2669928Y-714468D01*
X3188153Y-660000D01*
X79770769Y-660000D01*
X79740550Y-759617D01*
G04 #@! TA.AperFunction,Conductor*
D18*
G36*
X79740550Y-759617D02*
G01*
X79727807Y-889000D01*
X79731000Y-921419D01*
X79731001Y-26891571D01*
X79727807Y-26924000D01*
X79728004Y-26926000D01*
X73665211Y-26926000D01*
X73621274Y-26882063D01*
X73451756Y-26768795D01*
X73263398Y-26690774D01*
X73063439Y-26651000D01*
X72859561Y-26651000D01*
X72659602Y-26690774D01*
X72471244Y-26768795D01*
X72301726Y-26882063D01*
X72157563Y-27026226D01*
X72044295Y-27195744D01*
X71966274Y-27384102D01*
X71926500Y-27584061D01*
X71926500Y-27787939D01*
X71966274Y-27987898D01*
X72044295Y-28176256D01*
X72157563Y-28345774D01*
X72301726Y-28489937D01*
X72471244Y-28603205D01*
X72659602Y-28681226D01*
X72859561Y-28721000D01*
X73063439Y-28721000D01*
X73263398Y-28681226D01*
X73451756Y-28603205D01*
X73621274Y-28489937D01*
X73665211Y-28446000D01*
X81814178Y-28446000D01*
X81851500Y-28449676D01*
X81888822Y-28446000D01*
X81888833Y-28446000D01*
X82000486Y-28435003D01*
X82143747Y-28391546D01*
X82275776Y-28320974D01*
X82391501Y-28226001D01*
X82415303Y-28196998D01*
X82934004Y-27678298D01*
X82963001Y-27654501D01*
X82989332Y-27622417D01*
X83057974Y-27538777D01*
X83128546Y-27406747D01*
X83135415Y-27384102D01*
X83172003Y-27263486D01*
X83183000Y-27151833D01*
X83183000Y-27151824D01*
X83186676Y-27114501D01*
X83183000Y-27077178D01*
X83183000Y-26929211D01*
X83226937Y-26885274D01*
X83340205Y-26715756D01*
X83418226Y-26527398D01*
X83458000Y-26327439D01*
X83458000Y-26123561D01*
X83418226Y-25923602D01*
X83340205Y-25735244D01*
X83226937Y-25565726D01*
X83082774Y-25421563D01*
X82913256Y-25308295D01*
X82724898Y-25230274D01*
X82524939Y-25190500D01*
X82321061Y-25190500D01*
X82251000Y-25204436D01*
X82251000Y-921419D01*
X82254193Y-889000D01*
X82241450Y-759617D01*
X82211231Y-660000D01*
X82372325Y-660000D01*
X82912496Y-712964D01*
X83381424Y-854542D01*
X83813923Y-1084506D01*
X84193512Y-1394092D01*
X84505748Y-1771520D01*
X84738724Y-2202399D01*
X84883573Y-2670331D01*
X84940000Y-3207195D01*
X84940000Y-21012541D01*
X84874439Y-20999500D01*
X84670561Y-20999500D01*
X84470602Y-21039274D01*
X84282244Y-21117295D01*
X84112726Y-21230563D01*
X83968563Y-21374726D01*
X83855295Y-21544244D01*
X83777274Y-21732602D01*
X83737500Y-21932561D01*
X83737500Y-22136439D01*
X83777274Y-22336398D01*
X83855295Y-22524756D01*
X83887501Y-22572955D01*
X83887500Y-22893045D01*
X83855295Y-22941244D01*
X83777274Y-23129602D01*
X83737500Y-23329561D01*
X83737500Y-23533439D01*
X83777274Y-23733398D01*
X83855295Y-23921756D01*
X83899280Y-23987585D01*
X83900305Y-23997988D01*
X83950911Y-24164811D01*
X83975501Y-24210816D01*
X83975502Y-31739919D01*
X82373922Y-33341500D01*
X73322469Y-33341500D01*
X73279000Y-33337219D01*
X73235531Y-33341500D01*
X73235523Y-33341500D01*
X73120306Y-33352848D01*
X73105509Y-33354305D01*
X73054903Y-33369657D01*
X72938687Y-33404911D01*
X72784941Y-33487089D01*
X72650183Y-33597683D01*
X72622468Y-33631454D01*
X72239456Y-34014466D01*
X72205683Y-34042183D01*
X72095089Y-34176942D01*
X72070500Y-34222945D01*
X72070500Y-33850711D01*
X72114437Y-33806774D01*
X72227705Y-33637256D01*
X72305726Y-33448898D01*
X72345500Y-33248939D01*
X72345500Y-33045061D01*
X72305726Y-32845102D01*
X72227705Y-32656744D01*
X72114437Y-32487226D01*
X71970274Y-32343063D01*
X71800756Y-32229795D01*
X71612398Y-32151774D01*
X71412439Y-32112000D01*
X71308500Y-32112000D01*
X71308500Y-12927822D01*
X71312176Y-12890499D01*
X71308500Y-12853176D01*
X71308500Y-12853167D01*
X71297503Y-12741514D01*
X71254046Y-12598253D01*
X71183474Y-12466224D01*
X71088501Y-12350499D01*
X71059502Y-12326701D01*
X70413803Y-11681002D01*
X70390001Y-11651999D01*
X70274276Y-11557026D01*
X70142247Y-11486454D01*
X69998986Y-11442997D01*
X69887333Y-11432000D01*
X69887322Y-11432000D01*
X69850000Y-11428324D01*
X69812678Y-11432000D01*
X69220211Y-11432000D01*
X69176274Y-11388063D01*
X69006756Y-11274795D01*
X68818398Y-11196774D01*
X68618439Y-11157000D01*
X68414561Y-11157000D01*
X68214602Y-11196774D01*
X68026244Y-11274795D01*
X67856726Y-11388063D01*
X67712563Y-11532226D01*
X67599295Y-11701744D01*
X67521274Y-11890102D01*
X67481500Y-12090061D01*
X67481500Y-12293939D01*
X67521274Y-12493898D01*
X67599295Y-12682256D01*
X67712563Y-12851774D01*
X67856726Y-12995937D01*
X68026244Y-13109205D01*
X68214602Y-13187226D01*
X68273555Y-13198952D01*
X68170795Y-13352744D01*
X68092774Y-13541102D01*
X68053000Y-13741061D01*
X68053000Y-13944939D01*
X68092774Y-14144898D01*
X68170795Y-14333256D01*
X68284063Y-14502774D01*
X68428226Y-14646937D01*
X68597744Y-14760205D01*
X68786102Y-14838226D01*
X68888481Y-14858590D01*
X68888480Y-29628332D01*
X68888481Y-29628342D01*
X68888480Y-36403477D01*
X68884804Y-36440800D01*
X68888480Y-36478122D01*
X68888480Y-36478132D01*
X68899477Y-36589785D01*
X68933812Y-36702974D01*
X68942934Y-36733046D01*
X69013506Y-36865076D01*
X69048275Y-36907442D01*
X69108479Y-36980801D01*
X69137483Y-37004604D01*
X71110981Y-38978103D01*
X71110980Y-41801807D01*
X71084988Y-41827799D01*
X71055990Y-41851597D01*
X71032192Y-41880595D01*
X71032191Y-41880596D01*
X70961016Y-41967322D01*
X70890444Y-42099352D01*
X70866605Y-42177941D01*
X70846988Y-42242612D01*
X70840547Y-42308009D01*
X70832314Y-42391598D01*
X70835991Y-42428930D01*
X70835991Y-42660412D01*
X70697032Y-42521454D01*
X70669317Y-42487683D01*
X70534559Y-42377089D01*
X70380813Y-42294911D01*
X70213990Y-42244305D01*
X70083977Y-42231500D01*
X70083969Y-42231500D01*
X70040500Y-42227219D01*
X69997031Y-42231500D01*
X58024315Y-42231500D01*
X58003705Y-42181744D01*
X57971500Y-42133546D01*
X57971500Y-41241954D01*
X58003705Y-41193756D01*
X58081726Y-41005398D01*
X58121500Y-40805439D01*
X58121500Y-40601561D01*
X58081726Y-40401602D01*
X58003705Y-40213244D01*
X57890437Y-40043726D01*
X57746274Y-39899563D01*
X57576756Y-39786295D01*
X57388398Y-39708274D01*
X57188439Y-39668500D01*
X56984561Y-39668500D01*
X56784602Y-39708274D01*
X56596244Y-39786295D01*
X56426726Y-39899563D01*
X56282563Y-40043726D01*
X56208035Y-40155265D01*
X56175937Y-40107226D01*
X56031774Y-39963063D01*
X55862256Y-39849795D01*
X55673898Y-39771774D01*
X55473939Y-39732000D01*
X55270061Y-39732000D01*
X55070102Y-39771774D01*
X54881744Y-39849795D01*
X54712226Y-39963063D01*
X54568063Y-40107226D01*
X54454795Y-40276744D01*
X54376774Y-40465102D01*
X54337000Y-40665061D01*
X54337000Y-40868939D01*
X54376774Y-41068898D01*
X54454795Y-41257256D01*
X54487001Y-41305455D01*
X54487000Y-42070045D01*
X54454795Y-42118244D01*
X54376774Y-42306602D01*
X54337000Y-42506561D01*
X54337000Y-42710439D01*
X54376774Y-42910398D01*
X54454795Y-43098756D01*
X54568063Y-43268274D01*
X54712226Y-43412437D01*
X54881744Y-43525705D01*
X55070102Y-43603726D01*
X55270061Y-43643500D01*
X55473939Y-43643500D01*
X55673898Y-43603726D01*
X55862256Y-43525705D01*
X56031774Y-43412437D01*
X56175937Y-43268274D01*
X56208035Y-43220235D01*
X56282563Y-43331774D01*
X56426726Y-43475937D01*
X56596244Y-43589205D01*
X56784602Y-43667226D01*
X56841457Y-43678535D01*
X56850922Y-43688000D01*
X52527793Y-43688000D01*
X52520310Y-43612020D01*
X52484000Y-43492322D01*
X52425035Y-43382008D01*
X52345683Y-43285317D01*
X52248992Y-43205965D01*
X52138678Y-43147000D01*
X52018980Y-43110690D01*
X51894498Y-43098430D01*
X50594502Y-43098430D01*
X50470020Y-43110690D01*
X50350322Y-43147000D01*
X50240008Y-43205965D01*
X50143317Y-43285317D01*
X50063965Y-43382008D01*
X50005000Y-43492322D01*
X49968690Y-43612020D01*
X49961207Y-43688000D01*
X39306500Y-43688000D01*
X39281724Y-43690440D01*
X39257899Y-43697667D01*
X39235943Y-43709403D01*
X39216697Y-43725197D01*
X39200903Y-43744443D01*
X39189167Y-43766399D01*
X39181940Y-43790224D01*
X39179500Y-43815000D01*
X39179500Y-53340000D01*
X3207278Y-53340000D01*
X2687117Y-53288998D01*
X2217814Y-53147307D01*
X1784972Y-52917161D01*
X1405073Y-52607323D01*
X1092594Y-52229600D01*
X859431Y-51798373D01*
X714468Y-51330073D01*
X660000Y-50811847D01*
X660000Y-37685475D01*
X57229502Y-37685475D01*
X57229502Y-38007541D01*
X57292334Y-38323419D01*
X57415584Y-38620970D01*
X57594514Y-38888758D01*
X57822250Y-39116494D01*
X58090038Y-39295424D01*
X58387589Y-39418674D01*
X58703467Y-39481506D01*
X59025533Y-39481506D01*
X59341411Y-39418674D01*
X59638962Y-39295424D01*
X59906750Y-39116494D01*
X60134486Y-38888758D01*
X60313416Y-38620970D01*
X60436666Y-38323419D01*
X60499498Y-38007541D01*
X60499498Y-37685475D01*
X60436666Y-37369597D01*
X60313416Y-37072046D01*
X60134486Y-36804258D01*
X59906750Y-36576522D01*
X59638962Y-36397592D01*
X59341411Y-36274342D01*
X59025533Y-36211510D01*
X58703467Y-36211510D01*
X58387589Y-36274342D01*
X58090038Y-36397592D01*
X57822250Y-36576522D01*
X57594514Y-36804258D01*
X57415584Y-37072046D01*
X57292334Y-37369597D01*
X57229502Y-37685475D01*
X660000Y-37685475D01*
X660000Y-34124561D01*
X46463000Y-34124561D01*
X46463000Y-34328439D01*
X46502774Y-34528398D01*
X46580795Y-34716756D01*
X46694063Y-34886274D01*
X46838226Y-35030437D01*
X47007744Y-35143705D01*
X47196102Y-35221726D01*
X47396061Y-35261500D01*
X47599939Y-35261500D01*
X47799898Y-35221726D01*
X47988256Y-35143705D01*
X48157774Y-35030437D01*
X48201711Y-34986500D01*
X53429678Y-34986500D01*
X53467000Y-34990176D01*
X53504322Y-34986500D01*
X53504333Y-34986500D01*
X53615986Y-34975503D01*
X53759247Y-34932046D01*
X53891276Y-34861474D01*
X54007001Y-34766501D01*
X54030803Y-34737498D01*
X54613002Y-34155300D01*
X54642001Y-34131501D01*
X54736974Y-34015776D01*
X54807546Y-33883747D01*
X54851003Y-33740486D01*
X54862000Y-33628833D01*
X54865677Y-33591500D01*
X54864200Y-33576502D01*
X65146430Y-33576502D01*
X65146430Y-34876498D01*
X65158690Y-35000980D01*
X65195000Y-35120678D01*
X65253965Y-35230992D01*
X65333317Y-35327683D01*
X65430008Y-35407035D01*
X65540322Y-35466000D01*
X65660020Y-35502310D01*
X65784502Y-35514570D01*
X67184498Y-35514570D01*
X67308980Y-35502310D01*
X67428678Y-35466000D01*
X67538992Y-35407035D01*
X67635683Y-35327683D01*
X67715035Y-35230992D01*
X67774000Y-35120678D01*
X67810310Y-35000980D01*
X67822570Y-34876498D01*
X67822570Y-33576502D01*
X67810310Y-33452020D01*
X67774000Y-33332322D01*
X67715035Y-33222008D01*
X67635683Y-33125317D01*
X67538992Y-33045965D01*
X67428678Y-32987000D01*
X67308980Y-32950690D01*
X67184498Y-32938430D01*
X66815395Y-32938430D01*
X67050182Y-32861851D01*
X67269573Y-32738662D01*
X67460715Y-32575039D01*
X67616263Y-32377270D01*
X67730240Y-32152956D01*
X67777597Y-32011970D01*
X67653565Y-31813500D01*
X66611500Y-31813500D01*
X66611500Y-31833500D01*
X66357500Y-31833500D01*
X66357500Y-31813500D01*
X65315435Y-31813500D01*
X65191403Y-32011970D01*
X65238760Y-32152956D01*
X65352737Y-32377270D01*
X65508285Y-32575039D01*
X65699427Y-32738662D01*
X65918818Y-32861851D01*
X66153605Y-32938430D01*
X65784502Y-32938430D01*
X65660020Y-32950690D01*
X65540322Y-32987000D01*
X65430008Y-33045965D01*
X65333317Y-33125317D01*
X65253965Y-33222008D01*
X65195000Y-33332322D01*
X65158690Y-33452020D01*
X65146430Y-33576502D01*
X54864200Y-33576502D01*
X54862000Y-33554167D01*
X54862000Y-31361030D01*
X65191403Y-31361030D01*
X65315435Y-31559500D01*
X66357500Y-31559500D01*
X66357500Y-30564059D01*
X66611500Y-30564059D01*
X66611500Y-31559500D01*
X67653565Y-31559500D01*
X67777597Y-31361030D01*
X67730240Y-31220044D01*
X67616263Y-30995730D01*
X67460715Y-30797961D01*
X67269573Y-30634338D01*
X67050182Y-30511149D01*
X66810974Y-30433128D01*
X66611500Y-30564059D01*
X66357500Y-30564059D01*
X66158026Y-30433128D01*
X65918818Y-30511149D01*
X65699427Y-30634338D01*
X65508285Y-30797961D01*
X65352737Y-30995730D01*
X65238760Y-31220044D01*
X65191403Y-31361030D01*
X54862000Y-31361030D01*
X54862000Y-28953301D01*
X55369303Y-28446000D01*
X64828289Y-28446000D01*
X64872226Y-28489937D01*
X65041744Y-28603205D01*
X65230102Y-28681226D01*
X65430061Y-28721000D01*
X65633939Y-28721000D01*
X65833898Y-28681226D01*
X66022256Y-28603205D01*
X66191774Y-28489937D01*
X66335937Y-28345774D01*
X66449205Y-28176256D01*
X66527226Y-27987898D01*
X66567000Y-27787939D01*
X66567000Y-27584061D01*
X66527226Y-27384102D01*
X66449205Y-27195744D01*
X66335937Y-27026226D01*
X66191774Y-26882063D01*
X66022256Y-26768795D01*
X65833898Y-26690774D01*
X65633939Y-26651000D01*
X65430061Y-26651000D01*
X65230102Y-26690774D01*
X65041744Y-26768795D01*
X64872226Y-26882063D01*
X64828289Y-26926000D01*
X55091822Y-26926000D01*
X55054499Y-26922324D01*
X55017176Y-26926000D01*
X55017167Y-26926000D01*
X54905514Y-26936997D01*
X54762253Y-26980454D01*
X54630224Y-27051026D01*
X54630222Y-27051027D01*
X54630223Y-27051027D01*
X54543496Y-27122201D01*
X54543492Y-27122205D01*
X54514499Y-27145999D01*
X54490705Y-27174992D01*
X53591002Y-28074697D01*
X53561999Y-28098499D01*
X53506871Y-28165674D01*
X53467026Y-28214224D01*
X53448011Y-28249799D01*
X53396454Y-28346254D01*
X53352997Y-28489515D01*
X53342000Y-28601168D01*
X53342000Y-28601178D01*
X53338324Y-28638500D01*
X53342000Y-28675823D01*
X53342001Y-33276697D01*
X53152199Y-33466500D01*
X48201711Y-33466500D01*
X48157774Y-33422563D01*
X47988256Y-33309295D01*
X47799898Y-33231274D01*
X47599939Y-33191500D01*
X47396061Y-33191500D01*
X47196102Y-33231274D01*
X47007744Y-33309295D01*
X46838226Y-33422563D01*
X46694063Y-33566726D01*
X46580795Y-33736244D01*
X46502774Y-33924602D01*
X46463000Y-34124561D01*
X660000Y-34124561D01*
X660000Y-32011970D01*
X49951403Y-32011970D01*
X49998760Y-32152956D01*
X50112737Y-32377270D01*
X50268285Y-32575039D01*
X50459427Y-32738662D01*
X50678818Y-32861851D01*
X50918026Y-32939872D01*
X51117500Y-32808941D01*
X51117500Y-31813500D01*
X51371500Y-31813500D01*
X51371500Y-32808941D01*
X51570974Y-32939872D01*
X51810182Y-32861851D01*
X52029573Y-32738662D01*
X52220715Y-32575039D01*
X52376263Y-32377270D01*
X52490240Y-32152956D01*
X52537597Y-32011970D01*
X52413565Y-31813500D01*
X51371500Y-31813500D01*
X51117500Y-31813500D01*
X50075435Y-31813500D01*
X49951403Y-32011970D01*
X660000Y-32011970D01*
X660000Y-31361030D01*
X49951403Y-31361030D01*
X50075435Y-31559500D01*
X51117500Y-31559500D01*
X51117500Y-30564059D01*
X51371500Y-30564059D01*
X51371500Y-31559500D01*
X52413565Y-31559500D01*
X52537597Y-31361030D01*
X52490240Y-31220044D01*
X52376263Y-30995730D01*
X52220715Y-30797961D01*
X52029573Y-30634338D01*
X51810182Y-30511149D01*
X51570974Y-30433128D01*
X51371500Y-30564059D01*
X51117500Y-30564059D01*
X50918026Y-30433128D01*
X50678818Y-30511149D01*
X50459427Y-30634338D01*
X50268285Y-30797961D01*
X50112737Y-30995730D01*
X49998760Y-31220044D01*
X49951403Y-31361030D01*
X660000Y-31361030D01*
X660000Y-7835561D01*
X67481500Y-7835561D01*
X67481500Y-8039439D01*
X67521274Y-8239398D01*
X67599295Y-8427756D01*
X67712563Y-8597274D01*
X67856726Y-8741437D01*
X68026244Y-8854705D01*
X68214602Y-8932726D01*
X68414561Y-8972500D01*
X68618439Y-8972500D01*
X68818398Y-8932726D01*
X69006756Y-8854705D01*
X69176274Y-8741437D01*
X69220211Y-8697500D01*
X71567199Y-8697500D01*
X71630001Y-8760302D01*
X71630000Y-11488289D01*
X71586063Y-11532226D01*
X71472795Y-11701744D01*
X71394774Y-11890102D01*
X71355000Y-12090061D01*
X71355000Y-12293939D01*
X71394774Y-12493898D01*
X71472795Y-12682256D01*
X71586063Y-12851774D01*
X71730226Y-12995937D01*
X71899744Y-13109205D01*
X72088102Y-13187226D01*
X72288061Y-13227000D01*
X72491939Y-13227000D01*
X72691898Y-13187226D01*
X72880256Y-13109205D01*
X73049774Y-12995937D01*
X73193937Y-12851774D01*
X73307205Y-12682256D01*
X73385226Y-12493898D01*
X73425000Y-12293939D01*
X73425000Y-12090061D01*
X73385226Y-11890102D01*
X73307205Y-11701744D01*
X73193937Y-11532226D01*
X73150000Y-11488289D01*
X73150000Y-8482822D01*
X73153676Y-8445499D01*
X73150000Y-8408176D01*
X73150000Y-8408167D01*
X73139003Y-8296514D01*
X73095546Y-8153253D01*
X73024974Y-8021224D01*
X72930001Y-7905499D01*
X72901002Y-7881700D01*
X72445803Y-7426502D01*
X72422001Y-7397499D01*
X72306276Y-7302526D01*
X72174247Y-7231954D01*
X72030986Y-7188497D01*
X71919333Y-7177500D01*
X71919322Y-7177500D01*
X71882000Y-7173824D01*
X71844678Y-7177500D01*
X69220211Y-7177500D01*
X69176274Y-7133563D01*
X69006756Y-7020295D01*
X68818398Y-6942274D01*
X68618439Y-6902500D01*
X68414561Y-6902500D01*
X68214602Y-6942274D01*
X68026244Y-7020295D01*
X67856726Y-7133563D01*
X67712563Y-7277726D01*
X67599295Y-7447244D01*
X67521274Y-7635602D01*
X67481500Y-7835561D01*
X660000Y-7835561D01*
X660000Y-3207278D01*
X711002Y-2687116D01*
X852694Y-2217812D01*
X1082837Y-1784975D01*
X1392678Y-1405073D01*
X1770397Y-1092597D01*
X2201627Y-859431D01*
X2669928Y-714468D01*
X3188153Y-660000D01*
X79770769Y-660000D01*
X79740550Y-759617D01*
G37*
G04 #@! TD.AperFunction*
M02*
