M48
; DRILL file {KiCad 5.1.10-88a1d61d58~90~ubuntu20.04.1} date Thu Oct  7 18:38:09 2021
; FORMAT={-:-/ absolute / metric / decimal}
; #@! TF.CreationDate,2021-10-07T18:38:09+08:00
; #@! TF.GenerationSoftware,Kicad,Pcbnew,5.1.10-88a1d61d58~90~ubuntu20.04.1
; #@! TF.FileFunction,Plated,1,2,PTH
FMAT,2
METRIC
T1C0.400
T2C0.750
T3C0.850
T4C2.000
%
G90
G05
T1
X47.498Y-34.227
X55.372Y-40.767
X55.372Y-42.608
X57.087Y-40.703
X57.087Y-42.672
X59.372Y-11.557
X59.372Y-13.271
X59.372Y-15.05
X61.15Y-11.557
X61.15Y-13.271
X61.214Y-15.05
X62.738Y-33.21
X62.992Y-11.684
X62.992Y-13.335
X62.992Y-14.986
X65.532Y-27.686
X66.484Y-16.954
X66.484Y-18.986
X66.484Y-20.637
X68.135Y-14.986
X68.135Y-16.891
X68.135Y-18.923
X68.135Y-20.764
X68.516Y-7.938
X68.516Y-12.192
X69.088Y-13.843
X69.56Y-12.927
X71.31Y-33.147
X71.31Y-35.179
X72.072Y-29.527
X72.39Y-12.192
X72.712Y-45.026
X72.718Y-44.004
X72.771Y-42.926
X72.962Y-27.686
X80.328Y-38.672
X81.407Y-42.037
X81.407Y-43.561
X81.407Y-44.958
X82.423Y-26.226
X82.74Y-8.128
X82.804Y-29.146
X82.867Y-41.974
X82.867Y-43.561
X82.931Y-44.958
X84.01Y-24.32
X84.138Y-41.974
X84.138Y-43.561
X84.138Y-45.021
X84.391Y-8.128
X84.709Y-33.718
X84.772Y-22.034
X84.772Y-23.431
T2
X72.752Y-48.13G85X72.752Y-48.479
G05
X72.752Y-51.579G85X72.752Y-51.929
G05
X79.902Y-48.13G85X79.902Y-48.479
G05
X79.902Y-51.579G85X79.902Y-51.929
G05
T3
X51.242Y-31.686G85X51.247Y-31.686
G05
X51.242Y-44.386G85X51.247Y-44.386
G05
X66.487Y-31.686G85X66.482Y-31.686
G05
X66.487Y-34.227G85X66.482Y-34.227
G05
T4
X58.864Y-37.844G85X58.864Y-37.849
G05
T0
M30
