G04 #@! TF.GenerationSoftware,KiCad,Pcbnew,5.1.10-88a1d61d58~90~ubuntu20.04.1*
G04 #@! TF.CreationDate,2021-10-07T18:37:47+08:00*
G04 #@! TF.ProjectId,Ada_Ticker,4164615f-5469-4636-9b65-722e6b696361,rev?*
G04 #@! TF.SameCoordinates,Original*
G04 #@! TF.FileFunction,Copper,L1,Top*
G04 #@! TF.FilePolarity,Positive*
%FSLAX46Y46*%
G04 Gerber Fmt 4.6, Leading zero omitted, Abs format (unit mm)*
G04 Created by KiCad (PCBNEW 5.1.10-88a1d61d58~90~ubuntu20.04.1) date 2021-10-07 18:37:47*
%MOMM*%
%LPD*%
G01*
G04 APERTURE LIST*
G04 #@! TA.AperFunction,SMDPad,CuDef*
%ADD10R,2.000000X0.350000*%
G04 #@! TD*
G04 #@! TA.AperFunction,SMDPad,CuDef*
%ADD11R,0.400000X1.850000*%
G04 #@! TD*
G04 #@! TA.AperFunction,SMDPad,CuDef*
%ADD12C,0.100000*%
G04 #@! TD*
G04 #@! TA.AperFunction,SMDPad,CuDef*
%ADD13R,1.000000X0.900000*%
G04 #@! TD*
G04 #@! TA.AperFunction,SMDPad,CuDef*
%ADD14R,0.650000X1.060000*%
G04 #@! TD*
G04 #@! TA.AperFunction,SMDPad,CuDef*
%ADD15R,0.800000X0.900000*%
G04 #@! TD*
G04 #@! TA.AperFunction,ComponentPad*
%ADD16R,1.299997X1.299997*%
G04 #@! TD*
G04 #@! TA.AperFunction,ComponentPad*
%ADD17O,1.399997X1.299997*%
G04 #@! TD*
G04 #@! TA.AperFunction,ComponentPad*
%ADD18R,1.399997X1.299997*%
G04 #@! TD*
G04 #@! TA.AperFunction,ComponentPad*
%ADD19C,1.999996*%
G04 #@! TD*
G04 #@! TA.AperFunction,SMDPad,CuDef*
%ADD20R,1.999996X1.199998*%
G04 #@! TD*
G04 #@! TA.AperFunction,SMDPad,CuDef*
%ADD21R,1.199998X1.999996*%
G04 #@! TD*
G04 #@! TA.AperFunction,ViaPad*
%ADD22C,0.800000*%
G04 #@! TD*
G04 #@! TA.AperFunction,Conductor*
%ADD23C,0.500000*%
G04 #@! TD*
G04 #@! TA.AperFunction,Conductor*
%ADD24C,0.250000*%
G04 #@! TD*
G04 #@! TA.AperFunction,Conductor*
%ADD25C,0.254000*%
G04 #@! TD*
G04 #@! TA.AperFunction,Conductor*
%ADD26C,0.100000*%
G04 #@! TD*
G04 APERTURE END LIST*
D10*
X65953500Y-7226500D03*
X65953500Y-7926500D03*
X65953500Y-8626500D03*
X65953500Y-9326500D03*
X65953500Y-10026500D03*
X65953500Y-10726500D03*
X65953500Y-11426500D03*
X65953500Y-12126500D03*
X65953500Y-12826500D03*
X65953500Y-13526500D03*
X65953500Y-14226500D03*
X65953500Y-14926500D03*
G04 #@! TA.AperFunction,SMDPad,CuDef*
G36*
G01*
X76661000Y-34504000D02*
X77136000Y-34504000D01*
G75*
G02*
X77373500Y-34741500I0J-237500D01*
G01*
X77373500Y-35341500D01*
G75*
G02*
X77136000Y-35579000I-237500J0D01*
G01*
X76661000Y-35579000D01*
G75*
G02*
X76423500Y-35341500I0J237500D01*
G01*
X76423500Y-34741500D01*
G75*
G02*
X76661000Y-34504000I237500J0D01*
G01*
G37*
G04 #@! TD.AperFunction*
G04 #@! TA.AperFunction,SMDPad,CuDef*
G36*
G01*
X76661000Y-36229000D02*
X77136000Y-36229000D01*
G75*
G02*
X77373500Y-36466500I0J-237500D01*
G01*
X77373500Y-37066500D01*
G75*
G02*
X77136000Y-37304000I-237500J0D01*
G01*
X76661000Y-37304000D01*
G75*
G02*
X76423500Y-37066500I0J237500D01*
G01*
X76423500Y-36466500D01*
G75*
G02*
X76661000Y-36229000I237500J0D01*
G01*
G37*
G04 #@! TD.AperFunction*
G04 #@! TA.AperFunction,ComponentPad*
G36*
G01*
X72302000Y-48944500D02*
X72302000Y-47664500D01*
G75*
G02*
X72662000Y-47304500I360000J0D01*
G01*
X72842000Y-47304500D01*
G75*
G02*
X73202000Y-47664500I0J-360000D01*
G01*
X73202000Y-48944500D01*
G75*
G02*
X72842000Y-49304500I-360000J0D01*
G01*
X72662000Y-49304500D01*
G75*
G02*
X72302000Y-48944500I0J360000D01*
G01*
G37*
G04 #@! TD.AperFunction*
D11*
X75027000Y-48704500D03*
X75677000Y-48704500D03*
X76327000Y-48704500D03*
X76977000Y-48704500D03*
X77627000Y-48704500D03*
G04 #@! TA.AperFunction,ComponentPad*
G36*
G01*
X72302000Y-52394500D02*
X72302000Y-51114500D01*
G75*
G02*
X72662000Y-50754500I360000J0D01*
G01*
X72842000Y-50754500D01*
G75*
G02*
X73202000Y-51114500I0J-360000D01*
G01*
X73202000Y-52394500D01*
G75*
G02*
X72842000Y-52754500I-360000J0D01*
G01*
X72662000Y-52754500D01*
G75*
G02*
X72302000Y-52394500I0J360000D01*
G01*
G37*
G04 #@! TD.AperFunction*
G04 #@! TA.AperFunction,ComponentPad*
G36*
G01*
X79452000Y-48944500D02*
X79452000Y-47664500D01*
G75*
G02*
X79812000Y-47304500I360000J0D01*
G01*
X79992000Y-47304500D01*
G75*
G02*
X80352000Y-47664500I0J-360000D01*
G01*
X80352000Y-48944500D01*
G75*
G02*
X79992000Y-49304500I-360000J0D01*
G01*
X79812000Y-49304500D01*
G75*
G02*
X79452000Y-48944500I0J360000D01*
G01*
G37*
G04 #@! TD.AperFunction*
G04 #@! TA.AperFunction,ComponentPad*
G36*
G01*
X79452000Y-52304500D02*
X79452000Y-51204500D01*
G75*
G02*
X79902000Y-50754500I450000J0D01*
G01*
X79902000Y-50754500D01*
G75*
G02*
X80352000Y-51204500I0J-450000D01*
G01*
X80352000Y-52304500D01*
G75*
G02*
X79902000Y-52754500I-450000J0D01*
G01*
X79902000Y-52754500D01*
G75*
G02*
X79452000Y-52304500I0J450000D01*
G01*
G37*
G04 #@! TD.AperFunction*
G04 #@! TA.AperFunction,SMDPad,CuDef*
D12*
G36*
X83858000Y-19506500D02*
G01*
X84358000Y-19506500D01*
X84358000Y-19507102D01*
X84382534Y-19507102D01*
X84431365Y-19511912D01*
X84479490Y-19521484D01*
X84526445Y-19535728D01*
X84571778Y-19554505D01*
X84615051Y-19577636D01*
X84655850Y-19604896D01*
X84693779Y-19636024D01*
X84728476Y-19670721D01*
X84759604Y-19708650D01*
X84786864Y-19749449D01*
X84809995Y-19792722D01*
X84828772Y-19838055D01*
X84843016Y-19885010D01*
X84852588Y-19933135D01*
X84857398Y-19981966D01*
X84857398Y-20006500D01*
X84858000Y-20006500D01*
X84858000Y-20506500D01*
X84857398Y-20506500D01*
X84857398Y-20531034D01*
X84852588Y-20579865D01*
X84843016Y-20627990D01*
X84828772Y-20674945D01*
X84809995Y-20720278D01*
X84786864Y-20763551D01*
X84759604Y-20804350D01*
X84728476Y-20842279D01*
X84693779Y-20876976D01*
X84655850Y-20908104D01*
X84615051Y-20935364D01*
X84571778Y-20958495D01*
X84526445Y-20977272D01*
X84479490Y-20991516D01*
X84431365Y-21001088D01*
X84382534Y-21005898D01*
X84358000Y-21005898D01*
X84358000Y-21006500D01*
X83858000Y-21006500D01*
X83858000Y-19506500D01*
G37*
G04 #@! TD.AperFunction*
G04 #@! TA.AperFunction,SMDPad,CuDef*
G36*
X83058000Y-21005898D02*
G01*
X83033466Y-21005898D01*
X82984635Y-21001088D01*
X82936510Y-20991516D01*
X82889555Y-20977272D01*
X82844222Y-20958495D01*
X82800949Y-20935364D01*
X82760150Y-20908104D01*
X82722221Y-20876976D01*
X82687524Y-20842279D01*
X82656396Y-20804350D01*
X82629136Y-20763551D01*
X82606005Y-20720278D01*
X82587228Y-20674945D01*
X82572984Y-20627990D01*
X82563412Y-20579865D01*
X82558602Y-20531034D01*
X82558602Y-20506500D01*
X82558000Y-20506500D01*
X82558000Y-20006500D01*
X82558602Y-20006500D01*
X82558602Y-19981966D01*
X82563412Y-19933135D01*
X82572984Y-19885010D01*
X82587228Y-19838055D01*
X82606005Y-19792722D01*
X82629136Y-19749449D01*
X82656396Y-19708650D01*
X82687524Y-19670721D01*
X82722221Y-19636024D01*
X82760150Y-19604896D01*
X82800949Y-19577636D01*
X82844222Y-19554505D01*
X82889555Y-19535728D01*
X82936510Y-19521484D01*
X82984635Y-19511912D01*
X83033466Y-19507102D01*
X83058000Y-19507102D01*
X83058000Y-19506500D01*
X83558000Y-19506500D01*
X83558000Y-21006500D01*
X83058000Y-21006500D01*
X83058000Y-21005898D01*
G37*
G04 #@! TD.AperFunction*
G04 #@! TA.AperFunction,SMDPad,CuDef*
G36*
G01*
X83709500Y-36279000D02*
X84184500Y-36279000D01*
G75*
G02*
X84422000Y-36516500I0J-237500D01*
G01*
X84422000Y-37016500D01*
G75*
G02*
X84184500Y-37254000I-237500J0D01*
G01*
X83709500Y-37254000D01*
G75*
G02*
X83472000Y-37016500I0J237500D01*
G01*
X83472000Y-36516500D01*
G75*
G02*
X83709500Y-36279000I237500J0D01*
G01*
G37*
G04 #@! TD.AperFunction*
G04 #@! TA.AperFunction,SMDPad,CuDef*
G36*
G01*
X83709500Y-34454000D02*
X84184500Y-34454000D01*
G75*
G02*
X84422000Y-34691500I0J-237500D01*
G01*
X84422000Y-35191500D01*
G75*
G02*
X84184500Y-35429000I-237500J0D01*
G01*
X83709500Y-35429000D01*
G75*
G02*
X83472000Y-35191500I0J237500D01*
G01*
X83472000Y-34691500D01*
G75*
G02*
X83709500Y-34454000I237500J0D01*
G01*
G37*
G04 #@! TD.AperFunction*
G04 #@! TA.AperFunction,SMDPad,CuDef*
G36*
G01*
X74913500Y-32578500D02*
X74438500Y-32578500D01*
G75*
G02*
X74201000Y-32341000I0J237500D01*
G01*
X74201000Y-31841000D01*
G75*
G02*
X74438500Y-31603500I237500J0D01*
G01*
X74913500Y-31603500D01*
G75*
G02*
X75151000Y-31841000I0J-237500D01*
G01*
X75151000Y-32341000D01*
G75*
G02*
X74913500Y-32578500I-237500J0D01*
G01*
G37*
G04 #@! TD.AperFunction*
G04 #@! TA.AperFunction,SMDPad,CuDef*
G36*
G01*
X74913500Y-30753500D02*
X74438500Y-30753500D01*
G75*
G02*
X74201000Y-30516000I0J237500D01*
G01*
X74201000Y-30016000D01*
G75*
G02*
X74438500Y-29778500I237500J0D01*
G01*
X74913500Y-29778500D01*
G75*
G02*
X75151000Y-30016000I0J-237500D01*
G01*
X75151000Y-30516000D01*
G75*
G02*
X74913500Y-30753500I-237500J0D01*
G01*
G37*
G04 #@! TD.AperFunction*
G04 #@! TA.AperFunction,SMDPad,CuDef*
G36*
G01*
X74438500Y-36279000D02*
X74913500Y-36279000D01*
G75*
G02*
X75151000Y-36516500I0J-237500D01*
G01*
X75151000Y-37016500D01*
G75*
G02*
X74913500Y-37254000I-237500J0D01*
G01*
X74438500Y-37254000D01*
G75*
G02*
X74201000Y-37016500I0J237500D01*
G01*
X74201000Y-36516500D01*
G75*
G02*
X74438500Y-36279000I237500J0D01*
G01*
G37*
G04 #@! TD.AperFunction*
G04 #@! TA.AperFunction,SMDPad,CuDef*
G36*
G01*
X74438500Y-34454000D02*
X74913500Y-34454000D01*
G75*
G02*
X75151000Y-34691500I0J-237500D01*
G01*
X75151000Y-35191500D01*
G75*
G02*
X74913500Y-35429000I-237500J0D01*
G01*
X74438500Y-35429000D01*
G75*
G02*
X74201000Y-35191500I0J237500D01*
G01*
X74201000Y-34691500D01*
G75*
G02*
X74438500Y-34454000I237500J0D01*
G01*
G37*
G04 #@! TD.AperFunction*
G04 #@! TA.AperFunction,SMDPad,CuDef*
G36*
G01*
X76851500Y-29802000D02*
X77326500Y-29802000D01*
G75*
G02*
X77564000Y-30039500I0J-237500D01*
G01*
X77564000Y-30539500D01*
G75*
G02*
X77326500Y-30777000I-237500J0D01*
G01*
X76851500Y-30777000D01*
G75*
G02*
X76614000Y-30539500I0J237500D01*
G01*
X76614000Y-30039500D01*
G75*
G02*
X76851500Y-29802000I237500J0D01*
G01*
G37*
G04 #@! TD.AperFunction*
G04 #@! TA.AperFunction,SMDPad,CuDef*
G36*
G01*
X76851500Y-31627000D02*
X77326500Y-31627000D01*
G75*
G02*
X77564000Y-31864500I0J-237500D01*
G01*
X77564000Y-32364500D01*
G75*
G02*
X77326500Y-32602000I-237500J0D01*
G01*
X76851500Y-32602000D01*
G75*
G02*
X76614000Y-32364500I0J237500D01*
G01*
X76614000Y-31864500D01*
G75*
G02*
X76851500Y-31627000I237500J0D01*
G01*
G37*
G04 #@! TD.AperFunction*
G04 #@! TA.AperFunction,SMDPad,CuDef*
G36*
G01*
X82316500Y-17128500D02*
X82316500Y-16653500D01*
G75*
G02*
X82554000Y-16416000I237500J0D01*
G01*
X83054000Y-16416000D01*
G75*
G02*
X83291500Y-16653500I0J-237500D01*
G01*
X83291500Y-17128500D01*
G75*
G02*
X83054000Y-17366000I-237500J0D01*
G01*
X82554000Y-17366000D01*
G75*
G02*
X82316500Y-17128500I0J237500D01*
G01*
G37*
G04 #@! TD.AperFunction*
G04 #@! TA.AperFunction,SMDPad,CuDef*
G36*
G01*
X84141500Y-17128500D02*
X84141500Y-16653500D01*
G75*
G02*
X84379000Y-16416000I237500J0D01*
G01*
X84879000Y-16416000D01*
G75*
G02*
X85116500Y-16653500I0J-237500D01*
G01*
X85116500Y-17128500D01*
G75*
G02*
X84879000Y-17366000I-237500J0D01*
G01*
X84379000Y-17366000D01*
G75*
G02*
X84141500Y-17128500I0J237500D01*
G01*
G37*
G04 #@! TD.AperFunction*
D13*
X84366000Y-10078500D03*
X84366000Y-14178500D03*
X82766000Y-10078500D03*
X82766000Y-14178500D03*
D14*
X79375000Y-37211000D03*
X80325000Y-37211000D03*
X81275000Y-37211000D03*
X81275000Y-35011000D03*
X79375000Y-35011000D03*
D15*
X79695000Y-32178500D03*
X81595000Y-32178500D03*
X80645000Y-30178500D03*
D16*
X51244500Y-44386500D03*
D17*
X51244500Y-31686500D03*
X66484500Y-31686500D03*
D18*
X66484500Y-34226500D03*
D19*
X58864500Y-37846508D03*
D20*
X49864518Y-44386500D03*
X49864518Y-41846500D03*
X49864518Y-39306500D03*
X49864518Y-36766500D03*
X49864518Y-34226500D03*
X49864518Y-31686500D03*
D21*
X55054500Y-29846524D03*
X57594500Y-29846524D03*
X60134500Y-29846524D03*
X62674500Y-29846524D03*
D20*
X67864482Y-31686500D03*
X67864482Y-34226500D03*
X67864482Y-36766500D03*
X67864482Y-39306500D03*
X67864482Y-41846500D03*
X67864482Y-44386500D03*
X67864482Y-52006500D03*
X67864482Y-49466500D03*
X67864482Y-46926500D03*
D22*
X72072500Y-29527500D03*
X82804000Y-29146500D03*
X62738000Y-33210500D03*
X80327500Y-38671500D03*
X62992000Y-14986000D03*
X68135500Y-14986000D03*
X61214000Y-15049500D03*
X59372500Y-15049500D03*
X59372500Y-13271500D03*
X61150500Y-13271500D03*
X62992000Y-13335000D03*
X62992000Y-11684000D03*
X61150500Y-11557000D03*
X59372500Y-11557000D03*
X84709000Y-33718500D03*
X84010500Y-24320500D03*
X82740500Y-8128000D03*
X84391500Y-8128000D03*
X68135500Y-16891000D03*
X68135500Y-18923000D03*
X66484500Y-18986500D03*
X66484500Y-16954500D03*
X66484500Y-20637500D03*
X68135500Y-20764500D03*
X81407000Y-42037000D03*
X82867500Y-41973500D03*
X84137500Y-41973500D03*
X84137500Y-43561000D03*
X82867500Y-43561000D03*
X81407000Y-43561000D03*
X81407000Y-44958000D03*
X82931000Y-44958000D03*
X84137500Y-45021500D03*
X84772500Y-22034500D03*
X84772500Y-23431500D03*
X55372000Y-42608500D03*
X55372000Y-40767000D03*
X57086500Y-40703500D03*
X57086500Y-42672000D03*
X71310500Y-35179000D03*
X71310500Y-33147000D03*
X68516500Y-7937500D03*
X72390000Y-12192000D03*
X72961500Y-27686000D03*
X65532000Y-27686000D03*
X47498000Y-34226500D03*
X82423000Y-26225500D03*
X72712153Y-45026153D03*
X69088000Y-13843000D03*
X68516500Y-12192000D03*
X72771000Y-42926000D03*
X72717966Y-44004339D03*
X69559597Y-12926903D03*
D23*
X76929000Y-35011000D02*
X76898500Y-35041500D01*
X79375000Y-35011000D02*
X76929000Y-35011000D01*
X74776000Y-35041500D02*
X74676000Y-34941500D01*
X76898500Y-35041500D02*
X74776000Y-35041500D01*
X65953500Y-9326500D02*
X65953500Y-8626500D01*
X83058000Y-20256500D02*
X83058000Y-24892000D01*
X83058000Y-24892000D02*
X83756500Y-25590500D01*
X78803500Y-9334500D02*
X79565500Y-10096500D01*
X71466512Y-9334500D02*
X78803500Y-9334500D01*
X71458512Y-9326500D02*
X71466512Y-9334500D01*
X65953500Y-9326500D02*
X71458512Y-9326500D01*
X79565500Y-26770265D02*
X79565500Y-26416000D01*
X80417735Y-27622500D02*
X79565500Y-26770265D01*
X83756500Y-27622500D02*
X80417735Y-27622500D01*
X79565500Y-10096500D02*
X79565500Y-26416000D01*
X83756500Y-25590500D02*
X83756500Y-27622500D01*
X83756500Y-28384500D02*
X83756500Y-27622500D01*
X83756500Y-32766000D02*
X83756500Y-28384500D01*
X83379008Y-33143492D02*
X83756500Y-32766000D01*
X79375000Y-34607500D02*
X80839008Y-33143492D01*
X80839008Y-33143492D02*
X83379008Y-33143492D01*
X79375000Y-35011000D02*
X79375000Y-34607500D01*
X72752000Y-48304500D02*
X72752000Y-51754500D01*
X79902000Y-51754500D02*
X79902000Y-48304500D01*
X78027000Y-48304500D02*
X77627000Y-48704500D01*
X79902000Y-48304500D02*
X78027000Y-48304500D01*
X82766000Y-10078500D02*
X82766000Y-14178500D01*
X76898500Y-36766500D02*
X77025500Y-36766500D01*
X77025500Y-36766500D02*
X77660500Y-36131500D01*
X77660500Y-36131500D02*
X80010000Y-36131500D01*
X80325000Y-36446500D02*
X80325000Y-37211000D01*
X80010000Y-36131500D02*
X80325000Y-36446500D01*
X66484500Y-31686500D02*
X71120000Y-31686500D01*
X71120000Y-31686500D02*
X72072500Y-30734000D01*
X72072500Y-30734000D02*
X72072500Y-29527500D01*
X82804000Y-29146500D02*
X82804000Y-31877000D01*
X82502500Y-32178500D02*
X81595000Y-32178500D01*
X82804000Y-31877000D02*
X82502500Y-32178500D01*
X62738000Y-29910024D02*
X62674500Y-29846524D01*
X62738000Y-33210500D02*
X62738000Y-29910024D01*
X80325000Y-38669000D02*
X80327500Y-38671500D01*
X80325000Y-37211000D02*
X80325000Y-38669000D01*
X65953500Y-7226500D02*
X64592000Y-7226500D01*
X64592000Y-7226500D02*
X64198500Y-7620000D01*
X64198500Y-7620000D02*
X64198500Y-9588500D01*
X64636500Y-10026500D02*
X65953500Y-10026500D01*
X64198500Y-9588500D02*
X64636500Y-10026500D01*
X65953500Y-10726500D02*
X64511000Y-10726500D01*
X64198500Y-10414000D02*
X64198500Y-9588500D01*
X64511000Y-10726500D02*
X64198500Y-10414000D01*
X64511000Y-10726500D02*
X63949500Y-10726500D01*
X63949500Y-10726500D02*
X62992000Y-11684000D01*
X66013000Y-14986000D02*
X65953500Y-14926500D01*
X68135500Y-14986000D02*
X66013000Y-14986000D01*
X61277500Y-14986000D02*
X61214000Y-15049500D01*
X62992000Y-14986000D02*
X61277500Y-14986000D01*
X59372500Y-15049500D02*
X59372500Y-13271500D01*
X62928500Y-13271500D02*
X62992000Y-13335000D01*
X61150500Y-13271500D02*
X62928500Y-13271500D01*
X62992000Y-13335000D02*
X62992000Y-14986000D01*
X62992000Y-13335000D02*
X62992000Y-11684000D01*
X61277500Y-11684000D02*
X61150500Y-11557000D01*
X62992000Y-11684000D02*
X61277500Y-11684000D01*
X59372500Y-11557000D02*
X59372500Y-13271500D01*
X62674500Y-15303500D02*
X62992000Y-14986000D01*
X62674500Y-29846524D02*
X62674500Y-15303500D01*
X68135500Y-20764500D02*
X74295000Y-26924000D01*
X74295000Y-26924000D02*
X74295000Y-28130500D01*
X72898000Y-29527500D02*
X72072500Y-29527500D01*
X74295000Y-28130500D02*
X72898000Y-29527500D01*
X80325000Y-37211000D02*
X80325000Y-36578500D01*
X80325000Y-36578500D02*
X80772000Y-36131500D01*
X84709000Y-25019000D02*
X84709000Y-33718500D01*
X84010500Y-24320500D02*
X84709000Y-25019000D01*
X82766000Y-8153500D02*
X82740500Y-8128000D01*
X82766000Y-10078500D02*
X82766000Y-8153500D01*
X67864482Y-31686500D02*
X66484500Y-31686500D01*
X51244500Y-31686500D02*
X49864518Y-31686500D01*
X61214000Y-31686500D02*
X62738000Y-33210500D01*
X51244500Y-31686500D02*
X61214000Y-31686500D01*
X68135500Y-14986000D02*
X68135500Y-16891000D01*
X68135500Y-16891000D02*
X68135500Y-18923000D01*
X68135500Y-18923000D02*
X68135500Y-20764500D01*
X66548000Y-18923000D02*
X66484500Y-18986500D01*
X68135500Y-18923000D02*
X66548000Y-18923000D01*
X68072000Y-16954500D02*
X68135500Y-16891000D01*
X66484500Y-16954500D02*
X68072000Y-16954500D01*
X66484500Y-18986500D02*
X66484500Y-20637500D01*
X65953500Y-10726500D02*
X69527500Y-10726500D01*
X69527500Y-10726500D02*
X71501000Y-12700000D01*
X71501000Y-12700000D02*
X71501000Y-14414500D01*
X70929500Y-14986000D02*
X68135500Y-14986000D01*
X71501000Y-14414500D02*
X70929500Y-14986000D01*
X82804000Y-42037000D02*
X82867500Y-41973500D01*
X81407000Y-42037000D02*
X82804000Y-42037000D01*
X84137500Y-41973500D02*
X84137500Y-43561000D01*
X82867500Y-43561000D02*
X81407000Y-43561000D01*
X81407000Y-44958000D02*
X82931000Y-44958000D01*
X84583998Y-33843502D02*
X84709000Y-33718500D01*
X83585210Y-33843502D02*
X84583998Y-33843502D01*
X83021990Y-34406722D02*
X83585210Y-33843502D01*
X83021990Y-34929012D02*
X83021990Y-34406722D01*
X81819502Y-36131500D02*
X83021990Y-34929012D01*
X80772000Y-36131500D02*
X81819502Y-36131500D01*
X78803500Y-37782500D02*
X79375000Y-37211000D01*
X72771000Y-37274500D02*
X73279000Y-37782500D01*
X72771000Y-34925000D02*
X72771000Y-37274500D01*
X72072500Y-34226500D02*
X72771000Y-34925000D01*
X67864482Y-34226500D02*
X72072500Y-34226500D01*
X75027000Y-47845500D02*
X74993500Y-47812000D01*
X75027000Y-48704500D02*
X75027000Y-47845500D01*
X74993500Y-38671500D02*
X74104500Y-37782500D01*
X74993500Y-47812000D02*
X74993500Y-38671500D01*
X74104500Y-37782500D02*
X78803500Y-37782500D01*
X73279000Y-37782500D02*
X74104500Y-37782500D01*
X79375000Y-37211000D02*
X79375000Y-39306500D01*
X79375000Y-39306500D02*
X79629000Y-39560500D01*
X81153000Y-39560500D02*
X83947000Y-36766500D01*
X79629000Y-39560500D02*
X81153000Y-39560500D01*
X67864482Y-34226500D02*
X66484500Y-34226500D01*
X84629000Y-16891000D02*
X84629000Y-17161500D01*
X84629000Y-19985500D02*
X84358000Y-20256500D01*
X84629000Y-16891000D02*
X84629000Y-19985500D01*
X84772500Y-20671000D02*
X84358000Y-20256500D01*
X84772500Y-22034500D02*
X84772500Y-20671000D01*
X84772500Y-23431500D02*
X84645500Y-23431500D01*
X53594000Y-44386500D02*
X55372000Y-42608500D01*
X51244500Y-44386500D02*
X53594000Y-44386500D01*
X57023000Y-40767000D02*
X57086500Y-40703500D01*
X55372000Y-40767000D02*
X57023000Y-40767000D01*
X57023000Y-42608500D02*
X57086500Y-42672000D01*
X55372000Y-42608500D02*
X57023000Y-42608500D01*
X51244500Y-44386500D02*
X49864518Y-44386500D01*
D24*
X77089000Y-32114500D02*
X77804000Y-32114500D01*
X79740000Y-30178500D02*
X80645000Y-30178500D01*
X77804000Y-32114500D02*
X79740000Y-30178500D01*
X81677500Y-37211000D02*
X83947000Y-34941500D01*
X81275000Y-37211000D02*
X81677500Y-37211000D01*
X74191500Y-30266000D02*
X74676000Y-30266000D01*
X71310500Y-33147000D02*
X74191500Y-30266000D01*
X69723000Y-36766500D02*
X71310500Y-35179000D01*
X67864482Y-36766500D02*
X69723000Y-36766500D01*
X77089000Y-30289500D02*
X77089000Y-19685000D01*
X65964500Y-7937500D02*
X65953500Y-7926500D01*
X68516500Y-7937500D02*
X65964500Y-7937500D01*
X77089000Y-19685000D02*
X77089000Y-18351500D01*
X77089000Y-18351500D02*
X77089000Y-13271500D01*
X76009500Y-12192000D02*
X72390000Y-12192000D01*
X77089000Y-13271500D02*
X76009500Y-12192000D01*
X84366000Y-14178500D02*
X84366000Y-10078500D01*
X84366000Y-14178500D02*
X84366000Y-14630500D01*
X82804000Y-16192500D02*
X82804000Y-16891000D01*
X84366000Y-14630500D02*
X82804000Y-16192500D01*
X82804000Y-16891000D02*
X82423000Y-16891000D01*
X82423000Y-16891000D02*
X81941010Y-17372990D01*
X72961500Y-27686000D02*
X65532000Y-27686000D01*
X47498000Y-34226500D02*
X49864518Y-34226500D01*
X81941010Y-25743510D02*
X81941010Y-25426010D01*
X82423000Y-26225500D02*
X81941010Y-25743510D01*
X81941010Y-17372990D02*
X81941010Y-25426010D01*
X67864482Y-52006500D02*
X69659500Y-52006500D01*
X70135750Y-47213660D02*
X70988901Y-46360509D01*
X69659500Y-52006500D02*
X70135750Y-51530250D01*
X70135750Y-51530250D02*
X70135750Y-47213660D01*
X72323257Y-45026153D02*
X72712153Y-45026153D01*
X70988901Y-46360509D02*
X72323257Y-45026153D01*
X69088000Y-13843000D02*
X68770500Y-13525500D01*
X67185000Y-13525500D02*
X67184000Y-13526500D01*
X68770500Y-13525500D02*
X67185000Y-13525500D01*
X67184000Y-13526500D02*
X65953500Y-13526500D01*
X67532990Y-13526500D02*
X67184000Y-13526500D01*
X64893498Y-14226500D02*
X65953500Y-14226500D01*
X64628499Y-14491499D02*
X64893498Y-14226500D01*
X64628499Y-38339499D02*
X64628499Y-14491499D01*
X65595500Y-39306500D02*
X64628499Y-38339499D01*
X67864482Y-39306500D02*
X65595500Y-39306500D01*
X66484500Y-41846500D02*
X64178489Y-39540489D01*
X64178489Y-39540489D02*
X64178489Y-11704011D01*
X64456000Y-11426500D02*
X65953500Y-11426500D01*
X64178489Y-11704011D02*
X64456000Y-11426500D01*
X67864482Y-41846500D02*
X66484500Y-41846500D01*
X66019000Y-12192000D02*
X65953500Y-12126500D01*
X68516500Y-12192000D02*
X66019000Y-12192000D01*
X71310500Y-44386500D02*
X72771000Y-42926000D01*
X71310500Y-44386500D02*
X67864482Y-44386500D01*
X66053903Y-12926903D02*
X65953500Y-12826500D01*
X69559597Y-12926903D02*
X66053903Y-12926903D01*
X72708661Y-44004339D02*
X72717966Y-44004339D01*
X69786500Y-46926500D02*
X72708661Y-44004339D01*
X67864482Y-46926500D02*
X69786500Y-46926500D01*
X74676000Y-32091000D02*
X74676000Y-33020000D01*
X74676000Y-33020000D02*
X74993500Y-33337500D01*
X74993500Y-33337500D02*
X79438500Y-33337500D01*
X79695000Y-33081000D02*
X79695000Y-32178500D01*
X79438500Y-33337500D02*
X79695000Y-33081000D01*
X74676000Y-36766500D02*
X74041000Y-36766500D01*
X74041000Y-36766500D02*
X73596500Y-36322000D01*
X73596500Y-36322000D02*
X73596500Y-32385000D01*
X73890500Y-32091000D02*
X74676000Y-32091000D01*
X73596500Y-32385000D02*
X73890500Y-32091000D01*
D25*
X79740550Y-759617D02*
X79727807Y-889000D01*
X79731000Y-921419D01*
X79731000Y-9010422D01*
X79460032Y-8739454D01*
X79432317Y-8705683D01*
X79297559Y-8595089D01*
X79143813Y-8512911D01*
X78976990Y-8462305D01*
X78846977Y-8449500D01*
X78846969Y-8449500D01*
X78803500Y-8445219D01*
X78760031Y-8449500D01*
X71583215Y-8449500D01*
X71501989Y-8441500D01*
X71501981Y-8441500D01*
X71458512Y-8437219D01*
X71415043Y-8441500D01*
X69424522Y-8441500D01*
X69433705Y-8427756D01*
X69511726Y-8239398D01*
X69551500Y-8039439D01*
X69551500Y-7835561D01*
X69511726Y-7635602D01*
X69433705Y-7447244D01*
X69320437Y-7277726D01*
X69176274Y-7133563D01*
X69006756Y-7020295D01*
X68818398Y-6942274D01*
X68618439Y-6902500D01*
X68414561Y-6902500D01*
X68214602Y-6942274D01*
X68026244Y-7020295D01*
X67856726Y-7133563D01*
X67812789Y-7177500D01*
X67588500Y-7177500D01*
X67588500Y-7099498D01*
X67508752Y-7099498D01*
X67588500Y-7019750D01*
X67577766Y-6919487D01*
X67540017Y-6800236D01*
X67479728Y-6690640D01*
X67399216Y-6594912D01*
X67301576Y-6516730D01*
X67190559Y-6459099D01*
X67070433Y-6424234D01*
X66945812Y-6413474D01*
X66239250Y-6416500D01*
X66080500Y-6575250D01*
X66080500Y-7113428D01*
X65826500Y-7113428D01*
X65826500Y-6575250D01*
X65667750Y-6416500D01*
X64961188Y-6413474D01*
X64836567Y-6424234D01*
X64716441Y-6459099D01*
X64605424Y-6516730D01*
X64507784Y-6594912D01*
X64427272Y-6690640D01*
X64366983Y-6800236D01*
X64329234Y-6919487D01*
X64318500Y-7019750D01*
X64477250Y-7178500D01*
X64678447Y-7178500D01*
X64599006Y-7220963D01*
X64533771Y-7274500D01*
X64477250Y-7274500D01*
X64318500Y-7433250D01*
X64329234Y-7533513D01*
X64342929Y-7576776D01*
X64327688Y-7627018D01*
X64315428Y-7751500D01*
X64315428Y-8101500D01*
X64327688Y-8225982D01*
X64343012Y-8276500D01*
X64327688Y-8327018D01*
X64315428Y-8451500D01*
X64315428Y-8801500D01*
X64327688Y-8925982D01*
X64343012Y-8976500D01*
X64327688Y-9027018D01*
X64315428Y-9151500D01*
X64315428Y-9501500D01*
X64327688Y-9625982D01*
X64342929Y-9676224D01*
X64329234Y-9719487D01*
X64318500Y-9819750D01*
X64477250Y-9978500D01*
X64533771Y-9978500D01*
X64592735Y-10026890D01*
X64533276Y-10074500D01*
X64477250Y-10074500D01*
X64318500Y-10233250D01*
X64329234Y-10333513D01*
X64342842Y-10376500D01*
X64329234Y-10419487D01*
X64318500Y-10519750D01*
X64398248Y-10599498D01*
X64318500Y-10599498D01*
X64318500Y-10676366D01*
X64307014Y-10677497D01*
X64163753Y-10720954D01*
X64031724Y-10791526D01*
X63915999Y-10886499D01*
X63892196Y-10915503D01*
X63667487Y-11140212D01*
X63638489Y-11164010D01*
X63614691Y-11193008D01*
X63614690Y-11193009D01*
X63543515Y-11279735D01*
X63472943Y-11411765D01*
X63463469Y-11442998D01*
X63434189Y-11539526D01*
X63429487Y-11555026D01*
X63414813Y-11704011D01*
X63418490Y-11741344D01*
X63418489Y-28226632D01*
X63398981Y-28220714D01*
X63274499Y-28208454D01*
X62960250Y-28211526D01*
X62801500Y-28370276D01*
X62801500Y-29719524D01*
X62821500Y-29719524D01*
X62821500Y-29973524D01*
X62801500Y-29973524D01*
X62801500Y-31322772D01*
X62960250Y-31481522D01*
X63274499Y-31484594D01*
X63398981Y-31472334D01*
X63418489Y-31466416D01*
X63418489Y-39503167D01*
X63414813Y-39540489D01*
X63418489Y-39577811D01*
X63418489Y-39577821D01*
X63429486Y-39689474D01*
X63442990Y-39733990D01*
X63472943Y-39832735D01*
X63543515Y-39964765D01*
X63582318Y-40012046D01*
X63638488Y-40080490D01*
X63667492Y-40104293D01*
X65920701Y-42357503D01*
X65944499Y-42386501D01*
X65973497Y-42410299D01*
X66060223Y-42481474D01*
X66192253Y-42552046D01*
X66238179Y-42565977D01*
X66238672Y-42570981D01*
X66274982Y-42690679D01*
X66333947Y-42800993D01*
X66413299Y-42897684D01*
X66509990Y-42977036D01*
X66620304Y-43036001D01*
X66740002Y-43072311D01*
X66864484Y-43084571D01*
X68864480Y-43084571D01*
X68988962Y-43072311D01*
X69108660Y-43036001D01*
X69218974Y-42977036D01*
X69315665Y-42897684D01*
X69395017Y-42800993D01*
X69453982Y-42690679D01*
X69490292Y-42570981D01*
X69502552Y-42446499D01*
X69502552Y-41246501D01*
X69490292Y-41122019D01*
X69453982Y-41002321D01*
X69395017Y-40892007D01*
X69315665Y-40795316D01*
X69218974Y-40715964D01*
X69108660Y-40656999D01*
X68988962Y-40620689D01*
X68864480Y-40608429D01*
X66864484Y-40608429D01*
X66740002Y-40620689D01*
X66620304Y-40656999D01*
X66509990Y-40715964D01*
X66465378Y-40752576D01*
X65779301Y-40066500D01*
X66249447Y-40066500D01*
X66274982Y-40150679D01*
X66333947Y-40260993D01*
X66413299Y-40357684D01*
X66509990Y-40437036D01*
X66620304Y-40496001D01*
X66740002Y-40532311D01*
X66864484Y-40544571D01*
X68864480Y-40544571D01*
X68988962Y-40532311D01*
X69108660Y-40496001D01*
X69218974Y-40437036D01*
X69315665Y-40357684D01*
X69395017Y-40260993D01*
X69453982Y-40150679D01*
X69490292Y-40030981D01*
X69502552Y-39906499D01*
X69502552Y-38706501D01*
X69490292Y-38582019D01*
X69453982Y-38462321D01*
X69395017Y-38352007D01*
X69315665Y-38255316D01*
X69218974Y-38175964D01*
X69108660Y-38116999D01*
X68988962Y-38080689D01*
X68864480Y-38068429D01*
X66864484Y-38068429D01*
X66740002Y-38080689D01*
X66620304Y-38116999D01*
X66509990Y-38175964D01*
X66413299Y-38255316D01*
X66333947Y-38352007D01*
X66274982Y-38462321D01*
X66249447Y-38546500D01*
X65910302Y-38546500D01*
X65388499Y-38024698D01*
X65388499Y-35372970D01*
X65430008Y-35407035D01*
X65540322Y-35466000D01*
X65660020Y-35502310D01*
X65784502Y-35514570D01*
X67184498Y-35514570D01*
X67308980Y-35502310D01*
X67428678Y-35466000D01*
X67431351Y-35464571D01*
X68864480Y-35464571D01*
X68988962Y-35452311D01*
X69108660Y-35416001D01*
X69218974Y-35357036D01*
X69315665Y-35277684D01*
X69395017Y-35180993D01*
X69432162Y-35111500D01*
X70275500Y-35111500D01*
X70275500Y-35139198D01*
X69462918Y-35951780D01*
X69453982Y-35922321D01*
X69395017Y-35812007D01*
X69315665Y-35715316D01*
X69218974Y-35635964D01*
X69108660Y-35576999D01*
X68988962Y-35540689D01*
X68864480Y-35528429D01*
X66864484Y-35528429D01*
X66740002Y-35540689D01*
X66620304Y-35576999D01*
X66509990Y-35635964D01*
X66413299Y-35715316D01*
X66333947Y-35812007D01*
X66274982Y-35922321D01*
X66238672Y-36042019D01*
X66226412Y-36166501D01*
X66226412Y-37366499D01*
X66238672Y-37490981D01*
X66274982Y-37610679D01*
X66333947Y-37720993D01*
X66413299Y-37817684D01*
X66509990Y-37897036D01*
X66620304Y-37956001D01*
X66740002Y-37992311D01*
X66864484Y-38004571D01*
X68864480Y-38004571D01*
X68988962Y-37992311D01*
X69108660Y-37956001D01*
X69218974Y-37897036D01*
X69315665Y-37817684D01*
X69395017Y-37720993D01*
X69453982Y-37610679D01*
X69479517Y-37526500D01*
X69685678Y-37526500D01*
X69723000Y-37530176D01*
X69760322Y-37526500D01*
X69760333Y-37526500D01*
X69871986Y-37515503D01*
X70015247Y-37472046D01*
X70147276Y-37401474D01*
X70263001Y-37306501D01*
X70286804Y-37277497D01*
X71350302Y-36214000D01*
X71412439Y-36214000D01*
X71612398Y-36174226D01*
X71800756Y-36096205D01*
X71886000Y-36039247D01*
X71886001Y-37231021D01*
X71881719Y-37274500D01*
X71898805Y-37447990D01*
X71949412Y-37614813D01*
X72031590Y-37768559D01*
X72114468Y-37869546D01*
X72114471Y-37869549D01*
X72142184Y-37903317D01*
X72175952Y-37931030D01*
X72622466Y-38377544D01*
X72650183Y-38411317D01*
X72784941Y-38521911D01*
X72938687Y-38604089D01*
X73105510Y-38654695D01*
X73235523Y-38667500D01*
X73235533Y-38667500D01*
X73278999Y-38671781D01*
X73322465Y-38667500D01*
X73737922Y-38667500D01*
X74108501Y-39038080D01*
X74108500Y-47768531D01*
X74104219Y-47812000D01*
X74108500Y-47855469D01*
X74108500Y-47855476D01*
X74121305Y-47985489D01*
X74142000Y-48053710D01*
X74142000Y-48411022D01*
X74025102Y-48434274D01*
X73840072Y-48510916D01*
X73840072Y-47664500D01*
X73820894Y-47469786D01*
X73764098Y-47282554D01*
X73671867Y-47110001D01*
X73547743Y-46958757D01*
X73396499Y-46834633D01*
X73223946Y-46742402D01*
X73036714Y-46685606D01*
X72842000Y-46666428D01*
X72662000Y-46666428D01*
X72467286Y-46685606D01*
X72280054Y-46742402D01*
X72107501Y-46834633D01*
X71956257Y-46958757D01*
X71832133Y-47110001D01*
X71739902Y-47282554D01*
X71683106Y-47469786D01*
X71663928Y-47664500D01*
X71663928Y-48944500D01*
X71683106Y-49139214D01*
X71739902Y-49326446D01*
X71832133Y-49498999D01*
X71956257Y-49650243D01*
X72107501Y-49774367D01*
X72280054Y-49866598D01*
X72467286Y-49923394D01*
X72662000Y-49942572D01*
X72842000Y-49942572D01*
X73036714Y-49923394D01*
X73223946Y-49866598D01*
X73358079Y-49794903D01*
X73409795Y-49919756D01*
X73523063Y-50089274D01*
X73667226Y-50233437D01*
X73836744Y-50346705D01*
X74025102Y-50424726D01*
X74225061Y-50464500D01*
X74428939Y-50464500D01*
X74628898Y-50424726D01*
X74817256Y-50346705D01*
X74935687Y-50267572D01*
X75227000Y-50267572D01*
X75351482Y-50255312D01*
X75352000Y-50255155D01*
X75352518Y-50255312D01*
X75477000Y-50267572D01*
X75877000Y-50267572D01*
X76001482Y-50255312D01*
X76002000Y-50255155D01*
X76002518Y-50255312D01*
X76127000Y-50267572D01*
X76527000Y-50267572D01*
X76651482Y-50255312D01*
X76652000Y-50255155D01*
X76652518Y-50255312D01*
X76777000Y-50267572D01*
X77177000Y-50267572D01*
X77301482Y-50255312D01*
X77302000Y-50255155D01*
X77302518Y-50255312D01*
X77427000Y-50267572D01*
X77718313Y-50267572D01*
X77836744Y-50346705D01*
X78025102Y-50424726D01*
X78225061Y-50464500D01*
X78428939Y-50464500D01*
X78628898Y-50424726D01*
X78817256Y-50346705D01*
X78986774Y-50233437D01*
X79130937Y-50089274D01*
X79244205Y-49919756D01*
X79295921Y-49794903D01*
X79430054Y-49866598D01*
X79617286Y-49923394D01*
X79812000Y-49942572D01*
X79992000Y-49942572D01*
X80186714Y-49923394D01*
X80373946Y-49866598D01*
X80546499Y-49774367D01*
X80697743Y-49650243D01*
X80821867Y-49498999D01*
X80914098Y-49326446D01*
X80970894Y-49139214D01*
X80990072Y-48944500D01*
X80990072Y-47664500D01*
X80970894Y-47469786D01*
X80914098Y-47282554D01*
X80821867Y-47110001D01*
X80697743Y-46958757D01*
X80546499Y-46834633D01*
X80373946Y-46742402D01*
X80186714Y-46685606D01*
X79992000Y-46666428D01*
X79812000Y-46666428D01*
X79617286Y-46685606D01*
X79430054Y-46742402D01*
X79257501Y-46834633D01*
X79106257Y-46958757D01*
X78982133Y-47110001D01*
X78889902Y-47282554D01*
X78833106Y-47469786D01*
X78813928Y-47664500D01*
X78813928Y-48510916D01*
X78628898Y-48434274D01*
X78465072Y-48401687D01*
X78465072Y-47779500D01*
X78452812Y-47655018D01*
X78416502Y-47535320D01*
X78357537Y-47425006D01*
X78278185Y-47328315D01*
X78181494Y-47248963D01*
X78071180Y-47189998D01*
X77951482Y-47153688D01*
X77827000Y-47141428D01*
X77427000Y-47141428D01*
X77302518Y-47153688D01*
X77302000Y-47153845D01*
X77301482Y-47153688D01*
X77177000Y-47141428D01*
X76777000Y-47141428D01*
X76652518Y-47153688D01*
X76652000Y-47153845D01*
X76651482Y-47153688D01*
X76527000Y-47141428D01*
X76127000Y-47141428D01*
X76002518Y-47153688D01*
X76002000Y-47153845D01*
X76001482Y-47153688D01*
X75878500Y-47141576D01*
X75878500Y-38714969D01*
X75882781Y-38671500D01*
X75882387Y-38667500D01*
X78490001Y-38667500D01*
X78490001Y-39263021D01*
X78485719Y-39306500D01*
X78502805Y-39479990D01*
X78553412Y-39646813D01*
X78635590Y-39800559D01*
X78718468Y-39901546D01*
X78718471Y-39901549D01*
X78746184Y-39935317D01*
X78779952Y-39963030D01*
X78972466Y-40155544D01*
X79000183Y-40189317D01*
X79134941Y-40299911D01*
X79288687Y-40382089D01*
X79455510Y-40432695D01*
X79585523Y-40445500D01*
X79585533Y-40445500D01*
X79628999Y-40449781D01*
X79672465Y-40445500D01*
X81109531Y-40445500D01*
X81153000Y-40449781D01*
X81196469Y-40445500D01*
X81196477Y-40445500D01*
X81326490Y-40432695D01*
X81493313Y-40382089D01*
X81647059Y-40299911D01*
X81781817Y-40189317D01*
X81809534Y-40155544D01*
X84073007Y-37892072D01*
X84184500Y-37892072D01*
X84355316Y-37875248D01*
X84519567Y-37825423D01*
X84670942Y-37744512D01*
X84803623Y-37635623D01*
X84912512Y-37502942D01*
X84940001Y-37451514D01*
X84940001Y-50792712D01*
X84888998Y-51312883D01*
X84747307Y-51782186D01*
X84517161Y-52215028D01*
X84207323Y-52594927D01*
X83829600Y-52907406D01*
X83398373Y-53140569D01*
X82930073Y-53285532D01*
X82411847Y-53340000D01*
X80218658Y-53340000D01*
X80318388Y-53309747D01*
X80506501Y-53209199D01*
X80671384Y-53073883D01*
X80806700Y-52909000D01*
X80907248Y-52720887D01*
X80969166Y-52516772D01*
X80990073Y-52304500D01*
X80990073Y-51204500D01*
X80969166Y-50992228D01*
X80907248Y-50788113D01*
X80806700Y-50600000D01*
X80671384Y-50435117D01*
X80506501Y-50299801D01*
X80318388Y-50199253D01*
X80114273Y-50137335D01*
X79902001Y-50116428D01*
X79901999Y-50116428D01*
X79689727Y-50137335D01*
X79485612Y-50199253D01*
X79297499Y-50299801D01*
X79132616Y-50435117D01*
X78997300Y-50600000D01*
X78896752Y-50788113D01*
X78834834Y-50992228D01*
X78813927Y-51204500D01*
X78813927Y-52304500D01*
X78834834Y-52516772D01*
X78896752Y-52720887D01*
X78997300Y-52909000D01*
X79132616Y-53073883D01*
X79297499Y-53209199D01*
X79485612Y-53309747D01*
X79585342Y-53340000D01*
X73146800Y-53340000D01*
X73223946Y-53316598D01*
X73396499Y-53224367D01*
X73547743Y-53100243D01*
X73671867Y-52948999D01*
X73764098Y-52776446D01*
X73820894Y-52589214D01*
X73840072Y-52394500D01*
X73840072Y-51114500D01*
X73820894Y-50919786D01*
X73764098Y-50732554D01*
X73671867Y-50560001D01*
X73547743Y-50408757D01*
X73396499Y-50284633D01*
X73223946Y-50192402D01*
X73036714Y-50135606D01*
X72842000Y-50116428D01*
X72662000Y-50116428D01*
X72467286Y-50135606D01*
X72280054Y-50192402D01*
X72107501Y-50284633D01*
X71956257Y-50408757D01*
X71832133Y-50560001D01*
X71739902Y-50732554D01*
X71683106Y-50919786D01*
X71663928Y-51114500D01*
X71663928Y-52394500D01*
X71683106Y-52589214D01*
X71739902Y-52776446D01*
X71832133Y-52948999D01*
X71956257Y-53100243D01*
X72107501Y-53224367D01*
X72280054Y-53316598D01*
X72357200Y-53340000D01*
X69977000Y-53340000D01*
X69977000Y-52698548D01*
X70083776Y-52641474D01*
X70199501Y-52546501D01*
X70223304Y-52517497D01*
X70646748Y-52094053D01*
X70675751Y-52070251D01*
X70770724Y-51954526D01*
X70841296Y-51822497D01*
X70884753Y-51679236D01*
X70895750Y-51567583D01*
X70895750Y-51567574D01*
X70899426Y-51530251D01*
X70895750Y-51492928D01*
X70895750Y-47528461D01*
X71552700Y-46871512D01*
X71552704Y-46871507D01*
X72405007Y-46019205D01*
X72410255Y-46021379D01*
X72610214Y-46061153D01*
X72814092Y-46061153D01*
X73014051Y-46021379D01*
X73202409Y-45943358D01*
X73371927Y-45830090D01*
X73516090Y-45685927D01*
X73629358Y-45516409D01*
X73707379Y-45328051D01*
X73747153Y-45128092D01*
X73747153Y-44924214D01*
X73707379Y-44724255D01*
X73629358Y-44535897D01*
X73618466Y-44519596D01*
X73635171Y-44494595D01*
X73713192Y-44306237D01*
X73752966Y-44106278D01*
X73752966Y-43902400D01*
X73713192Y-43702441D01*
X73635171Y-43514083D01*
X73629005Y-43504855D01*
X73688205Y-43416256D01*
X73766226Y-43227898D01*
X73806000Y-43027939D01*
X73806000Y-42824061D01*
X73766226Y-42624102D01*
X73688205Y-42435744D01*
X73574937Y-42266226D01*
X73430774Y-42122063D01*
X73261256Y-42008795D01*
X73072898Y-41930774D01*
X72872939Y-41891000D01*
X72669061Y-41891000D01*
X72469102Y-41930774D01*
X72280744Y-42008795D01*
X72111226Y-42122063D01*
X71967063Y-42266226D01*
X71853795Y-42435744D01*
X71775774Y-42624102D01*
X71736000Y-42824061D01*
X71736000Y-42886198D01*
X70995699Y-43626500D01*
X69479517Y-43626500D01*
X69453982Y-43542321D01*
X69395017Y-43432007D01*
X69315665Y-43335316D01*
X69218974Y-43255964D01*
X69108660Y-43196999D01*
X68988962Y-43160689D01*
X68864480Y-43148429D01*
X66864484Y-43148429D01*
X66740002Y-43160689D01*
X66620304Y-43196999D01*
X66509990Y-43255964D01*
X66413299Y-43335316D01*
X66333947Y-43432007D01*
X66274982Y-43542321D01*
X66238672Y-43662019D01*
X66236113Y-43688000D01*
X57283959Y-43688000D01*
X57388398Y-43667226D01*
X57576756Y-43589205D01*
X57746274Y-43475937D01*
X57890437Y-43331774D01*
X58003705Y-43162256D01*
X58081726Y-42973898D01*
X58121500Y-42773939D01*
X58121500Y-42570061D01*
X58081726Y-42370102D01*
X58003705Y-42181744D01*
X57890437Y-42012226D01*
X57746274Y-41868063D01*
X57576756Y-41754795D01*
X57414896Y-41687750D01*
X57576756Y-41620705D01*
X57746274Y-41507437D01*
X57890437Y-41363274D01*
X58003705Y-41193756D01*
X58081726Y-41005398D01*
X58121500Y-40805439D01*
X58121500Y-40601561D01*
X58081726Y-40401602D01*
X58003705Y-40213244D01*
X57890437Y-40043726D01*
X57746274Y-39899563D01*
X57576756Y-39786295D01*
X57388398Y-39708274D01*
X57188439Y-39668500D01*
X56984561Y-39668500D01*
X56784602Y-39708274D01*
X56596244Y-39786295D01*
X56453011Y-39882000D01*
X55910454Y-39882000D01*
X55862256Y-39849795D01*
X55673898Y-39771774D01*
X55473939Y-39732000D01*
X55270061Y-39732000D01*
X55070102Y-39771774D01*
X54881744Y-39849795D01*
X54712226Y-39963063D01*
X54568063Y-40107226D01*
X54454795Y-40276744D01*
X54376774Y-40465102D01*
X54337000Y-40665061D01*
X54337000Y-40868939D01*
X54376774Y-41068898D01*
X54454795Y-41257256D01*
X54568063Y-41426774D01*
X54712226Y-41570937D01*
X54881744Y-41684205D01*
X54890302Y-41687750D01*
X54881744Y-41691295D01*
X54712226Y-41804563D01*
X54568063Y-41948726D01*
X54454795Y-42118244D01*
X54376774Y-42306602D01*
X54365465Y-42363456D01*
X53227422Y-43501500D01*
X52486784Y-43501500D01*
X52484000Y-43492322D01*
X52425035Y-43382008D01*
X52345683Y-43285317D01*
X52248992Y-43205965D01*
X52138678Y-43147000D01*
X52018980Y-43110690D01*
X51894498Y-43098430D01*
X50594502Y-43098430D01*
X50470020Y-43110690D01*
X50350322Y-43147000D01*
X50347649Y-43148429D01*
X48864520Y-43148429D01*
X48740038Y-43160689D01*
X48620340Y-43196999D01*
X48510026Y-43255964D01*
X48413335Y-43335316D01*
X48333983Y-43432007D01*
X48275018Y-43542321D01*
X48238708Y-43662019D01*
X48236149Y-43688000D01*
X39306500Y-43688000D01*
X39281724Y-43690440D01*
X39257899Y-43697667D01*
X39235943Y-43709403D01*
X39216697Y-43725197D01*
X39200903Y-43744443D01*
X39189167Y-43766399D01*
X39181940Y-43790224D01*
X39179500Y-43815000D01*
X39179500Y-53340000D01*
X3207278Y-53340000D01*
X2687117Y-53288998D01*
X2217814Y-53147307D01*
X1784972Y-52917161D01*
X1405073Y-52607323D01*
X1092594Y-52229600D01*
X859431Y-51798373D01*
X714468Y-51330073D01*
X660000Y-50811847D01*
X660000Y-41246501D01*
X48226448Y-41246501D01*
X48226448Y-42446499D01*
X48238708Y-42570981D01*
X48275018Y-42690679D01*
X48333983Y-42800993D01*
X48413335Y-42897684D01*
X48510026Y-42977036D01*
X48620340Y-43036001D01*
X48740038Y-43072311D01*
X48864520Y-43084571D01*
X50864516Y-43084571D01*
X50988998Y-43072311D01*
X51108696Y-43036001D01*
X51219010Y-42977036D01*
X51315701Y-42897684D01*
X51395053Y-42800993D01*
X51454018Y-42690679D01*
X51490328Y-42570981D01*
X51502588Y-42446499D01*
X51502588Y-41246501D01*
X51490328Y-41122019D01*
X51454018Y-41002321D01*
X51395053Y-40892007D01*
X51315701Y-40795316D01*
X51219010Y-40715964D01*
X51108696Y-40656999D01*
X50988998Y-40620689D01*
X50864516Y-40608429D01*
X48864520Y-40608429D01*
X48740038Y-40620689D01*
X48620340Y-40656999D01*
X48510026Y-40715964D01*
X48413335Y-40795316D01*
X48333983Y-40892007D01*
X48275018Y-41002321D01*
X48238708Y-41122019D01*
X48226448Y-41246501D01*
X660000Y-41246501D01*
X660000Y-38706501D01*
X48226448Y-38706501D01*
X48226448Y-39906499D01*
X48238708Y-40030981D01*
X48275018Y-40150679D01*
X48333983Y-40260993D01*
X48413335Y-40357684D01*
X48510026Y-40437036D01*
X48620340Y-40496001D01*
X48740038Y-40532311D01*
X48864520Y-40544571D01*
X50864516Y-40544571D01*
X50988998Y-40532311D01*
X51108696Y-40496001D01*
X51219010Y-40437036D01*
X51315701Y-40357684D01*
X51395053Y-40260993D01*
X51454018Y-40150679D01*
X51490328Y-40030981D01*
X51502588Y-39906499D01*
X51502588Y-38706501D01*
X51490328Y-38582019D01*
X51454018Y-38462321D01*
X51395053Y-38352007D01*
X51315701Y-38255316D01*
X51219010Y-38175964D01*
X51108696Y-38116999D01*
X50988998Y-38080689D01*
X50864516Y-38068429D01*
X48864520Y-38068429D01*
X48740038Y-38080689D01*
X48620340Y-38116999D01*
X48510026Y-38175964D01*
X48413335Y-38255316D01*
X48333983Y-38352007D01*
X48275018Y-38462321D01*
X48238708Y-38582019D01*
X48226448Y-38706501D01*
X660000Y-38706501D01*
X660000Y-36166501D01*
X48226448Y-36166501D01*
X48226448Y-37366499D01*
X48238708Y-37490981D01*
X48275018Y-37610679D01*
X48333983Y-37720993D01*
X48413335Y-37817684D01*
X48510026Y-37897036D01*
X48620340Y-37956001D01*
X48740038Y-37992311D01*
X48864520Y-38004571D01*
X50864516Y-38004571D01*
X50988998Y-37992311D01*
X51108696Y-37956001D01*
X51219010Y-37897036D01*
X51315701Y-37817684D01*
X51395053Y-37720993D01*
X51414038Y-37685475D01*
X57229502Y-37685475D01*
X57229502Y-38007541D01*
X57292334Y-38323419D01*
X57415584Y-38620970D01*
X57594514Y-38888758D01*
X57822250Y-39116494D01*
X58090038Y-39295424D01*
X58387589Y-39418674D01*
X58703467Y-39481506D01*
X59025533Y-39481506D01*
X59341411Y-39418674D01*
X59638962Y-39295424D01*
X59906750Y-39116494D01*
X60134486Y-38888758D01*
X60313416Y-38620970D01*
X60436666Y-38323419D01*
X60499498Y-38007541D01*
X60499498Y-37685475D01*
X60436666Y-37369597D01*
X60313416Y-37072046D01*
X60134486Y-36804258D01*
X59906750Y-36576522D01*
X59638962Y-36397592D01*
X59341411Y-36274342D01*
X59025533Y-36211510D01*
X58703467Y-36211510D01*
X58387589Y-36274342D01*
X58090038Y-36397592D01*
X57822250Y-36576522D01*
X57594514Y-36804258D01*
X57415584Y-37072046D01*
X57292334Y-37369597D01*
X57229502Y-37685475D01*
X51414038Y-37685475D01*
X51454018Y-37610679D01*
X51490328Y-37490981D01*
X51502588Y-37366499D01*
X51502588Y-36166501D01*
X51490328Y-36042019D01*
X51454018Y-35922321D01*
X51395053Y-35812007D01*
X51315701Y-35715316D01*
X51219010Y-35635964D01*
X51108696Y-35576999D01*
X50988998Y-35540689D01*
X50864516Y-35528429D01*
X48864520Y-35528429D01*
X48740038Y-35540689D01*
X48620340Y-35576999D01*
X48510026Y-35635964D01*
X48413335Y-35715316D01*
X48333983Y-35812007D01*
X48275018Y-35922321D01*
X48238708Y-36042019D01*
X48226448Y-36166501D01*
X660000Y-36166501D01*
X660000Y-34124561D01*
X46463000Y-34124561D01*
X46463000Y-34328439D01*
X46502774Y-34528398D01*
X46580795Y-34716756D01*
X46694063Y-34886274D01*
X46838226Y-35030437D01*
X47007744Y-35143705D01*
X47196102Y-35221726D01*
X47396061Y-35261500D01*
X47599939Y-35261500D01*
X47799898Y-35221726D01*
X47988256Y-35143705D01*
X48157774Y-35030437D01*
X48201711Y-34986500D01*
X48249483Y-34986500D01*
X48275018Y-35070679D01*
X48333983Y-35180993D01*
X48413335Y-35277684D01*
X48510026Y-35357036D01*
X48620340Y-35416001D01*
X48740038Y-35452311D01*
X48864520Y-35464571D01*
X50864516Y-35464571D01*
X50988998Y-35452311D01*
X51108696Y-35416001D01*
X51219010Y-35357036D01*
X51315701Y-35277684D01*
X51395053Y-35180993D01*
X51454018Y-35070679D01*
X51490328Y-34950981D01*
X51502588Y-34826499D01*
X51502588Y-33626501D01*
X51490328Y-33502019D01*
X51454018Y-33382321D01*
X51395053Y-33272007D01*
X51315701Y-33175316D01*
X51219010Y-33095964D01*
X51108696Y-33036999D01*
X50988998Y-33000689D01*
X50864516Y-32988429D01*
X48864520Y-32988429D01*
X48740038Y-33000689D01*
X48620340Y-33036999D01*
X48510026Y-33095964D01*
X48413335Y-33175316D01*
X48333983Y-33272007D01*
X48275018Y-33382321D01*
X48249483Y-33466500D01*
X48201711Y-33466500D01*
X48157774Y-33422563D01*
X47988256Y-33309295D01*
X47799898Y-33231274D01*
X47599939Y-33191500D01*
X47396061Y-33191500D01*
X47196102Y-33231274D01*
X47007744Y-33309295D01*
X46838226Y-33422563D01*
X46694063Y-33566726D01*
X46580795Y-33736244D01*
X46502774Y-33924602D01*
X46463000Y-34124561D01*
X660000Y-34124561D01*
X660000Y-32286499D01*
X48226448Y-32286499D01*
X48238708Y-32410981D01*
X48275018Y-32530679D01*
X48333983Y-32640993D01*
X48413335Y-32737684D01*
X48510026Y-32817036D01*
X48620340Y-32876001D01*
X48740038Y-32912311D01*
X48864520Y-32924571D01*
X49578768Y-32921499D01*
X49737518Y-32762749D01*
X49737518Y-32011970D01*
X49951403Y-32011970D01*
X49991518Y-32131396D01*
X49991518Y-32762749D01*
X50150268Y-32921499D01*
X50864516Y-32924571D01*
X50869584Y-32924072D01*
X50918026Y-32939872D01*
X50954899Y-32915669D01*
X50988998Y-32912311D01*
X51108696Y-32876001D01*
X51219010Y-32817036D01*
X51315701Y-32737684D01*
X51371500Y-32669693D01*
X51371500Y-32808941D01*
X51570974Y-32939872D01*
X51810182Y-32861851D01*
X52029573Y-32738662D01*
X52220715Y-32575039D01*
X52376263Y-32377270D01*
X52490240Y-32152956D01*
X52537597Y-32011970D01*
X52413565Y-31813500D01*
X51371500Y-31813500D01*
X51371500Y-31844234D01*
X51340766Y-31813500D01*
X49991518Y-31813500D01*
X49991518Y-31947780D01*
X49951403Y-32011970D01*
X49737518Y-32011970D01*
X49737518Y-31813500D01*
X48388270Y-31813500D01*
X48229520Y-31972250D01*
X48226448Y-32286499D01*
X660000Y-32286499D01*
X660000Y-31086501D01*
X48226448Y-31086501D01*
X48229520Y-31400750D01*
X48388270Y-31559500D01*
X49737518Y-31559500D01*
X49737518Y-31361030D01*
X49951403Y-31361030D01*
X49991518Y-31425220D01*
X49991518Y-31559500D01*
X51340766Y-31559500D01*
X51371500Y-31528766D01*
X51371500Y-31559500D01*
X52413565Y-31559500D01*
X52537597Y-31361030D01*
X52490240Y-31220044D01*
X52376263Y-30995730D01*
X52220715Y-30797961D01*
X52029573Y-30634338D01*
X51810182Y-30511149D01*
X51570974Y-30433128D01*
X51371500Y-30564059D01*
X51371500Y-30703307D01*
X51315701Y-30635316D01*
X51219010Y-30555964D01*
X51108696Y-30496999D01*
X50988998Y-30460689D01*
X50954899Y-30457331D01*
X50918026Y-30433128D01*
X50869584Y-30448928D01*
X50864516Y-30448429D01*
X50150268Y-30451501D01*
X49991518Y-30610251D01*
X49991518Y-31241604D01*
X49951403Y-31361030D01*
X49737518Y-31361030D01*
X49737518Y-30610251D01*
X49578768Y-30451501D01*
X48864520Y-30448429D01*
X48740038Y-30460689D01*
X48620340Y-30496999D01*
X48510026Y-30555964D01*
X48413335Y-30635316D01*
X48333983Y-30732007D01*
X48275018Y-30842321D01*
X48238708Y-30962019D01*
X48226448Y-31086501D01*
X660000Y-31086501D01*
X660000Y-28846526D01*
X53816429Y-28846526D01*
X53816429Y-30846522D01*
X53828689Y-30971004D01*
X53864999Y-31090702D01*
X53923964Y-31201016D01*
X54003316Y-31297707D01*
X54100007Y-31377059D01*
X54210321Y-31436024D01*
X54330019Y-31472334D01*
X54454501Y-31484594D01*
X55654499Y-31484594D01*
X55778981Y-31472334D01*
X55898679Y-31436024D01*
X56008993Y-31377059D01*
X56105684Y-31297707D01*
X56185036Y-31201016D01*
X56244001Y-31090702D01*
X56280311Y-30971004D01*
X56292571Y-30846522D01*
X56292571Y-28846526D01*
X56356429Y-28846526D01*
X56356429Y-30846522D01*
X56368689Y-30971004D01*
X56404999Y-31090702D01*
X56463964Y-31201016D01*
X56543316Y-31297707D01*
X56640007Y-31377059D01*
X56750321Y-31436024D01*
X56870019Y-31472334D01*
X56994501Y-31484594D01*
X58194499Y-31484594D01*
X58318981Y-31472334D01*
X58438679Y-31436024D01*
X58548993Y-31377059D01*
X58645684Y-31297707D01*
X58725036Y-31201016D01*
X58784001Y-31090702D01*
X58820311Y-30971004D01*
X58832571Y-30846522D01*
X58832571Y-28846526D01*
X58896429Y-28846526D01*
X58896429Y-30846522D01*
X58908689Y-30971004D01*
X58944999Y-31090702D01*
X59003964Y-31201016D01*
X59083316Y-31297707D01*
X59180007Y-31377059D01*
X59290321Y-31436024D01*
X59410019Y-31472334D01*
X59534501Y-31484594D01*
X60734499Y-31484594D01*
X60858981Y-31472334D01*
X60978679Y-31436024D01*
X61088993Y-31377059D01*
X61185684Y-31297707D01*
X61265036Y-31201016D01*
X61324001Y-31090702D01*
X61360311Y-30971004D01*
X61372571Y-30846522D01*
X61436429Y-30846522D01*
X61448689Y-30971004D01*
X61484999Y-31090702D01*
X61543964Y-31201016D01*
X61623316Y-31297707D01*
X61720007Y-31377059D01*
X61830321Y-31436024D01*
X61950019Y-31472334D01*
X62074501Y-31484594D01*
X62388750Y-31481522D01*
X62547500Y-31322772D01*
X62547500Y-29973524D01*
X61598251Y-29973524D01*
X61439501Y-30132274D01*
X61436429Y-30846522D01*
X61372571Y-30846522D01*
X61372571Y-28846526D01*
X61436429Y-28846526D01*
X61439501Y-29560774D01*
X61598251Y-29719524D01*
X62547500Y-29719524D01*
X62547500Y-28370276D01*
X62388750Y-28211526D01*
X62074501Y-28208454D01*
X61950019Y-28220714D01*
X61830321Y-28257024D01*
X61720007Y-28315989D01*
X61623316Y-28395341D01*
X61543964Y-28492032D01*
X61484999Y-28602346D01*
X61448689Y-28722044D01*
X61436429Y-28846526D01*
X61372571Y-28846526D01*
X61360311Y-28722044D01*
X61324001Y-28602346D01*
X61265036Y-28492032D01*
X61185684Y-28395341D01*
X61088993Y-28315989D01*
X60978679Y-28257024D01*
X60858981Y-28220714D01*
X60734499Y-28208454D01*
X59534501Y-28208454D01*
X59410019Y-28220714D01*
X59290321Y-28257024D01*
X59180007Y-28315989D01*
X59083316Y-28395341D01*
X59003964Y-28492032D01*
X58944999Y-28602346D01*
X58908689Y-28722044D01*
X58896429Y-28846526D01*
X58832571Y-28846526D01*
X58820311Y-28722044D01*
X58784001Y-28602346D01*
X58725036Y-28492032D01*
X58645684Y-28395341D01*
X58548993Y-28315989D01*
X58438679Y-28257024D01*
X58318981Y-28220714D01*
X58194499Y-28208454D01*
X56994501Y-28208454D01*
X56870019Y-28220714D01*
X56750321Y-28257024D01*
X56640007Y-28315989D01*
X56543316Y-28395341D01*
X56463964Y-28492032D01*
X56404999Y-28602346D01*
X56368689Y-28722044D01*
X56356429Y-28846526D01*
X56292571Y-28846526D01*
X56280311Y-28722044D01*
X56244001Y-28602346D01*
X56185036Y-28492032D01*
X56105684Y-28395341D01*
X56008993Y-28315989D01*
X55898679Y-28257024D01*
X55778981Y-28220714D01*
X55654499Y-28208454D01*
X54454501Y-28208454D01*
X54330019Y-28220714D01*
X54210321Y-28257024D01*
X54100007Y-28315989D01*
X54003316Y-28395341D01*
X53923964Y-28492032D01*
X53864999Y-28602346D01*
X53828689Y-28722044D01*
X53816429Y-28846526D01*
X660000Y-28846526D01*
X660000Y-3207278D01*
X711002Y-2687116D01*
X852694Y-2217812D01*
X1082837Y-1784975D01*
X1392678Y-1405073D01*
X1770397Y-1092597D01*
X2201627Y-859431D01*
X2669928Y-714468D01*
X3188153Y-660000D01*
X79770769Y-660000D01*
X79740550Y-759617D01*
G04 #@! TA.AperFunction,Conductor*
D26*
G36*
X79740550Y-759617D02*
G01*
X79727807Y-889000D01*
X79731000Y-921419D01*
X79731000Y-9010422D01*
X79460032Y-8739454D01*
X79432317Y-8705683D01*
X79297559Y-8595089D01*
X79143813Y-8512911D01*
X78976990Y-8462305D01*
X78846977Y-8449500D01*
X78846969Y-8449500D01*
X78803500Y-8445219D01*
X78760031Y-8449500D01*
X71583215Y-8449500D01*
X71501989Y-8441500D01*
X71501981Y-8441500D01*
X71458512Y-8437219D01*
X71415043Y-8441500D01*
X69424522Y-8441500D01*
X69433705Y-8427756D01*
X69511726Y-8239398D01*
X69551500Y-8039439D01*
X69551500Y-7835561D01*
X69511726Y-7635602D01*
X69433705Y-7447244D01*
X69320437Y-7277726D01*
X69176274Y-7133563D01*
X69006756Y-7020295D01*
X68818398Y-6942274D01*
X68618439Y-6902500D01*
X68414561Y-6902500D01*
X68214602Y-6942274D01*
X68026244Y-7020295D01*
X67856726Y-7133563D01*
X67812789Y-7177500D01*
X67588500Y-7177500D01*
X67588500Y-7099498D01*
X67508752Y-7099498D01*
X67588500Y-7019750D01*
X67577766Y-6919487D01*
X67540017Y-6800236D01*
X67479728Y-6690640D01*
X67399216Y-6594912D01*
X67301576Y-6516730D01*
X67190559Y-6459099D01*
X67070433Y-6424234D01*
X66945812Y-6413474D01*
X66239250Y-6416500D01*
X66080500Y-6575250D01*
X66080500Y-7113428D01*
X65826500Y-7113428D01*
X65826500Y-6575250D01*
X65667750Y-6416500D01*
X64961188Y-6413474D01*
X64836567Y-6424234D01*
X64716441Y-6459099D01*
X64605424Y-6516730D01*
X64507784Y-6594912D01*
X64427272Y-6690640D01*
X64366983Y-6800236D01*
X64329234Y-6919487D01*
X64318500Y-7019750D01*
X64477250Y-7178500D01*
X64678447Y-7178500D01*
X64599006Y-7220963D01*
X64533771Y-7274500D01*
X64477250Y-7274500D01*
X64318500Y-7433250D01*
X64329234Y-7533513D01*
X64342929Y-7576776D01*
X64327688Y-7627018D01*
X64315428Y-7751500D01*
X64315428Y-8101500D01*
X64327688Y-8225982D01*
X64343012Y-8276500D01*
X64327688Y-8327018D01*
X64315428Y-8451500D01*
X64315428Y-8801500D01*
X64327688Y-8925982D01*
X64343012Y-8976500D01*
X64327688Y-9027018D01*
X64315428Y-9151500D01*
X64315428Y-9501500D01*
X64327688Y-9625982D01*
X64342929Y-9676224D01*
X64329234Y-9719487D01*
X64318500Y-9819750D01*
X64477250Y-9978500D01*
X64533771Y-9978500D01*
X64592735Y-10026890D01*
X64533276Y-10074500D01*
X64477250Y-10074500D01*
X64318500Y-10233250D01*
X64329234Y-10333513D01*
X64342842Y-10376500D01*
X64329234Y-10419487D01*
X64318500Y-10519750D01*
X64398248Y-10599498D01*
X64318500Y-10599498D01*
X64318500Y-10676366D01*
X64307014Y-10677497D01*
X64163753Y-10720954D01*
X64031724Y-10791526D01*
X63915999Y-10886499D01*
X63892196Y-10915503D01*
X63667487Y-11140212D01*
X63638489Y-11164010D01*
X63614691Y-11193008D01*
X63614690Y-11193009D01*
X63543515Y-11279735D01*
X63472943Y-11411765D01*
X63463469Y-11442998D01*
X63434189Y-11539526D01*
X63429487Y-11555026D01*
X63414813Y-11704011D01*
X63418490Y-11741344D01*
X63418489Y-28226632D01*
X63398981Y-28220714D01*
X63274499Y-28208454D01*
X62960250Y-28211526D01*
X62801500Y-28370276D01*
X62801500Y-29719524D01*
X62821500Y-29719524D01*
X62821500Y-29973524D01*
X62801500Y-29973524D01*
X62801500Y-31322772D01*
X62960250Y-31481522D01*
X63274499Y-31484594D01*
X63398981Y-31472334D01*
X63418489Y-31466416D01*
X63418489Y-39503167D01*
X63414813Y-39540489D01*
X63418489Y-39577811D01*
X63418489Y-39577821D01*
X63429486Y-39689474D01*
X63442990Y-39733990D01*
X63472943Y-39832735D01*
X63543515Y-39964765D01*
X63582318Y-40012046D01*
X63638488Y-40080490D01*
X63667492Y-40104293D01*
X65920701Y-42357503D01*
X65944499Y-42386501D01*
X65973497Y-42410299D01*
X66060223Y-42481474D01*
X66192253Y-42552046D01*
X66238179Y-42565977D01*
X66238672Y-42570981D01*
X66274982Y-42690679D01*
X66333947Y-42800993D01*
X66413299Y-42897684D01*
X66509990Y-42977036D01*
X66620304Y-43036001D01*
X66740002Y-43072311D01*
X66864484Y-43084571D01*
X68864480Y-43084571D01*
X68988962Y-43072311D01*
X69108660Y-43036001D01*
X69218974Y-42977036D01*
X69315665Y-42897684D01*
X69395017Y-42800993D01*
X69453982Y-42690679D01*
X69490292Y-42570981D01*
X69502552Y-42446499D01*
X69502552Y-41246501D01*
X69490292Y-41122019D01*
X69453982Y-41002321D01*
X69395017Y-40892007D01*
X69315665Y-40795316D01*
X69218974Y-40715964D01*
X69108660Y-40656999D01*
X68988962Y-40620689D01*
X68864480Y-40608429D01*
X66864484Y-40608429D01*
X66740002Y-40620689D01*
X66620304Y-40656999D01*
X66509990Y-40715964D01*
X66465378Y-40752576D01*
X65779301Y-40066500D01*
X66249447Y-40066500D01*
X66274982Y-40150679D01*
X66333947Y-40260993D01*
X66413299Y-40357684D01*
X66509990Y-40437036D01*
X66620304Y-40496001D01*
X66740002Y-40532311D01*
X66864484Y-40544571D01*
X68864480Y-40544571D01*
X68988962Y-40532311D01*
X69108660Y-40496001D01*
X69218974Y-40437036D01*
X69315665Y-40357684D01*
X69395017Y-40260993D01*
X69453982Y-40150679D01*
X69490292Y-40030981D01*
X69502552Y-39906499D01*
X69502552Y-38706501D01*
X69490292Y-38582019D01*
X69453982Y-38462321D01*
X69395017Y-38352007D01*
X69315665Y-38255316D01*
X69218974Y-38175964D01*
X69108660Y-38116999D01*
X68988962Y-38080689D01*
X68864480Y-38068429D01*
X66864484Y-38068429D01*
X66740002Y-38080689D01*
X66620304Y-38116999D01*
X66509990Y-38175964D01*
X66413299Y-38255316D01*
X66333947Y-38352007D01*
X66274982Y-38462321D01*
X66249447Y-38546500D01*
X65910302Y-38546500D01*
X65388499Y-38024698D01*
X65388499Y-35372970D01*
X65430008Y-35407035D01*
X65540322Y-35466000D01*
X65660020Y-35502310D01*
X65784502Y-35514570D01*
X67184498Y-35514570D01*
X67308980Y-35502310D01*
X67428678Y-35466000D01*
X67431351Y-35464571D01*
X68864480Y-35464571D01*
X68988962Y-35452311D01*
X69108660Y-35416001D01*
X69218974Y-35357036D01*
X69315665Y-35277684D01*
X69395017Y-35180993D01*
X69432162Y-35111500D01*
X70275500Y-35111500D01*
X70275500Y-35139198D01*
X69462918Y-35951780D01*
X69453982Y-35922321D01*
X69395017Y-35812007D01*
X69315665Y-35715316D01*
X69218974Y-35635964D01*
X69108660Y-35576999D01*
X68988962Y-35540689D01*
X68864480Y-35528429D01*
X66864484Y-35528429D01*
X66740002Y-35540689D01*
X66620304Y-35576999D01*
X66509990Y-35635964D01*
X66413299Y-35715316D01*
X66333947Y-35812007D01*
X66274982Y-35922321D01*
X66238672Y-36042019D01*
X66226412Y-36166501D01*
X66226412Y-37366499D01*
X66238672Y-37490981D01*
X66274982Y-37610679D01*
X66333947Y-37720993D01*
X66413299Y-37817684D01*
X66509990Y-37897036D01*
X66620304Y-37956001D01*
X66740002Y-37992311D01*
X66864484Y-38004571D01*
X68864480Y-38004571D01*
X68988962Y-37992311D01*
X69108660Y-37956001D01*
X69218974Y-37897036D01*
X69315665Y-37817684D01*
X69395017Y-37720993D01*
X69453982Y-37610679D01*
X69479517Y-37526500D01*
X69685678Y-37526500D01*
X69723000Y-37530176D01*
X69760322Y-37526500D01*
X69760333Y-37526500D01*
X69871986Y-37515503D01*
X70015247Y-37472046D01*
X70147276Y-37401474D01*
X70263001Y-37306501D01*
X70286804Y-37277497D01*
X71350302Y-36214000D01*
X71412439Y-36214000D01*
X71612398Y-36174226D01*
X71800756Y-36096205D01*
X71886000Y-36039247D01*
X71886001Y-37231021D01*
X71881719Y-37274500D01*
X71898805Y-37447990D01*
X71949412Y-37614813D01*
X72031590Y-37768559D01*
X72114468Y-37869546D01*
X72114471Y-37869549D01*
X72142184Y-37903317D01*
X72175952Y-37931030D01*
X72622466Y-38377544D01*
X72650183Y-38411317D01*
X72784941Y-38521911D01*
X72938687Y-38604089D01*
X73105510Y-38654695D01*
X73235523Y-38667500D01*
X73235533Y-38667500D01*
X73278999Y-38671781D01*
X73322465Y-38667500D01*
X73737922Y-38667500D01*
X74108501Y-39038080D01*
X74108500Y-47768531D01*
X74104219Y-47812000D01*
X74108500Y-47855469D01*
X74108500Y-47855476D01*
X74121305Y-47985489D01*
X74142000Y-48053710D01*
X74142000Y-48411022D01*
X74025102Y-48434274D01*
X73840072Y-48510916D01*
X73840072Y-47664500D01*
X73820894Y-47469786D01*
X73764098Y-47282554D01*
X73671867Y-47110001D01*
X73547743Y-46958757D01*
X73396499Y-46834633D01*
X73223946Y-46742402D01*
X73036714Y-46685606D01*
X72842000Y-46666428D01*
X72662000Y-46666428D01*
X72467286Y-46685606D01*
X72280054Y-46742402D01*
X72107501Y-46834633D01*
X71956257Y-46958757D01*
X71832133Y-47110001D01*
X71739902Y-47282554D01*
X71683106Y-47469786D01*
X71663928Y-47664500D01*
X71663928Y-48944500D01*
X71683106Y-49139214D01*
X71739902Y-49326446D01*
X71832133Y-49498999D01*
X71956257Y-49650243D01*
X72107501Y-49774367D01*
X72280054Y-49866598D01*
X72467286Y-49923394D01*
X72662000Y-49942572D01*
X72842000Y-49942572D01*
X73036714Y-49923394D01*
X73223946Y-49866598D01*
X73358079Y-49794903D01*
X73409795Y-49919756D01*
X73523063Y-50089274D01*
X73667226Y-50233437D01*
X73836744Y-50346705D01*
X74025102Y-50424726D01*
X74225061Y-50464500D01*
X74428939Y-50464500D01*
X74628898Y-50424726D01*
X74817256Y-50346705D01*
X74935687Y-50267572D01*
X75227000Y-50267572D01*
X75351482Y-50255312D01*
X75352000Y-50255155D01*
X75352518Y-50255312D01*
X75477000Y-50267572D01*
X75877000Y-50267572D01*
X76001482Y-50255312D01*
X76002000Y-50255155D01*
X76002518Y-50255312D01*
X76127000Y-50267572D01*
X76527000Y-50267572D01*
X76651482Y-50255312D01*
X76652000Y-50255155D01*
X76652518Y-50255312D01*
X76777000Y-50267572D01*
X77177000Y-50267572D01*
X77301482Y-50255312D01*
X77302000Y-50255155D01*
X77302518Y-50255312D01*
X77427000Y-50267572D01*
X77718313Y-50267572D01*
X77836744Y-50346705D01*
X78025102Y-50424726D01*
X78225061Y-50464500D01*
X78428939Y-50464500D01*
X78628898Y-50424726D01*
X78817256Y-50346705D01*
X78986774Y-50233437D01*
X79130937Y-50089274D01*
X79244205Y-49919756D01*
X79295921Y-49794903D01*
X79430054Y-49866598D01*
X79617286Y-49923394D01*
X79812000Y-49942572D01*
X79992000Y-49942572D01*
X80186714Y-49923394D01*
X80373946Y-49866598D01*
X80546499Y-49774367D01*
X80697743Y-49650243D01*
X80821867Y-49498999D01*
X80914098Y-49326446D01*
X80970894Y-49139214D01*
X80990072Y-48944500D01*
X80990072Y-47664500D01*
X80970894Y-47469786D01*
X80914098Y-47282554D01*
X80821867Y-47110001D01*
X80697743Y-46958757D01*
X80546499Y-46834633D01*
X80373946Y-46742402D01*
X80186714Y-46685606D01*
X79992000Y-46666428D01*
X79812000Y-46666428D01*
X79617286Y-46685606D01*
X79430054Y-46742402D01*
X79257501Y-46834633D01*
X79106257Y-46958757D01*
X78982133Y-47110001D01*
X78889902Y-47282554D01*
X78833106Y-47469786D01*
X78813928Y-47664500D01*
X78813928Y-48510916D01*
X78628898Y-48434274D01*
X78465072Y-48401687D01*
X78465072Y-47779500D01*
X78452812Y-47655018D01*
X78416502Y-47535320D01*
X78357537Y-47425006D01*
X78278185Y-47328315D01*
X78181494Y-47248963D01*
X78071180Y-47189998D01*
X77951482Y-47153688D01*
X77827000Y-47141428D01*
X77427000Y-47141428D01*
X77302518Y-47153688D01*
X77302000Y-47153845D01*
X77301482Y-47153688D01*
X77177000Y-47141428D01*
X76777000Y-47141428D01*
X76652518Y-47153688D01*
X76652000Y-47153845D01*
X76651482Y-47153688D01*
X76527000Y-47141428D01*
X76127000Y-47141428D01*
X76002518Y-47153688D01*
X76002000Y-47153845D01*
X76001482Y-47153688D01*
X75878500Y-47141576D01*
X75878500Y-38714969D01*
X75882781Y-38671500D01*
X75882387Y-38667500D01*
X78490001Y-38667500D01*
X78490001Y-39263021D01*
X78485719Y-39306500D01*
X78502805Y-39479990D01*
X78553412Y-39646813D01*
X78635590Y-39800559D01*
X78718468Y-39901546D01*
X78718471Y-39901549D01*
X78746184Y-39935317D01*
X78779952Y-39963030D01*
X78972466Y-40155544D01*
X79000183Y-40189317D01*
X79134941Y-40299911D01*
X79288687Y-40382089D01*
X79455510Y-40432695D01*
X79585523Y-40445500D01*
X79585533Y-40445500D01*
X79628999Y-40449781D01*
X79672465Y-40445500D01*
X81109531Y-40445500D01*
X81153000Y-40449781D01*
X81196469Y-40445500D01*
X81196477Y-40445500D01*
X81326490Y-40432695D01*
X81493313Y-40382089D01*
X81647059Y-40299911D01*
X81781817Y-40189317D01*
X81809534Y-40155544D01*
X84073007Y-37892072D01*
X84184500Y-37892072D01*
X84355316Y-37875248D01*
X84519567Y-37825423D01*
X84670942Y-37744512D01*
X84803623Y-37635623D01*
X84912512Y-37502942D01*
X84940001Y-37451514D01*
X84940001Y-50792712D01*
X84888998Y-51312883D01*
X84747307Y-51782186D01*
X84517161Y-52215028D01*
X84207323Y-52594927D01*
X83829600Y-52907406D01*
X83398373Y-53140569D01*
X82930073Y-53285532D01*
X82411847Y-53340000D01*
X80218658Y-53340000D01*
X80318388Y-53309747D01*
X80506501Y-53209199D01*
X80671384Y-53073883D01*
X80806700Y-52909000D01*
X80907248Y-52720887D01*
X80969166Y-52516772D01*
X80990073Y-52304500D01*
X80990073Y-51204500D01*
X80969166Y-50992228D01*
X80907248Y-50788113D01*
X80806700Y-50600000D01*
X80671384Y-50435117D01*
X80506501Y-50299801D01*
X80318388Y-50199253D01*
X80114273Y-50137335D01*
X79902001Y-50116428D01*
X79901999Y-50116428D01*
X79689727Y-50137335D01*
X79485612Y-50199253D01*
X79297499Y-50299801D01*
X79132616Y-50435117D01*
X78997300Y-50600000D01*
X78896752Y-50788113D01*
X78834834Y-50992228D01*
X78813927Y-51204500D01*
X78813927Y-52304500D01*
X78834834Y-52516772D01*
X78896752Y-52720887D01*
X78997300Y-52909000D01*
X79132616Y-53073883D01*
X79297499Y-53209199D01*
X79485612Y-53309747D01*
X79585342Y-53340000D01*
X73146800Y-53340000D01*
X73223946Y-53316598D01*
X73396499Y-53224367D01*
X73547743Y-53100243D01*
X73671867Y-52948999D01*
X73764098Y-52776446D01*
X73820894Y-52589214D01*
X73840072Y-52394500D01*
X73840072Y-51114500D01*
X73820894Y-50919786D01*
X73764098Y-50732554D01*
X73671867Y-50560001D01*
X73547743Y-50408757D01*
X73396499Y-50284633D01*
X73223946Y-50192402D01*
X73036714Y-50135606D01*
X72842000Y-50116428D01*
X72662000Y-50116428D01*
X72467286Y-50135606D01*
X72280054Y-50192402D01*
X72107501Y-50284633D01*
X71956257Y-50408757D01*
X71832133Y-50560001D01*
X71739902Y-50732554D01*
X71683106Y-50919786D01*
X71663928Y-51114500D01*
X71663928Y-52394500D01*
X71683106Y-52589214D01*
X71739902Y-52776446D01*
X71832133Y-52948999D01*
X71956257Y-53100243D01*
X72107501Y-53224367D01*
X72280054Y-53316598D01*
X72357200Y-53340000D01*
X69977000Y-53340000D01*
X69977000Y-52698548D01*
X70083776Y-52641474D01*
X70199501Y-52546501D01*
X70223304Y-52517497D01*
X70646748Y-52094053D01*
X70675751Y-52070251D01*
X70770724Y-51954526D01*
X70841296Y-51822497D01*
X70884753Y-51679236D01*
X70895750Y-51567583D01*
X70895750Y-51567574D01*
X70899426Y-51530251D01*
X70895750Y-51492928D01*
X70895750Y-47528461D01*
X71552700Y-46871512D01*
X71552704Y-46871507D01*
X72405007Y-46019205D01*
X72410255Y-46021379D01*
X72610214Y-46061153D01*
X72814092Y-46061153D01*
X73014051Y-46021379D01*
X73202409Y-45943358D01*
X73371927Y-45830090D01*
X73516090Y-45685927D01*
X73629358Y-45516409D01*
X73707379Y-45328051D01*
X73747153Y-45128092D01*
X73747153Y-44924214D01*
X73707379Y-44724255D01*
X73629358Y-44535897D01*
X73618466Y-44519596D01*
X73635171Y-44494595D01*
X73713192Y-44306237D01*
X73752966Y-44106278D01*
X73752966Y-43902400D01*
X73713192Y-43702441D01*
X73635171Y-43514083D01*
X73629005Y-43504855D01*
X73688205Y-43416256D01*
X73766226Y-43227898D01*
X73806000Y-43027939D01*
X73806000Y-42824061D01*
X73766226Y-42624102D01*
X73688205Y-42435744D01*
X73574937Y-42266226D01*
X73430774Y-42122063D01*
X73261256Y-42008795D01*
X73072898Y-41930774D01*
X72872939Y-41891000D01*
X72669061Y-41891000D01*
X72469102Y-41930774D01*
X72280744Y-42008795D01*
X72111226Y-42122063D01*
X71967063Y-42266226D01*
X71853795Y-42435744D01*
X71775774Y-42624102D01*
X71736000Y-42824061D01*
X71736000Y-42886198D01*
X70995699Y-43626500D01*
X69479517Y-43626500D01*
X69453982Y-43542321D01*
X69395017Y-43432007D01*
X69315665Y-43335316D01*
X69218974Y-43255964D01*
X69108660Y-43196999D01*
X68988962Y-43160689D01*
X68864480Y-43148429D01*
X66864484Y-43148429D01*
X66740002Y-43160689D01*
X66620304Y-43196999D01*
X66509990Y-43255964D01*
X66413299Y-43335316D01*
X66333947Y-43432007D01*
X66274982Y-43542321D01*
X66238672Y-43662019D01*
X66236113Y-43688000D01*
X57283959Y-43688000D01*
X57388398Y-43667226D01*
X57576756Y-43589205D01*
X57746274Y-43475937D01*
X57890437Y-43331774D01*
X58003705Y-43162256D01*
X58081726Y-42973898D01*
X58121500Y-42773939D01*
X58121500Y-42570061D01*
X58081726Y-42370102D01*
X58003705Y-42181744D01*
X57890437Y-42012226D01*
X57746274Y-41868063D01*
X57576756Y-41754795D01*
X57414896Y-41687750D01*
X57576756Y-41620705D01*
X57746274Y-41507437D01*
X57890437Y-41363274D01*
X58003705Y-41193756D01*
X58081726Y-41005398D01*
X58121500Y-40805439D01*
X58121500Y-40601561D01*
X58081726Y-40401602D01*
X58003705Y-40213244D01*
X57890437Y-40043726D01*
X57746274Y-39899563D01*
X57576756Y-39786295D01*
X57388398Y-39708274D01*
X57188439Y-39668500D01*
X56984561Y-39668500D01*
X56784602Y-39708274D01*
X56596244Y-39786295D01*
X56453011Y-39882000D01*
X55910454Y-39882000D01*
X55862256Y-39849795D01*
X55673898Y-39771774D01*
X55473939Y-39732000D01*
X55270061Y-39732000D01*
X55070102Y-39771774D01*
X54881744Y-39849795D01*
X54712226Y-39963063D01*
X54568063Y-40107226D01*
X54454795Y-40276744D01*
X54376774Y-40465102D01*
X54337000Y-40665061D01*
X54337000Y-40868939D01*
X54376774Y-41068898D01*
X54454795Y-41257256D01*
X54568063Y-41426774D01*
X54712226Y-41570937D01*
X54881744Y-41684205D01*
X54890302Y-41687750D01*
X54881744Y-41691295D01*
X54712226Y-41804563D01*
X54568063Y-41948726D01*
X54454795Y-42118244D01*
X54376774Y-42306602D01*
X54365465Y-42363456D01*
X53227422Y-43501500D01*
X52486784Y-43501500D01*
X52484000Y-43492322D01*
X52425035Y-43382008D01*
X52345683Y-43285317D01*
X52248992Y-43205965D01*
X52138678Y-43147000D01*
X52018980Y-43110690D01*
X51894498Y-43098430D01*
X50594502Y-43098430D01*
X50470020Y-43110690D01*
X50350322Y-43147000D01*
X50347649Y-43148429D01*
X48864520Y-43148429D01*
X48740038Y-43160689D01*
X48620340Y-43196999D01*
X48510026Y-43255964D01*
X48413335Y-43335316D01*
X48333983Y-43432007D01*
X48275018Y-43542321D01*
X48238708Y-43662019D01*
X48236149Y-43688000D01*
X39306500Y-43688000D01*
X39281724Y-43690440D01*
X39257899Y-43697667D01*
X39235943Y-43709403D01*
X39216697Y-43725197D01*
X39200903Y-43744443D01*
X39189167Y-43766399D01*
X39181940Y-43790224D01*
X39179500Y-43815000D01*
X39179500Y-53340000D01*
X3207278Y-53340000D01*
X2687117Y-53288998D01*
X2217814Y-53147307D01*
X1784972Y-52917161D01*
X1405073Y-52607323D01*
X1092594Y-52229600D01*
X859431Y-51798373D01*
X714468Y-51330073D01*
X660000Y-50811847D01*
X660000Y-41246501D01*
X48226448Y-41246501D01*
X48226448Y-42446499D01*
X48238708Y-42570981D01*
X48275018Y-42690679D01*
X48333983Y-42800993D01*
X48413335Y-42897684D01*
X48510026Y-42977036D01*
X48620340Y-43036001D01*
X48740038Y-43072311D01*
X48864520Y-43084571D01*
X50864516Y-43084571D01*
X50988998Y-43072311D01*
X51108696Y-43036001D01*
X51219010Y-42977036D01*
X51315701Y-42897684D01*
X51395053Y-42800993D01*
X51454018Y-42690679D01*
X51490328Y-42570981D01*
X51502588Y-42446499D01*
X51502588Y-41246501D01*
X51490328Y-41122019D01*
X51454018Y-41002321D01*
X51395053Y-40892007D01*
X51315701Y-40795316D01*
X51219010Y-40715964D01*
X51108696Y-40656999D01*
X50988998Y-40620689D01*
X50864516Y-40608429D01*
X48864520Y-40608429D01*
X48740038Y-40620689D01*
X48620340Y-40656999D01*
X48510026Y-40715964D01*
X48413335Y-40795316D01*
X48333983Y-40892007D01*
X48275018Y-41002321D01*
X48238708Y-41122019D01*
X48226448Y-41246501D01*
X660000Y-41246501D01*
X660000Y-38706501D01*
X48226448Y-38706501D01*
X48226448Y-39906499D01*
X48238708Y-40030981D01*
X48275018Y-40150679D01*
X48333983Y-40260993D01*
X48413335Y-40357684D01*
X48510026Y-40437036D01*
X48620340Y-40496001D01*
X48740038Y-40532311D01*
X48864520Y-40544571D01*
X50864516Y-40544571D01*
X50988998Y-40532311D01*
X51108696Y-40496001D01*
X51219010Y-40437036D01*
X51315701Y-40357684D01*
X51395053Y-40260993D01*
X51454018Y-40150679D01*
X51490328Y-40030981D01*
X51502588Y-39906499D01*
X51502588Y-38706501D01*
X51490328Y-38582019D01*
X51454018Y-38462321D01*
X51395053Y-38352007D01*
X51315701Y-38255316D01*
X51219010Y-38175964D01*
X51108696Y-38116999D01*
X50988998Y-38080689D01*
X50864516Y-38068429D01*
X48864520Y-38068429D01*
X48740038Y-38080689D01*
X48620340Y-38116999D01*
X48510026Y-38175964D01*
X48413335Y-38255316D01*
X48333983Y-38352007D01*
X48275018Y-38462321D01*
X48238708Y-38582019D01*
X48226448Y-38706501D01*
X660000Y-38706501D01*
X660000Y-36166501D01*
X48226448Y-36166501D01*
X48226448Y-37366499D01*
X48238708Y-37490981D01*
X48275018Y-37610679D01*
X48333983Y-37720993D01*
X48413335Y-37817684D01*
X48510026Y-37897036D01*
X48620340Y-37956001D01*
X48740038Y-37992311D01*
X48864520Y-38004571D01*
X50864516Y-38004571D01*
X50988998Y-37992311D01*
X51108696Y-37956001D01*
X51219010Y-37897036D01*
X51315701Y-37817684D01*
X51395053Y-37720993D01*
X51414038Y-37685475D01*
X57229502Y-37685475D01*
X57229502Y-38007541D01*
X57292334Y-38323419D01*
X57415584Y-38620970D01*
X57594514Y-38888758D01*
X57822250Y-39116494D01*
X58090038Y-39295424D01*
X58387589Y-39418674D01*
X58703467Y-39481506D01*
X59025533Y-39481506D01*
X59341411Y-39418674D01*
X59638962Y-39295424D01*
X59906750Y-39116494D01*
X60134486Y-38888758D01*
X60313416Y-38620970D01*
X60436666Y-38323419D01*
X60499498Y-38007541D01*
X60499498Y-37685475D01*
X60436666Y-37369597D01*
X60313416Y-37072046D01*
X60134486Y-36804258D01*
X59906750Y-36576522D01*
X59638962Y-36397592D01*
X59341411Y-36274342D01*
X59025533Y-36211510D01*
X58703467Y-36211510D01*
X58387589Y-36274342D01*
X58090038Y-36397592D01*
X57822250Y-36576522D01*
X57594514Y-36804258D01*
X57415584Y-37072046D01*
X57292334Y-37369597D01*
X57229502Y-37685475D01*
X51414038Y-37685475D01*
X51454018Y-37610679D01*
X51490328Y-37490981D01*
X51502588Y-37366499D01*
X51502588Y-36166501D01*
X51490328Y-36042019D01*
X51454018Y-35922321D01*
X51395053Y-35812007D01*
X51315701Y-35715316D01*
X51219010Y-35635964D01*
X51108696Y-35576999D01*
X50988998Y-35540689D01*
X50864516Y-35528429D01*
X48864520Y-35528429D01*
X48740038Y-35540689D01*
X48620340Y-35576999D01*
X48510026Y-35635964D01*
X48413335Y-35715316D01*
X48333983Y-35812007D01*
X48275018Y-35922321D01*
X48238708Y-36042019D01*
X48226448Y-36166501D01*
X660000Y-36166501D01*
X660000Y-34124561D01*
X46463000Y-34124561D01*
X46463000Y-34328439D01*
X46502774Y-34528398D01*
X46580795Y-34716756D01*
X46694063Y-34886274D01*
X46838226Y-35030437D01*
X47007744Y-35143705D01*
X47196102Y-35221726D01*
X47396061Y-35261500D01*
X47599939Y-35261500D01*
X47799898Y-35221726D01*
X47988256Y-35143705D01*
X48157774Y-35030437D01*
X48201711Y-34986500D01*
X48249483Y-34986500D01*
X48275018Y-35070679D01*
X48333983Y-35180993D01*
X48413335Y-35277684D01*
X48510026Y-35357036D01*
X48620340Y-35416001D01*
X48740038Y-35452311D01*
X48864520Y-35464571D01*
X50864516Y-35464571D01*
X50988998Y-35452311D01*
X51108696Y-35416001D01*
X51219010Y-35357036D01*
X51315701Y-35277684D01*
X51395053Y-35180993D01*
X51454018Y-35070679D01*
X51490328Y-34950981D01*
X51502588Y-34826499D01*
X51502588Y-33626501D01*
X51490328Y-33502019D01*
X51454018Y-33382321D01*
X51395053Y-33272007D01*
X51315701Y-33175316D01*
X51219010Y-33095964D01*
X51108696Y-33036999D01*
X50988998Y-33000689D01*
X50864516Y-32988429D01*
X48864520Y-32988429D01*
X48740038Y-33000689D01*
X48620340Y-33036999D01*
X48510026Y-33095964D01*
X48413335Y-33175316D01*
X48333983Y-33272007D01*
X48275018Y-33382321D01*
X48249483Y-33466500D01*
X48201711Y-33466500D01*
X48157774Y-33422563D01*
X47988256Y-33309295D01*
X47799898Y-33231274D01*
X47599939Y-33191500D01*
X47396061Y-33191500D01*
X47196102Y-33231274D01*
X47007744Y-33309295D01*
X46838226Y-33422563D01*
X46694063Y-33566726D01*
X46580795Y-33736244D01*
X46502774Y-33924602D01*
X46463000Y-34124561D01*
X660000Y-34124561D01*
X660000Y-32286499D01*
X48226448Y-32286499D01*
X48238708Y-32410981D01*
X48275018Y-32530679D01*
X48333983Y-32640993D01*
X48413335Y-32737684D01*
X48510026Y-32817036D01*
X48620340Y-32876001D01*
X48740038Y-32912311D01*
X48864520Y-32924571D01*
X49578768Y-32921499D01*
X49737518Y-32762749D01*
X49737518Y-32011970D01*
X49951403Y-32011970D01*
X49991518Y-32131396D01*
X49991518Y-32762749D01*
X50150268Y-32921499D01*
X50864516Y-32924571D01*
X50869584Y-32924072D01*
X50918026Y-32939872D01*
X50954899Y-32915669D01*
X50988998Y-32912311D01*
X51108696Y-32876001D01*
X51219010Y-32817036D01*
X51315701Y-32737684D01*
X51371500Y-32669693D01*
X51371500Y-32808941D01*
X51570974Y-32939872D01*
X51810182Y-32861851D01*
X52029573Y-32738662D01*
X52220715Y-32575039D01*
X52376263Y-32377270D01*
X52490240Y-32152956D01*
X52537597Y-32011970D01*
X52413565Y-31813500D01*
X51371500Y-31813500D01*
X51371500Y-31844234D01*
X51340766Y-31813500D01*
X49991518Y-31813500D01*
X49991518Y-31947780D01*
X49951403Y-32011970D01*
X49737518Y-32011970D01*
X49737518Y-31813500D01*
X48388270Y-31813500D01*
X48229520Y-31972250D01*
X48226448Y-32286499D01*
X660000Y-32286499D01*
X660000Y-31086501D01*
X48226448Y-31086501D01*
X48229520Y-31400750D01*
X48388270Y-31559500D01*
X49737518Y-31559500D01*
X49737518Y-31361030D01*
X49951403Y-31361030D01*
X49991518Y-31425220D01*
X49991518Y-31559500D01*
X51340766Y-31559500D01*
X51371500Y-31528766D01*
X51371500Y-31559500D01*
X52413565Y-31559500D01*
X52537597Y-31361030D01*
X52490240Y-31220044D01*
X52376263Y-30995730D01*
X52220715Y-30797961D01*
X52029573Y-30634338D01*
X51810182Y-30511149D01*
X51570974Y-30433128D01*
X51371500Y-30564059D01*
X51371500Y-30703307D01*
X51315701Y-30635316D01*
X51219010Y-30555964D01*
X51108696Y-30496999D01*
X50988998Y-30460689D01*
X50954899Y-30457331D01*
X50918026Y-30433128D01*
X50869584Y-30448928D01*
X50864516Y-30448429D01*
X50150268Y-30451501D01*
X49991518Y-30610251D01*
X49991518Y-31241604D01*
X49951403Y-31361030D01*
X49737518Y-31361030D01*
X49737518Y-30610251D01*
X49578768Y-30451501D01*
X48864520Y-30448429D01*
X48740038Y-30460689D01*
X48620340Y-30496999D01*
X48510026Y-30555964D01*
X48413335Y-30635316D01*
X48333983Y-30732007D01*
X48275018Y-30842321D01*
X48238708Y-30962019D01*
X48226448Y-31086501D01*
X660000Y-31086501D01*
X660000Y-28846526D01*
X53816429Y-28846526D01*
X53816429Y-30846522D01*
X53828689Y-30971004D01*
X53864999Y-31090702D01*
X53923964Y-31201016D01*
X54003316Y-31297707D01*
X54100007Y-31377059D01*
X54210321Y-31436024D01*
X54330019Y-31472334D01*
X54454501Y-31484594D01*
X55654499Y-31484594D01*
X55778981Y-31472334D01*
X55898679Y-31436024D01*
X56008993Y-31377059D01*
X56105684Y-31297707D01*
X56185036Y-31201016D01*
X56244001Y-31090702D01*
X56280311Y-30971004D01*
X56292571Y-30846522D01*
X56292571Y-28846526D01*
X56356429Y-28846526D01*
X56356429Y-30846522D01*
X56368689Y-30971004D01*
X56404999Y-31090702D01*
X56463964Y-31201016D01*
X56543316Y-31297707D01*
X56640007Y-31377059D01*
X56750321Y-31436024D01*
X56870019Y-31472334D01*
X56994501Y-31484594D01*
X58194499Y-31484594D01*
X58318981Y-31472334D01*
X58438679Y-31436024D01*
X58548993Y-31377059D01*
X58645684Y-31297707D01*
X58725036Y-31201016D01*
X58784001Y-31090702D01*
X58820311Y-30971004D01*
X58832571Y-30846522D01*
X58832571Y-28846526D01*
X58896429Y-28846526D01*
X58896429Y-30846522D01*
X58908689Y-30971004D01*
X58944999Y-31090702D01*
X59003964Y-31201016D01*
X59083316Y-31297707D01*
X59180007Y-31377059D01*
X59290321Y-31436024D01*
X59410019Y-31472334D01*
X59534501Y-31484594D01*
X60734499Y-31484594D01*
X60858981Y-31472334D01*
X60978679Y-31436024D01*
X61088993Y-31377059D01*
X61185684Y-31297707D01*
X61265036Y-31201016D01*
X61324001Y-31090702D01*
X61360311Y-30971004D01*
X61372571Y-30846522D01*
X61436429Y-30846522D01*
X61448689Y-30971004D01*
X61484999Y-31090702D01*
X61543964Y-31201016D01*
X61623316Y-31297707D01*
X61720007Y-31377059D01*
X61830321Y-31436024D01*
X61950019Y-31472334D01*
X62074501Y-31484594D01*
X62388750Y-31481522D01*
X62547500Y-31322772D01*
X62547500Y-29973524D01*
X61598251Y-29973524D01*
X61439501Y-30132274D01*
X61436429Y-30846522D01*
X61372571Y-30846522D01*
X61372571Y-28846526D01*
X61436429Y-28846526D01*
X61439501Y-29560774D01*
X61598251Y-29719524D01*
X62547500Y-29719524D01*
X62547500Y-28370276D01*
X62388750Y-28211526D01*
X62074501Y-28208454D01*
X61950019Y-28220714D01*
X61830321Y-28257024D01*
X61720007Y-28315989D01*
X61623316Y-28395341D01*
X61543964Y-28492032D01*
X61484999Y-28602346D01*
X61448689Y-28722044D01*
X61436429Y-28846526D01*
X61372571Y-28846526D01*
X61360311Y-28722044D01*
X61324001Y-28602346D01*
X61265036Y-28492032D01*
X61185684Y-28395341D01*
X61088993Y-28315989D01*
X60978679Y-28257024D01*
X60858981Y-28220714D01*
X60734499Y-28208454D01*
X59534501Y-28208454D01*
X59410019Y-28220714D01*
X59290321Y-28257024D01*
X59180007Y-28315989D01*
X59083316Y-28395341D01*
X59003964Y-28492032D01*
X58944999Y-28602346D01*
X58908689Y-28722044D01*
X58896429Y-28846526D01*
X58832571Y-28846526D01*
X58820311Y-28722044D01*
X58784001Y-28602346D01*
X58725036Y-28492032D01*
X58645684Y-28395341D01*
X58548993Y-28315989D01*
X58438679Y-28257024D01*
X58318981Y-28220714D01*
X58194499Y-28208454D01*
X56994501Y-28208454D01*
X56870019Y-28220714D01*
X56750321Y-28257024D01*
X56640007Y-28315989D01*
X56543316Y-28395341D01*
X56463964Y-28492032D01*
X56404999Y-28602346D01*
X56368689Y-28722044D01*
X56356429Y-28846526D01*
X56292571Y-28846526D01*
X56280311Y-28722044D01*
X56244001Y-28602346D01*
X56185036Y-28492032D01*
X56105684Y-28395341D01*
X56008993Y-28315989D01*
X55898679Y-28257024D01*
X55778981Y-28220714D01*
X55654499Y-28208454D01*
X54454501Y-28208454D01*
X54330019Y-28220714D01*
X54210321Y-28257024D01*
X54100007Y-28315989D01*
X54003316Y-28395341D01*
X53923964Y-28492032D01*
X53864999Y-28602346D01*
X53828689Y-28722044D01*
X53816429Y-28846526D01*
X660000Y-28846526D01*
X660000Y-3207278D01*
X711002Y-2687116D01*
X852694Y-2217812D01*
X1082837Y-1784975D01*
X1392678Y-1405073D01*
X1770397Y-1092597D01*
X2201627Y-859431D01*
X2669928Y-714468D01*
X3188153Y-660000D01*
X79770769Y-660000D01*
X79740550Y-759617D01*
G37*
G04 #@! TD.AperFunction*
D25*
X80360498Y-37985180D02*
X80419463Y-38095494D01*
X80452000Y-38135141D01*
X80452000Y-38217250D01*
X80610750Y-38376000D01*
X80650000Y-38379072D01*
X80774482Y-38366812D01*
X80800000Y-38359071D01*
X80825518Y-38366812D01*
X80950000Y-38379072D01*
X81082850Y-38379072D01*
X80786422Y-38675500D01*
X80260000Y-38675500D01*
X80260000Y-38040373D01*
X80289502Y-37985180D01*
X80325000Y-37868159D01*
X80360498Y-37985180D01*
G04 #@! TA.AperFunction,Conductor*
D26*
G36*
X80360498Y-37985180D02*
G01*
X80419463Y-38095494D01*
X80452000Y-38135141D01*
X80452000Y-38217250D01*
X80610750Y-38376000D01*
X80650000Y-38379072D01*
X80774482Y-38366812D01*
X80800000Y-38359071D01*
X80825518Y-38366812D01*
X80950000Y-38379072D01*
X81082850Y-38379072D01*
X80786422Y-38675500D01*
X80260000Y-38675500D01*
X80260000Y-38040373D01*
X80289502Y-37985180D01*
X80325000Y-37868159D01*
X80360498Y-37985180D01*
G37*
G04 #@! TD.AperFunction*
D25*
X78598815Y-35992185D02*
X78695506Y-36071537D01*
X78769335Y-36111000D01*
X78695506Y-36150463D01*
X78598815Y-36229815D01*
X78519463Y-36326506D01*
X78460498Y-36436820D01*
X78424188Y-36556518D01*
X78411928Y-36681000D01*
X78411928Y-36897500D01*
X77853750Y-36897500D01*
X77849750Y-36893500D01*
X77025500Y-36893500D01*
X77025500Y-36897500D01*
X76771500Y-36897500D01*
X76771500Y-36893500D01*
X76751500Y-36893500D01*
X76751500Y-36639500D01*
X76771500Y-36639500D01*
X76771500Y-36619500D01*
X77025500Y-36619500D01*
X77025500Y-36639500D01*
X77849750Y-36639500D01*
X78008500Y-36480750D01*
X78011572Y-36229000D01*
X77999312Y-36104518D01*
X77963002Y-35984820D01*
X77915526Y-35896000D01*
X78519878Y-35896000D01*
X78598815Y-35992185D01*
G04 #@! TA.AperFunction,Conductor*
D26*
G36*
X78598815Y-35992185D02*
G01*
X78695506Y-36071537D01*
X78769335Y-36111000D01*
X78695506Y-36150463D01*
X78598815Y-36229815D01*
X78519463Y-36326506D01*
X78460498Y-36436820D01*
X78424188Y-36556518D01*
X78411928Y-36681000D01*
X78411928Y-36897500D01*
X77853750Y-36897500D01*
X77849750Y-36893500D01*
X77025500Y-36893500D01*
X77025500Y-36897500D01*
X76771500Y-36897500D01*
X76771500Y-36893500D01*
X76751500Y-36893500D01*
X76751500Y-36639500D01*
X76771500Y-36639500D01*
X76771500Y-36619500D01*
X77025500Y-36619500D01*
X77025500Y-36639500D01*
X77849750Y-36639500D01*
X78008500Y-36480750D01*
X78011572Y-36229000D01*
X77999312Y-36104518D01*
X77963002Y-35984820D01*
X77915526Y-35896000D01*
X78519878Y-35896000D01*
X78598815Y-35992185D01*
G37*
G04 #@! TD.AperFunction*
D25*
X80360498Y-35785180D02*
X80419463Y-35895494D01*
X80498815Y-35992185D01*
X80589853Y-36066897D01*
X80452000Y-36204750D01*
X80452000Y-36286859D01*
X80419463Y-36326506D01*
X80360498Y-36436820D01*
X80325000Y-36553841D01*
X80289502Y-36436820D01*
X80230537Y-36326506D01*
X80198000Y-36286859D01*
X80198000Y-36204750D01*
X80060147Y-36066897D01*
X80151185Y-35992185D01*
X80230537Y-35895494D01*
X80289502Y-35785180D01*
X80325000Y-35668159D01*
X80360498Y-35785180D01*
G04 #@! TA.AperFunction,Conductor*
D26*
G36*
X80360498Y-35785180D02*
G01*
X80419463Y-35895494D01*
X80498815Y-35992185D01*
X80589853Y-36066897D01*
X80452000Y-36204750D01*
X80452000Y-36286859D01*
X80419463Y-36326506D01*
X80360498Y-36436820D01*
X80325000Y-36553841D01*
X80289502Y-36436820D01*
X80230537Y-36326506D01*
X80198000Y-36286859D01*
X80198000Y-36204750D01*
X80060147Y-36066897D01*
X80151185Y-35992185D01*
X80230537Y-35895494D01*
X80289502Y-35785180D01*
X80325000Y-35668159D01*
X80360498Y-35785180D01*
G37*
G04 #@! TD.AperFunction*
D25*
X83968563Y-24091274D02*
X84112726Y-24235437D01*
X84282244Y-24348705D01*
X84470602Y-24426726D01*
X84670561Y-24466500D01*
X84874439Y-24466500D01*
X84940000Y-24453459D01*
X84940001Y-34256486D01*
X84912512Y-34205058D01*
X84803623Y-34072377D01*
X84670942Y-33963488D01*
X84519567Y-33882577D01*
X84355316Y-33832752D01*
X84184500Y-33815928D01*
X83954676Y-33815928D01*
X84007825Y-33772309D01*
X84035542Y-33738536D01*
X84351545Y-33422533D01*
X84385317Y-33394817D01*
X84495911Y-33260059D01*
X84578089Y-33106313D01*
X84628695Y-32939490D01*
X84641500Y-32809477D01*
X84641500Y-32809467D01*
X84645781Y-32766001D01*
X84641500Y-32722535D01*
X84641500Y-27665977D01*
X84645782Y-27622500D01*
X84641500Y-27579023D01*
X84641500Y-25633965D01*
X84645781Y-25590499D01*
X84641500Y-25547033D01*
X84641500Y-25547023D01*
X84628695Y-25417010D01*
X84578089Y-25250187D01*
X84495911Y-25096441D01*
X84447920Y-25037964D01*
X84413032Y-24995453D01*
X84413030Y-24995451D01*
X84385317Y-24961683D01*
X84351550Y-24933971D01*
X83943000Y-24525422D01*
X83943000Y-24053016D01*
X83968563Y-24091274D01*
G04 #@! TA.AperFunction,Conductor*
D26*
G36*
X83968563Y-24091274D02*
G01*
X84112726Y-24235437D01*
X84282244Y-24348705D01*
X84470602Y-24426726D01*
X84670561Y-24466500D01*
X84874439Y-24466500D01*
X84940000Y-24453459D01*
X84940001Y-34256486D01*
X84912512Y-34205058D01*
X84803623Y-34072377D01*
X84670942Y-33963488D01*
X84519567Y-33882577D01*
X84355316Y-33832752D01*
X84184500Y-33815928D01*
X83954676Y-33815928D01*
X84007825Y-33772309D01*
X84035542Y-33738536D01*
X84351545Y-33422533D01*
X84385317Y-33394817D01*
X84495911Y-33260059D01*
X84578089Y-33106313D01*
X84628695Y-32939490D01*
X84641500Y-32809477D01*
X84641500Y-32809467D01*
X84645781Y-32766001D01*
X84641500Y-32722535D01*
X84641500Y-27665977D01*
X84645782Y-27622500D01*
X84641500Y-27579023D01*
X84641500Y-25633965D01*
X84645781Y-25590499D01*
X84641500Y-25547033D01*
X84641500Y-25547023D01*
X84628695Y-25417010D01*
X84578089Y-25250187D01*
X84495911Y-25096441D01*
X84447920Y-25037964D01*
X84413032Y-24995453D01*
X84413030Y-24995451D01*
X84385317Y-24961683D01*
X84351550Y-24933971D01*
X83943000Y-24525422D01*
X83943000Y-24053016D01*
X83968563Y-24091274D01*
G37*
G04 #@! TD.AperFunction*
D25*
X71423035Y-10219500D02*
X71423043Y-10219500D01*
X71466512Y-10223781D01*
X71509981Y-10219500D01*
X78436922Y-10219500D01*
X78680500Y-10463079D01*
X78680501Y-26372513D01*
X78680500Y-26372523D01*
X78680500Y-26726796D01*
X78676219Y-26770265D01*
X78680500Y-26813734D01*
X78680500Y-26813741D01*
X78689986Y-26910059D01*
X78693305Y-26943755D01*
X78697147Y-26956419D01*
X78743911Y-27110577D01*
X78826089Y-27264323D01*
X78936683Y-27399082D01*
X78970456Y-27426799D01*
X79761205Y-28217549D01*
X79788918Y-28251317D01*
X79822686Y-28279030D01*
X79822688Y-28279032D01*
X79894187Y-28337710D01*
X79923676Y-28361911D01*
X80077422Y-28444089D01*
X80244245Y-28494695D01*
X80374258Y-28507500D01*
X80374268Y-28507500D01*
X80417734Y-28511781D01*
X80461200Y-28507500D01*
X82871501Y-28507500D01*
X82871500Y-32258492D01*
X81448000Y-32258492D01*
X81448000Y-32051500D01*
X81468000Y-32051500D01*
X81468000Y-31252250D01*
X81722000Y-31252250D01*
X81722000Y-32051500D01*
X82471250Y-32051500D01*
X82630000Y-31892750D01*
X82633072Y-31728500D01*
X82620812Y-31604018D01*
X82584502Y-31484320D01*
X82525537Y-31374006D01*
X82446185Y-31277315D01*
X82349494Y-31197963D01*
X82239180Y-31138998D01*
X82119482Y-31102688D01*
X81995000Y-31090428D01*
X81880750Y-31093500D01*
X81722000Y-31252250D01*
X81468000Y-31252250D01*
X81383393Y-31167643D01*
X81399494Y-31159037D01*
X81496185Y-31079685D01*
X81575537Y-30982994D01*
X81634502Y-30872680D01*
X81670812Y-30752982D01*
X81683072Y-30628500D01*
X81683072Y-29728500D01*
X81670812Y-29604018D01*
X81634502Y-29484320D01*
X81575537Y-29374006D01*
X81496185Y-29277315D01*
X81399494Y-29197963D01*
X81289180Y-29138998D01*
X81169482Y-29102688D01*
X81045000Y-29090428D01*
X80245000Y-29090428D01*
X80120518Y-29102688D01*
X80000820Y-29138998D01*
X79890506Y-29197963D01*
X79793815Y-29277315D01*
X79714463Y-29374006D01*
X79690014Y-29419746D01*
X79591014Y-29429497D01*
X79447753Y-29472954D01*
X79315724Y-29543526D01*
X79315722Y-29543527D01*
X79315723Y-29543527D01*
X79228996Y-29614701D01*
X79228992Y-29614705D01*
X79199999Y-29638499D01*
X79176205Y-29667492D01*
X78190914Y-30652784D01*
X78202072Y-30539500D01*
X78202072Y-30039500D01*
X78185248Y-29868684D01*
X78135423Y-29704433D01*
X78054512Y-29553058D01*
X77945623Y-29420377D01*
X77849000Y-29341080D01*
X77849000Y-13308833D01*
X77852677Y-13271500D01*
X77838003Y-13122514D01*
X77794546Y-12979253D01*
X77723974Y-12847224D01*
X77652799Y-12760497D01*
X77629001Y-12731499D01*
X77600003Y-12707701D01*
X76573304Y-11681002D01*
X76549501Y-11651999D01*
X76433776Y-11557026D01*
X76301747Y-11486454D01*
X76158486Y-11442997D01*
X76046833Y-11432000D01*
X76046822Y-11432000D01*
X76009500Y-11428324D01*
X75972178Y-11432000D01*
X73093711Y-11432000D01*
X73049774Y-11388063D01*
X72880256Y-11274795D01*
X72691898Y-11196774D01*
X72491939Y-11157000D01*
X72288061Y-11157000D01*
X72088102Y-11196774D01*
X71899744Y-11274795D01*
X71730226Y-11388063D01*
X71586063Y-11532226D01*
X71472795Y-11701744D01*
X71394774Y-11890102D01*
X71355000Y-12090061D01*
X71355000Y-12293939D01*
X71394774Y-12493898D01*
X71472795Y-12682256D01*
X71586063Y-12851774D01*
X71730226Y-12995937D01*
X71899744Y-13109205D01*
X72088102Y-13187226D01*
X72288061Y-13227000D01*
X72491939Y-13227000D01*
X72691898Y-13187226D01*
X72880256Y-13109205D01*
X73049774Y-12995937D01*
X73093711Y-12952000D01*
X75694699Y-12952000D01*
X76329001Y-13586303D01*
X76329000Y-18388832D01*
X76329001Y-18388842D01*
X76329000Y-19722332D01*
X76329001Y-19722342D01*
X76329000Y-29341080D01*
X76232377Y-29420377D01*
X76123488Y-29553058D01*
X76042577Y-29704433D01*
X75992752Y-29868684D01*
X75975928Y-30039500D01*
X75975928Y-30539500D01*
X75992752Y-30710316D01*
X76042577Y-30874567D01*
X76123488Y-31025942D01*
X76232377Y-31158623D01*
X76285232Y-31202000D01*
X76232377Y-31245377D01*
X76123488Y-31378058D01*
X76042577Y-31529433D01*
X75992752Y-31693684D01*
X75975928Y-31864500D01*
X75975928Y-32364500D01*
X75992752Y-32535316D01*
X76005548Y-32577500D01*
X75752323Y-32577500D01*
X75772248Y-32511816D01*
X75789072Y-32341000D01*
X75789072Y-31841000D01*
X75772248Y-31670184D01*
X75722423Y-31505933D01*
X75641512Y-31354558D01*
X75532623Y-31221877D01*
X75479768Y-31178500D01*
X75532623Y-31135123D01*
X75641512Y-31002442D01*
X75722423Y-30851067D01*
X75772248Y-30686816D01*
X75789072Y-30516000D01*
X75789072Y-30016000D01*
X75772248Y-29845184D01*
X75722423Y-29680933D01*
X75641512Y-29529558D01*
X75532623Y-29396877D01*
X75399942Y-29287988D01*
X75248567Y-29207077D01*
X75084316Y-29157252D01*
X74913500Y-29140428D01*
X74438500Y-29140428D01*
X74267684Y-29157252D01*
X74103433Y-29207077D01*
X73952058Y-29287988D01*
X73819377Y-29396877D01*
X73710488Y-29529558D01*
X73629577Y-29680933D01*
X73598144Y-29784554D01*
X71270699Y-32112000D01*
X71208561Y-32112000D01*
X71008602Y-32151774D01*
X70820244Y-32229795D01*
X70650726Y-32343063D01*
X70506563Y-32487226D01*
X70393295Y-32656744D01*
X70315274Y-32845102D01*
X70275500Y-33045061D01*
X70275500Y-33248939D01*
X70293911Y-33341500D01*
X69432162Y-33341500D01*
X69395017Y-33272007D01*
X69315665Y-33175316D01*
X69218974Y-33095964D01*
X69108660Y-33036999D01*
X68988962Y-33000689D01*
X68864480Y-32988429D01*
X67431351Y-32988429D01*
X67428678Y-32987000D01*
X67308980Y-32950690D01*
X67184498Y-32938430D01*
X66815395Y-32938430D01*
X66859416Y-32924072D01*
X66864484Y-32924571D01*
X67578732Y-32921499D01*
X67737482Y-32762749D01*
X67737482Y-32131396D01*
X67777597Y-32011970D01*
X67737482Y-31947780D01*
X67737482Y-31813500D01*
X67991482Y-31813500D01*
X67991482Y-32762749D01*
X68150232Y-32921499D01*
X68864480Y-32924571D01*
X68988962Y-32912311D01*
X69108660Y-32876001D01*
X69218974Y-32817036D01*
X69315665Y-32737684D01*
X69395017Y-32640993D01*
X69453982Y-32530679D01*
X69490292Y-32410981D01*
X69502552Y-32286499D01*
X69499480Y-31972250D01*
X69340730Y-31813500D01*
X67991482Y-31813500D01*
X67737482Y-31813500D01*
X66388234Y-31813500D01*
X66368234Y-31833500D01*
X66357500Y-31833500D01*
X66357500Y-31813500D01*
X66337500Y-31813500D01*
X66337500Y-31559500D01*
X66357500Y-31559500D01*
X66357500Y-31528766D01*
X66388234Y-31559500D01*
X67737482Y-31559500D01*
X67737482Y-31425220D01*
X67777597Y-31361030D01*
X67737482Y-31241604D01*
X67737482Y-30610251D01*
X67991482Y-30610251D01*
X67991482Y-31559500D01*
X69340730Y-31559500D01*
X69499480Y-31400750D01*
X69502552Y-31086501D01*
X69490292Y-30962019D01*
X69453982Y-30842321D01*
X69395017Y-30732007D01*
X69315665Y-30635316D01*
X69218974Y-30555964D01*
X69108660Y-30496999D01*
X68988962Y-30460689D01*
X68864480Y-30448429D01*
X68150232Y-30451501D01*
X67991482Y-30610251D01*
X67737482Y-30610251D01*
X67578732Y-30451501D01*
X66864484Y-30448429D01*
X66859416Y-30448928D01*
X66810974Y-30433128D01*
X66774101Y-30457331D01*
X66740002Y-30460689D01*
X66620304Y-30496999D01*
X66509990Y-30555964D01*
X66413299Y-30635316D01*
X66357500Y-30703307D01*
X66357500Y-30564059D01*
X66158026Y-30433128D01*
X65918818Y-30511149D01*
X65699427Y-30634338D01*
X65508285Y-30797961D01*
X65388499Y-30950261D01*
X65388499Y-28712733D01*
X65430061Y-28721000D01*
X65633939Y-28721000D01*
X65833898Y-28681226D01*
X66022256Y-28603205D01*
X66191774Y-28489937D01*
X66235711Y-28446000D01*
X72257789Y-28446000D01*
X72301726Y-28489937D01*
X72471244Y-28603205D01*
X72659602Y-28681226D01*
X72859561Y-28721000D01*
X73063439Y-28721000D01*
X73263398Y-28681226D01*
X73451756Y-28603205D01*
X73621274Y-28489937D01*
X73765437Y-28345774D01*
X73878705Y-28176256D01*
X73956726Y-27987898D01*
X73996500Y-27787939D01*
X73996500Y-27584061D01*
X73956726Y-27384102D01*
X73878705Y-27195744D01*
X73765437Y-27026226D01*
X73621274Y-26882063D01*
X73451756Y-26768795D01*
X73263398Y-26690774D01*
X73063439Y-26651000D01*
X72859561Y-26651000D01*
X72659602Y-26690774D01*
X72471244Y-26768795D01*
X72301726Y-26882063D01*
X72257789Y-26926000D01*
X66235711Y-26926000D01*
X66191774Y-26882063D01*
X66022256Y-26768795D01*
X65833898Y-26690774D01*
X65633939Y-26651000D01*
X65430061Y-26651000D01*
X65388499Y-26659267D01*
X65388499Y-15737696D01*
X65667750Y-15736500D01*
X65826500Y-15577750D01*
X65826500Y-15039572D01*
X66080500Y-15039572D01*
X66080500Y-15577750D01*
X66239250Y-15736500D01*
X66945812Y-15739526D01*
X67070433Y-15728766D01*
X67190559Y-15693901D01*
X67301576Y-15636270D01*
X67399216Y-15558088D01*
X67479728Y-15462360D01*
X67540017Y-15352764D01*
X67577766Y-15233513D01*
X67588500Y-15133250D01*
X67429750Y-14974500D01*
X67228553Y-14974500D01*
X67307994Y-14932037D01*
X67373229Y-14878500D01*
X67429750Y-14878500D01*
X67588500Y-14719750D01*
X67577766Y-14619487D01*
X67564071Y-14576224D01*
X67579312Y-14525982D01*
X67591572Y-14401500D01*
X67591572Y-14285500D01*
X68151014Y-14285500D01*
X68170795Y-14333256D01*
X68284063Y-14502774D01*
X68428226Y-14646937D01*
X68597744Y-14760205D01*
X68786102Y-14838226D01*
X68986061Y-14878000D01*
X69189939Y-14878000D01*
X69389898Y-14838226D01*
X69578256Y-14760205D01*
X69747774Y-14646937D01*
X69891937Y-14502774D01*
X70005205Y-14333256D01*
X70083226Y-14144898D01*
X70123000Y-13944939D01*
X70123000Y-13795233D01*
X70219371Y-13730840D01*
X70363534Y-13586677D01*
X70476802Y-13417159D01*
X70554823Y-13228801D01*
X70594597Y-13028842D01*
X70594597Y-12824964D01*
X70554823Y-12625005D01*
X70476802Y-12436647D01*
X70363534Y-12267129D01*
X70219371Y-12122966D01*
X70049853Y-12009698D01*
X69861495Y-11931677D01*
X69661536Y-11891903D01*
X69512084Y-11891903D01*
X69511726Y-11890102D01*
X69433705Y-11701744D01*
X69320437Y-11532226D01*
X69176274Y-11388063D01*
X69006756Y-11274795D01*
X68818398Y-11196774D01*
X68618439Y-11157000D01*
X68414561Y-11157000D01*
X68214602Y-11196774D01*
X68026244Y-11274795D01*
X67856726Y-11388063D01*
X67812789Y-11432000D01*
X67591572Y-11432000D01*
X67591572Y-11251500D01*
X67579312Y-11127018D01*
X67564071Y-11076776D01*
X67577766Y-11033513D01*
X67588500Y-10933250D01*
X67429750Y-10774500D01*
X67373229Y-10774500D01*
X67314265Y-10726110D01*
X67373724Y-10678500D01*
X67429750Y-10678500D01*
X67588500Y-10519750D01*
X67577766Y-10419487D01*
X67564158Y-10376500D01*
X67577766Y-10333513D01*
X67588500Y-10233250D01*
X67566750Y-10211500D01*
X71341809Y-10211500D01*
X71423035Y-10219500D01*
G04 #@! TA.AperFunction,Conductor*
D26*
G36*
X71423035Y-10219500D02*
G01*
X71423043Y-10219500D01*
X71466512Y-10223781D01*
X71509981Y-10219500D01*
X78436922Y-10219500D01*
X78680500Y-10463079D01*
X78680501Y-26372513D01*
X78680500Y-26372523D01*
X78680500Y-26726796D01*
X78676219Y-26770265D01*
X78680500Y-26813734D01*
X78680500Y-26813741D01*
X78689986Y-26910059D01*
X78693305Y-26943755D01*
X78697147Y-26956419D01*
X78743911Y-27110577D01*
X78826089Y-27264323D01*
X78936683Y-27399082D01*
X78970456Y-27426799D01*
X79761205Y-28217549D01*
X79788918Y-28251317D01*
X79822686Y-28279030D01*
X79822688Y-28279032D01*
X79894187Y-28337710D01*
X79923676Y-28361911D01*
X80077422Y-28444089D01*
X80244245Y-28494695D01*
X80374258Y-28507500D01*
X80374268Y-28507500D01*
X80417734Y-28511781D01*
X80461200Y-28507500D01*
X82871501Y-28507500D01*
X82871500Y-32258492D01*
X81448000Y-32258492D01*
X81448000Y-32051500D01*
X81468000Y-32051500D01*
X81468000Y-31252250D01*
X81722000Y-31252250D01*
X81722000Y-32051500D01*
X82471250Y-32051500D01*
X82630000Y-31892750D01*
X82633072Y-31728500D01*
X82620812Y-31604018D01*
X82584502Y-31484320D01*
X82525537Y-31374006D01*
X82446185Y-31277315D01*
X82349494Y-31197963D01*
X82239180Y-31138998D01*
X82119482Y-31102688D01*
X81995000Y-31090428D01*
X81880750Y-31093500D01*
X81722000Y-31252250D01*
X81468000Y-31252250D01*
X81383393Y-31167643D01*
X81399494Y-31159037D01*
X81496185Y-31079685D01*
X81575537Y-30982994D01*
X81634502Y-30872680D01*
X81670812Y-30752982D01*
X81683072Y-30628500D01*
X81683072Y-29728500D01*
X81670812Y-29604018D01*
X81634502Y-29484320D01*
X81575537Y-29374006D01*
X81496185Y-29277315D01*
X81399494Y-29197963D01*
X81289180Y-29138998D01*
X81169482Y-29102688D01*
X81045000Y-29090428D01*
X80245000Y-29090428D01*
X80120518Y-29102688D01*
X80000820Y-29138998D01*
X79890506Y-29197963D01*
X79793815Y-29277315D01*
X79714463Y-29374006D01*
X79690014Y-29419746D01*
X79591014Y-29429497D01*
X79447753Y-29472954D01*
X79315724Y-29543526D01*
X79315722Y-29543527D01*
X79315723Y-29543527D01*
X79228996Y-29614701D01*
X79228992Y-29614705D01*
X79199999Y-29638499D01*
X79176205Y-29667492D01*
X78190914Y-30652784D01*
X78202072Y-30539500D01*
X78202072Y-30039500D01*
X78185248Y-29868684D01*
X78135423Y-29704433D01*
X78054512Y-29553058D01*
X77945623Y-29420377D01*
X77849000Y-29341080D01*
X77849000Y-13308833D01*
X77852677Y-13271500D01*
X77838003Y-13122514D01*
X77794546Y-12979253D01*
X77723974Y-12847224D01*
X77652799Y-12760497D01*
X77629001Y-12731499D01*
X77600003Y-12707701D01*
X76573304Y-11681002D01*
X76549501Y-11651999D01*
X76433776Y-11557026D01*
X76301747Y-11486454D01*
X76158486Y-11442997D01*
X76046833Y-11432000D01*
X76046822Y-11432000D01*
X76009500Y-11428324D01*
X75972178Y-11432000D01*
X73093711Y-11432000D01*
X73049774Y-11388063D01*
X72880256Y-11274795D01*
X72691898Y-11196774D01*
X72491939Y-11157000D01*
X72288061Y-11157000D01*
X72088102Y-11196774D01*
X71899744Y-11274795D01*
X71730226Y-11388063D01*
X71586063Y-11532226D01*
X71472795Y-11701744D01*
X71394774Y-11890102D01*
X71355000Y-12090061D01*
X71355000Y-12293939D01*
X71394774Y-12493898D01*
X71472795Y-12682256D01*
X71586063Y-12851774D01*
X71730226Y-12995937D01*
X71899744Y-13109205D01*
X72088102Y-13187226D01*
X72288061Y-13227000D01*
X72491939Y-13227000D01*
X72691898Y-13187226D01*
X72880256Y-13109205D01*
X73049774Y-12995937D01*
X73093711Y-12952000D01*
X75694699Y-12952000D01*
X76329001Y-13586303D01*
X76329000Y-18388832D01*
X76329001Y-18388842D01*
X76329000Y-19722332D01*
X76329001Y-19722342D01*
X76329000Y-29341080D01*
X76232377Y-29420377D01*
X76123488Y-29553058D01*
X76042577Y-29704433D01*
X75992752Y-29868684D01*
X75975928Y-30039500D01*
X75975928Y-30539500D01*
X75992752Y-30710316D01*
X76042577Y-30874567D01*
X76123488Y-31025942D01*
X76232377Y-31158623D01*
X76285232Y-31202000D01*
X76232377Y-31245377D01*
X76123488Y-31378058D01*
X76042577Y-31529433D01*
X75992752Y-31693684D01*
X75975928Y-31864500D01*
X75975928Y-32364500D01*
X75992752Y-32535316D01*
X76005548Y-32577500D01*
X75752323Y-32577500D01*
X75772248Y-32511816D01*
X75789072Y-32341000D01*
X75789072Y-31841000D01*
X75772248Y-31670184D01*
X75722423Y-31505933D01*
X75641512Y-31354558D01*
X75532623Y-31221877D01*
X75479768Y-31178500D01*
X75532623Y-31135123D01*
X75641512Y-31002442D01*
X75722423Y-30851067D01*
X75772248Y-30686816D01*
X75789072Y-30516000D01*
X75789072Y-30016000D01*
X75772248Y-29845184D01*
X75722423Y-29680933D01*
X75641512Y-29529558D01*
X75532623Y-29396877D01*
X75399942Y-29287988D01*
X75248567Y-29207077D01*
X75084316Y-29157252D01*
X74913500Y-29140428D01*
X74438500Y-29140428D01*
X74267684Y-29157252D01*
X74103433Y-29207077D01*
X73952058Y-29287988D01*
X73819377Y-29396877D01*
X73710488Y-29529558D01*
X73629577Y-29680933D01*
X73598144Y-29784554D01*
X71270699Y-32112000D01*
X71208561Y-32112000D01*
X71008602Y-32151774D01*
X70820244Y-32229795D01*
X70650726Y-32343063D01*
X70506563Y-32487226D01*
X70393295Y-32656744D01*
X70315274Y-32845102D01*
X70275500Y-33045061D01*
X70275500Y-33248939D01*
X70293911Y-33341500D01*
X69432162Y-33341500D01*
X69395017Y-33272007D01*
X69315665Y-33175316D01*
X69218974Y-33095964D01*
X69108660Y-33036999D01*
X68988962Y-33000689D01*
X68864480Y-32988429D01*
X67431351Y-32988429D01*
X67428678Y-32987000D01*
X67308980Y-32950690D01*
X67184498Y-32938430D01*
X66815395Y-32938430D01*
X66859416Y-32924072D01*
X66864484Y-32924571D01*
X67578732Y-32921499D01*
X67737482Y-32762749D01*
X67737482Y-32131396D01*
X67777597Y-32011970D01*
X67737482Y-31947780D01*
X67737482Y-31813500D01*
X67991482Y-31813500D01*
X67991482Y-32762749D01*
X68150232Y-32921499D01*
X68864480Y-32924571D01*
X68988962Y-32912311D01*
X69108660Y-32876001D01*
X69218974Y-32817036D01*
X69315665Y-32737684D01*
X69395017Y-32640993D01*
X69453982Y-32530679D01*
X69490292Y-32410981D01*
X69502552Y-32286499D01*
X69499480Y-31972250D01*
X69340730Y-31813500D01*
X67991482Y-31813500D01*
X67737482Y-31813500D01*
X66388234Y-31813500D01*
X66368234Y-31833500D01*
X66357500Y-31833500D01*
X66357500Y-31813500D01*
X66337500Y-31813500D01*
X66337500Y-31559500D01*
X66357500Y-31559500D01*
X66357500Y-31528766D01*
X66388234Y-31559500D01*
X67737482Y-31559500D01*
X67737482Y-31425220D01*
X67777597Y-31361030D01*
X67737482Y-31241604D01*
X67737482Y-30610251D01*
X67991482Y-30610251D01*
X67991482Y-31559500D01*
X69340730Y-31559500D01*
X69499480Y-31400750D01*
X69502552Y-31086501D01*
X69490292Y-30962019D01*
X69453982Y-30842321D01*
X69395017Y-30732007D01*
X69315665Y-30635316D01*
X69218974Y-30555964D01*
X69108660Y-30496999D01*
X68988962Y-30460689D01*
X68864480Y-30448429D01*
X68150232Y-30451501D01*
X67991482Y-30610251D01*
X67737482Y-30610251D01*
X67578732Y-30451501D01*
X66864484Y-30448429D01*
X66859416Y-30448928D01*
X66810974Y-30433128D01*
X66774101Y-30457331D01*
X66740002Y-30460689D01*
X66620304Y-30496999D01*
X66509990Y-30555964D01*
X66413299Y-30635316D01*
X66357500Y-30703307D01*
X66357500Y-30564059D01*
X66158026Y-30433128D01*
X65918818Y-30511149D01*
X65699427Y-30634338D01*
X65508285Y-30797961D01*
X65388499Y-30950261D01*
X65388499Y-28712733D01*
X65430061Y-28721000D01*
X65633939Y-28721000D01*
X65833898Y-28681226D01*
X66022256Y-28603205D01*
X66191774Y-28489937D01*
X66235711Y-28446000D01*
X72257789Y-28446000D01*
X72301726Y-28489937D01*
X72471244Y-28603205D01*
X72659602Y-28681226D01*
X72859561Y-28721000D01*
X73063439Y-28721000D01*
X73263398Y-28681226D01*
X73451756Y-28603205D01*
X73621274Y-28489937D01*
X73765437Y-28345774D01*
X73878705Y-28176256D01*
X73956726Y-27987898D01*
X73996500Y-27787939D01*
X73996500Y-27584061D01*
X73956726Y-27384102D01*
X73878705Y-27195744D01*
X73765437Y-27026226D01*
X73621274Y-26882063D01*
X73451756Y-26768795D01*
X73263398Y-26690774D01*
X73063439Y-26651000D01*
X72859561Y-26651000D01*
X72659602Y-26690774D01*
X72471244Y-26768795D01*
X72301726Y-26882063D01*
X72257789Y-26926000D01*
X66235711Y-26926000D01*
X66191774Y-26882063D01*
X66022256Y-26768795D01*
X65833898Y-26690774D01*
X65633939Y-26651000D01*
X65430061Y-26651000D01*
X65388499Y-26659267D01*
X65388499Y-15737696D01*
X65667750Y-15736500D01*
X65826500Y-15577750D01*
X65826500Y-15039572D01*
X66080500Y-15039572D01*
X66080500Y-15577750D01*
X66239250Y-15736500D01*
X66945812Y-15739526D01*
X67070433Y-15728766D01*
X67190559Y-15693901D01*
X67301576Y-15636270D01*
X67399216Y-15558088D01*
X67479728Y-15462360D01*
X67540017Y-15352764D01*
X67577766Y-15233513D01*
X67588500Y-15133250D01*
X67429750Y-14974500D01*
X67228553Y-14974500D01*
X67307994Y-14932037D01*
X67373229Y-14878500D01*
X67429750Y-14878500D01*
X67588500Y-14719750D01*
X67577766Y-14619487D01*
X67564071Y-14576224D01*
X67579312Y-14525982D01*
X67591572Y-14401500D01*
X67591572Y-14285500D01*
X68151014Y-14285500D01*
X68170795Y-14333256D01*
X68284063Y-14502774D01*
X68428226Y-14646937D01*
X68597744Y-14760205D01*
X68786102Y-14838226D01*
X68986061Y-14878000D01*
X69189939Y-14878000D01*
X69389898Y-14838226D01*
X69578256Y-14760205D01*
X69747774Y-14646937D01*
X69891937Y-14502774D01*
X70005205Y-14333256D01*
X70083226Y-14144898D01*
X70123000Y-13944939D01*
X70123000Y-13795233D01*
X70219371Y-13730840D01*
X70363534Y-13586677D01*
X70476802Y-13417159D01*
X70554823Y-13228801D01*
X70594597Y-13028842D01*
X70594597Y-12824964D01*
X70554823Y-12625005D01*
X70476802Y-12436647D01*
X70363534Y-12267129D01*
X70219371Y-12122966D01*
X70049853Y-12009698D01*
X69861495Y-11931677D01*
X69661536Y-11891903D01*
X69512084Y-11891903D01*
X69511726Y-11890102D01*
X69433705Y-11701744D01*
X69320437Y-11532226D01*
X69176274Y-11388063D01*
X69006756Y-11274795D01*
X68818398Y-11196774D01*
X68618439Y-11157000D01*
X68414561Y-11157000D01*
X68214602Y-11196774D01*
X68026244Y-11274795D01*
X67856726Y-11388063D01*
X67812789Y-11432000D01*
X67591572Y-11432000D01*
X67591572Y-11251500D01*
X67579312Y-11127018D01*
X67564071Y-11076776D01*
X67577766Y-11033513D01*
X67588500Y-10933250D01*
X67429750Y-10774500D01*
X67373229Y-10774500D01*
X67314265Y-10726110D01*
X67373724Y-10678500D01*
X67429750Y-10678500D01*
X67588500Y-10519750D01*
X67577766Y-10419487D01*
X67564158Y-10376500D01*
X67577766Y-10333513D01*
X67588500Y-10233250D01*
X67566750Y-10211500D01*
X71341809Y-10211500D01*
X71423035Y-10219500D01*
G37*
G04 #@! TD.AperFunction*
D25*
X82912496Y-712964D02*
X83381424Y-854542D01*
X83813923Y-1084506D01*
X84193512Y-1394092D01*
X84505748Y-1771520D01*
X84738724Y-2202399D01*
X84883573Y-2670331D01*
X84940000Y-3207195D01*
X84940000Y-8997716D01*
X84866000Y-8990428D01*
X83866000Y-8990428D01*
X83741518Y-9002688D01*
X83621820Y-9038998D01*
X83566000Y-9068835D01*
X83510180Y-9038998D01*
X83390482Y-9002688D01*
X83266000Y-8990428D01*
X83051750Y-8993500D01*
X82893000Y-9152250D01*
X82893000Y-9951500D01*
X82913000Y-9951500D01*
X82913000Y-10205500D01*
X82893000Y-10205500D01*
X82893000Y-11004750D01*
X83051750Y-11163500D01*
X83266000Y-11166572D01*
X83390482Y-11154312D01*
X83510180Y-11118002D01*
X83566000Y-11088165D01*
X83606001Y-11109546D01*
X83606000Y-13147454D01*
X83566000Y-13168835D01*
X83510180Y-13138998D01*
X83390482Y-13102688D01*
X83266000Y-13090428D01*
X83051750Y-13093500D01*
X82893000Y-13252250D01*
X82893000Y-14051500D01*
X82913000Y-14051500D01*
X82913000Y-14305500D01*
X82893000Y-14305500D01*
X82893000Y-14325500D01*
X82639000Y-14325500D01*
X82639000Y-14305500D01*
X82619000Y-14305500D01*
X82619000Y-14051500D01*
X82639000Y-14051500D01*
X82639000Y-13252250D01*
X82480250Y-13093500D01*
X82266000Y-13090428D01*
X82251000Y-13091905D01*
X82251000Y-11165095D01*
X82266000Y-11166572D01*
X82480250Y-11163500D01*
X82639000Y-11004750D01*
X82639000Y-10205500D01*
X82619000Y-10205500D01*
X82619000Y-9951500D01*
X82639000Y-9951500D01*
X82639000Y-9152250D01*
X82480250Y-8993500D01*
X82266000Y-8990428D01*
X82251000Y-8991905D01*
X82251000Y-921419D01*
X82254193Y-889000D01*
X82241450Y-759617D01*
X82211231Y-660000D01*
X82372325Y-660000D01*
X82912496Y-712964D01*
G04 #@! TA.AperFunction,Conductor*
D26*
G36*
X82912496Y-712964D02*
G01*
X83381424Y-854542D01*
X83813923Y-1084506D01*
X84193512Y-1394092D01*
X84505748Y-1771520D01*
X84738724Y-2202399D01*
X84883573Y-2670331D01*
X84940000Y-3207195D01*
X84940000Y-8997716D01*
X84866000Y-8990428D01*
X83866000Y-8990428D01*
X83741518Y-9002688D01*
X83621820Y-9038998D01*
X83566000Y-9068835D01*
X83510180Y-9038998D01*
X83390482Y-9002688D01*
X83266000Y-8990428D01*
X83051750Y-8993500D01*
X82893000Y-9152250D01*
X82893000Y-9951500D01*
X82913000Y-9951500D01*
X82913000Y-10205500D01*
X82893000Y-10205500D01*
X82893000Y-11004750D01*
X83051750Y-11163500D01*
X83266000Y-11166572D01*
X83390482Y-11154312D01*
X83510180Y-11118002D01*
X83566000Y-11088165D01*
X83606001Y-11109546D01*
X83606000Y-13147454D01*
X83566000Y-13168835D01*
X83510180Y-13138998D01*
X83390482Y-13102688D01*
X83266000Y-13090428D01*
X83051750Y-13093500D01*
X82893000Y-13252250D01*
X82893000Y-14051500D01*
X82913000Y-14051500D01*
X82913000Y-14305500D01*
X82893000Y-14305500D01*
X82893000Y-14325500D01*
X82639000Y-14325500D01*
X82639000Y-14305500D01*
X82619000Y-14305500D01*
X82619000Y-14051500D01*
X82639000Y-14051500D01*
X82639000Y-13252250D01*
X82480250Y-13093500D01*
X82266000Y-13090428D01*
X82251000Y-13091905D01*
X82251000Y-11165095D01*
X82266000Y-11166572D01*
X82480250Y-11163500D01*
X82639000Y-11004750D01*
X82639000Y-10205500D01*
X82619000Y-10205500D01*
X82619000Y-9951500D01*
X82639000Y-9951500D01*
X82639000Y-9152250D01*
X82480250Y-8993500D01*
X82266000Y-8990428D01*
X82251000Y-8991905D01*
X82251000Y-921419D01*
X82254193Y-889000D01*
X82241450Y-759617D01*
X82211231Y-660000D01*
X82372325Y-660000D01*
X82912496Y-712964D01*
G37*
G04 #@! TD.AperFunction*
M02*
